<svg width="1016" height="210" viewBox="0 0 1016 210" fill="none" xmlns="http://www.w3.org/2000/svg">
<path d="M32.36 55.024H30.056V59.872C30.056 60.3093 30.1413 60.624 30.312 60.816C30.4827 60.9973 30.7387 61.0933 31.08 61.104C31.4213 61.104 31.848 61.0933 32.36 61.072V62C31.24 62.1707 30.3973 62.0907 29.832 61.76C29.2773 61.4293 29 60.8 29 59.872V55.024H27.32V54H29V52.08L30.056 51.76V54H32.36V55.024ZM40.3636 60.992C39.553 61.792 38.561 62.192 37.3876 62.192C36.2143 62.192 35.217 61.792 34.3956 60.992C33.585 60.1813 33.1796 59.184 33.1796 58C33.1796 56.816 33.585 55.824 34.3956 55.024C35.217 54.2133 36.2143 53.808 37.3876 53.808C38.561 53.808 39.553 54.2133 40.3636 55.024C41.185 55.824 41.5956 56.816 41.5956 58C41.5956 59.184 41.185 60.1813 40.3636 60.992ZM35.1476 60.256C35.7556 60.864 36.5023 61.168 37.3876 61.168C38.273 61.168 39.0196 60.864 39.6276 60.256C40.2356 59.6373 40.5396 58.8853 40.5396 58C40.5396 57.1147 40.2356 56.368 39.6276 55.76C39.0196 55.1413 38.273 54.832 37.3876 54.832C36.5023 54.832 35.7556 55.1413 35.1476 55.76C34.5396 56.368 34.2356 57.1147 34.2356 58C34.2356 58.8853 34.5396 59.6373 35.1476 60.256ZM54.2908 54H55.3468V61.68C55.3468 62.832 54.9521 63.7387 54.1628 64.4C53.3734 65.0613 52.4294 65.392 51.3308 65.392C49.4534 65.392 48.1894 64.7413 47.5388 63.44L48.4668 62.912C48.9468 63.8827 49.9014 64.368 51.3308 64.368C52.2481 64.368 52.9681 64.1227 53.4908 63.632C54.0241 63.152 54.2908 62.5013 54.2908 61.68V60.432C53.5548 61.6053 52.4774 62.192 51.0588 62.192C49.9174 62.192 48.9414 61.7867 48.1308 60.976C47.3308 60.1653 46.9308 59.1733 46.9308 58C46.9308 56.8267 47.3308 55.8347 48.1308 55.024C48.9414 54.2133 49.9174 53.808 51.0588 53.808C52.4774 53.808 53.5548 54.3947 54.2908 55.568V54ZM48.8988 60.256C49.5068 60.864 50.2534 61.168 51.1388 61.168C52.0241 61.168 52.7708 60.864 53.3788 60.256C53.9868 59.6373 54.2908 58.8853 54.2908 58C54.2908 57.1147 53.9868 56.368 53.3788 55.76C52.7708 55.1413 52.0241 54.832 51.1388 54.832C50.2534 54.832 49.5068 55.1413 48.8988 55.76C48.2908 56.368 47.9868 57.1147 47.9868 58C47.9868 58.8853 48.2908 59.6373 48.8988 60.256ZM61.3026 53.808C62.4866 53.808 63.4413 54.2293 64.1666 55.072C64.9026 55.904 65.2706 56.8907 65.2706 58.032C65.2706 58.1493 65.26 58.3147 65.2386 58.528H58.2146C58.3213 59.3387 58.6626 59.984 59.2386 60.464C59.8253 60.9333 60.5453 61.168 61.3986 61.168C62.0066 61.168 62.5293 61.0453 62.9666 60.8C63.4146 60.544 63.7506 60.2133 63.9746 59.808L64.9026 60.352C64.5506 60.9173 64.0706 61.3653 63.4626 61.696C62.8546 62.0267 62.1613 62.192 61.3826 62.192C60.124 62.192 59.1 61.7973 58.3106 61.008C57.5213 60.2187 57.1266 59.216 57.1266 58C57.1266 56.8053 57.516 55.808 58.2946 55.008C59.0733 54.208 60.076 53.808 61.3026 53.808ZM61.3026 54.832C60.4706 54.832 59.772 55.0827 59.2066 55.584C58.652 56.0747 58.3213 56.7147 58.2146 57.504H64.1826C64.076 56.6613 63.7506 56.0053 63.2066 55.536C62.6626 55.0667 62.028 54.832 61.3026 54.832ZM70.98 55.024H68.676V59.872C68.676 60.3093 68.7613 60.624 68.932 60.816C69.1027 60.9973 69.3587 61.0933 69.7 61.104C70.0413 61.104 70.468 61.0933 70.98 61.072V62C69.86 62.1707 69.0173 62.0907 68.452 61.76C67.8973 61.4293 67.62 60.8 67.62 59.872V55.024H65.94V54H67.62V52.08L68.676 51.76V54H70.98V55.024ZM77.86 52.08C77.7107 52.2293 77.5293 52.304 77.316 52.304C77.1027 52.304 76.9213 52.2293 76.772 52.08C76.6227 51.9307 76.548 51.7493 76.548 51.536C76.548 51.3227 76.6227 51.1413 76.772 50.992C76.9213 50.8427 77.1027 50.768 77.316 50.768C77.5293 50.768 77.7107 50.8427 77.86 50.992C78.0093 51.1413 78.084 51.3227 78.084 51.536C78.084 51.7493 78.0093 51.9307 77.86 52.08ZM76.788 62V54H77.844V62H76.788ZM83.8529 53.808C84.8235 53.808 85.5862 54.1067 86.1409 54.704C86.7062 55.2907 86.9889 56.0853 86.9889 57.088V62H85.9329V57.088C85.9329 56.3733 85.7409 55.8187 85.3569 55.424C84.9835 55.0293 84.4502 54.832 83.7569 54.832C82.9889 54.832 82.3649 55.0773 81.8849 55.568C81.4049 56.048 81.1649 56.7947 81.1649 57.808V62H80.1089V54H81.1649V55.248C81.7622 54.288 82.6582 53.808 83.8529 53.808ZM93.2947 55.024H90.9907V59.872C90.9907 60.3093 91.0761 60.624 91.2467 60.816C91.4174 60.9973 91.6734 61.0933 92.0148 61.104C92.3561 61.104 92.7827 61.0933 93.2947 61.072V62C92.1747 62.1707 91.3321 62.0907 90.7667 61.76C90.2121 61.4293 89.9347 60.8 89.9347 59.872V55.024H88.2547V54H89.9347V52.08L90.9907 51.76V54H93.2947V55.024ZM101.298 60.992C100.488 61.792 99.4957 62.192 98.3224 62.192C97.149 62.192 96.1517 61.792 95.3304 60.992C94.5197 60.1813 94.1144 59.184 94.1144 58C94.1144 56.816 94.5197 55.824 95.3304 55.024C96.1517 54.2133 97.149 53.808 98.3224 53.808C99.4957 53.808 100.488 54.2133 101.298 55.024C102.12 55.824 102.53 56.816 102.53 58C102.53 59.184 102.12 60.1813 101.298 60.992ZM96.0824 60.256C96.6904 60.864 97.437 61.168 98.3224 61.168C99.2077 61.168 99.9544 60.864 100.562 60.256C101.17 59.6373 101.474 58.8853 101.474 58C101.474 57.1147 101.17 56.368 100.562 55.76C99.9544 55.1413 99.2077 54.832 98.3224 54.832C97.437 54.832 96.6904 55.1413 96.0824 55.76C95.4744 56.368 95.1704 57.1147 95.1704 58C95.1704 58.8853 95.4744 59.6373 96.0824 60.256ZM35 80H36.056V88H35V86.432C34.264 87.6053 33.1867 88.192 31.768 88.192C30.6267 88.192 29.6507 87.7867 28.84 86.976C28.04 86.1653 27.64 85.1733 27.64 84C27.64 82.8267 28.04 81.8347 28.84 81.024C29.6507 80.2133 30.6267 79.808 31.768 79.808C33.1867 79.808 34.264 80.3947 35 81.568V80ZM29.608 86.256C30.216 86.864 30.9627 87.168 31.848 87.168C32.7333 87.168 33.48 86.864 34.088 86.256C34.696 85.6373 35 84.8853 35 84C35 83.1147 34.696 82.368 34.088 81.76C33.48 81.1413 32.7333 80.832 31.848 80.832C30.9627 80.832 30.216 81.1413 29.608 81.76C29 82.368 28.696 83.1147 28.696 84C28.696 84.8853 29 85.6373 29.608 86.256ZM46.6279 79.808C47.7692 79.808 48.7399 80.2133 49.5399 81.024C50.3505 81.8347 50.7559 82.8267 50.7559 84C50.7559 85.1733 50.3505 86.1653 49.5399 86.976C48.7399 87.7867 47.7692 88.192 46.6279 88.192C45.2092 88.192 44.1319 87.6053 43.3959 86.432V91.2H42.3399V80H43.3959V81.568C44.1319 80.3947 45.2092 79.808 46.6279 79.808ZM44.3079 86.256C44.9159 86.864 45.6625 87.168 46.5479 87.168C47.4332 87.168 48.1799 86.864 48.7879 86.256C49.3959 85.6373 49.6999 84.8853 49.6999 84C49.6999 83.1147 49.3959 82.368 48.7879 81.76C48.1799 81.1413 47.4332 80.832 46.5479 80.832C45.6625 80.832 44.9159 81.1413 44.3079 81.76C43.6999 82.368 43.3959 83.1147 43.3959 84C43.3959 84.8853 43.6999 85.6373 44.3079 86.256ZM53.5918 81.328C54.0824 80.3573 54.9251 79.872 56.1198 79.872V80.896C55.3944 80.896 54.7918 81.1093 54.3118 81.536C53.8318 81.9627 53.5918 82.6347 53.5918 83.552V88H52.5358V80H53.5918V81.328ZM63.8106 86.992C63 87.792 62.008 88.192 60.8346 88.192C59.6613 88.192 58.664 87.792 57.8426 86.992C57.032 86.1813 56.6266 85.184 56.6266 84C56.6266 82.816 57.032 81.824 57.8426 81.024C58.664 80.2133 59.6613 79.808 60.8346 79.808C62.008 79.808 63 80.2133 63.8106 81.024C64.632 81.824 65.0426 82.816 65.0426 84C65.0426 85.184 64.632 86.1813 63.8106 86.992ZM58.5946 86.256C59.2026 86.864 59.9493 87.168 60.8346 87.168C61.72 87.168 62.4666 86.864 63.0746 86.256C63.6826 85.6373 63.9866 84.8853 63.9866 84C63.9866 83.1147 63.6826 82.368 63.0746 81.76C62.4666 81.1413 61.72 80.832 60.8346 80.832C59.9493 80.832 59.2026 81.1413 58.5946 81.76C57.9866 82.368 57.6826 83.1147 57.6826 84C57.6826 84.8853 57.9866 85.6373 58.5946 86.256ZM71.1217 79.808C72.2631 79.808 73.2337 80.2133 74.0337 81.024C74.8444 81.8347 75.2497 82.8267 75.2497 84C75.2497 85.1733 74.8444 86.1653 74.0337 86.976C73.2337 87.7867 72.2631 88.192 71.1217 88.192C69.7031 88.192 68.6257 87.6053 67.8897 86.432V91.2H66.8337V80H67.8897V81.568C68.6257 80.3947 69.7031 79.808 71.1217 79.808ZM68.8017 86.256C69.4097 86.864 70.1564 87.168 71.0417 87.168C71.9271 87.168 72.6737 86.864 73.2817 86.256C73.8897 85.6373 74.1937 84.8853 74.1937 84C74.1937 83.1147 73.8897 82.368 73.2817 81.76C72.6737 81.1413 71.9271 80.832 71.0417 80.832C70.1564 80.832 69.4097 81.1413 68.8017 81.76C68.1937 82.368 67.8897 83.1147 67.8897 84C67.8897 84.8853 68.1937 85.6373 68.8017 86.256ZM80.7256 79.808C81.9096 79.808 82.8643 80.2293 83.5896 81.072C84.3256 81.904 84.6936 82.8907 84.6936 84.032C84.6936 84.1493 84.683 84.3147 84.6616 84.528H77.6376C77.7443 85.3387 78.0856 85.984 78.6616 86.464C79.2483 86.9333 79.9683 87.168 80.8216 87.168C81.4296 87.168 81.9523 87.0453 82.3896 86.8C82.8376 86.544 83.1736 86.2133 83.3976 85.808L84.3256 86.352C83.9736 86.9173 83.4936 87.3653 82.8856 87.696C82.2776 88.0267 81.5843 88.192 80.8056 88.192C79.547 88.192 78.523 87.7973 77.7336 87.008C76.9443 86.2187 76.5496 85.216 76.5496 84C76.5496 82.8053 76.939 81.808 77.7176 81.008C78.4963 80.208 79.499 79.808 80.7256 79.808ZM80.7256 80.832C79.8936 80.832 79.195 81.0827 78.6296 81.584C78.075 82.0747 77.7443 82.7147 77.6376 83.504H83.6056C83.499 82.6613 83.1736 82.0053 82.6296 81.536C82.0856 81.0667 81.451 80.832 80.7256 80.832ZM87.4534 81.328C87.944 80.3573 88.7867 79.872 89.9814 79.872V80.896C89.256 80.896 88.6534 81.1093 88.1734 81.536C87.6934 81.9627 87.4534 82.6347 87.4534 83.552V88H86.3974V80H87.4534V81.328ZM95.8489 81.024H93.5449V85.872C93.5449 86.3093 93.6302 86.624 93.8009 86.816C93.9715 86.9973 94.2275 87.0933 94.5689 87.104C94.9102 87.104 95.3369 87.0933 95.8489 87.072V88C94.7289 88.1707 93.8862 88.0907 93.3209 87.76C92.7662 87.4293 92.4889 86.8 92.4889 85.872V81.024H90.8089V80H92.4889V78.08L93.5449 77.76V80H95.8489V81.024ZM103.549 80H104.669L101.245 88.736C100.936 89.5253 100.493 90.144 99.9171 90.592C99.3518 91.0507 98.7171 91.2533 98.0131 91.2V90.208C98.9731 90.3147 99.7038 89.76 100.205 88.544L100.413 88.048L96.8291 80H97.9491L100.957 86.704L103.549 80Z" fill="#110229"/>
<path d="M44.52 14.2V31H42.312V17.872L36.816 27.016H36.528L31.032 17.896V31H28.8V14.2H31.32L36.672 23.08L42 14.2H44.52ZM58.0245 29.488C56.7925 30.704 55.2965 31.312 53.5365 31.312C51.7765 31.312 50.2805 30.704 49.0485 29.488C47.8325 28.272 47.2245 26.776 47.2245 25C47.2245 23.224 47.8325 21.728 49.0485 20.512C50.2805 19.296 51.7765 18.688 53.5365 18.688C55.2965 18.688 56.7925 19.296 58.0245 20.512C59.2565 21.728 59.8725 23.224 59.8725 25C59.8725 26.776 59.2565 28.272 58.0245 29.488ZM53.5365 29.272C54.7365 29.272 55.7445 28.864 56.5605 28.048C57.3765 27.232 57.7845 26.216 57.7845 25C57.7845 23.784 57.3765 22.768 56.5605 21.952C55.7445 21.136 54.7365 20.728 53.5365 20.728C52.3525 20.728 51.3525 21.136 50.5365 21.952C49.7205 22.768 49.3125 23.784 49.3125 25C49.3125 26.216 49.7205 27.232 50.5365 28.048C51.3525 28.864 52.3525 29.272 53.5365 29.272ZM68.31 18.688C69.718 18.688 70.846 19.136 71.694 20.032C72.542 20.912 72.966 22.112 72.966 23.632V31H70.878V23.752C70.878 22.776 70.614 22.024 70.086 21.496C69.558 20.952 68.83 20.68 67.902 20.68C66.862 20.68 66.022 21.008 65.382 21.664C64.742 22.304 64.422 23.296 64.422 24.64V31H62.334V19H64.422V20.728C65.27 19.368 66.566 18.688 68.31 18.688ZM82.4089 21.016H79.2169V27.52C79.2169 28.112 79.3289 28.536 79.5529 28.792C79.7929 29.032 80.1529 29.16 80.6329 29.176C81.1129 29.176 81.7049 29.16 82.4089 29.128V31C80.5849 31.24 79.2489 31.096 78.4009 30.568C77.5529 30.024 77.1289 29.008 77.1289 27.52V21.016H74.7529V19H77.1289V16.264L79.2169 15.64V19H82.4089V21.016ZM90.8569 18.688C92.2649 18.688 93.3929 19.136 94.2409 20.032C95.0889 20.912 95.5129 22.112 95.5129 23.632V31H93.4249V23.752C93.4249 22.776 93.1609 22.024 92.6329 21.496C92.1049 20.952 91.3769 20.68 90.4489 20.68C89.4089 20.68 88.5689 21.008 87.9289 21.664C87.2889 22.304 86.9689 23.296 86.9689 24.64V31H84.8809V14.2H86.9689V20.728C87.8169 19.368 89.1129 18.688 90.8569 18.688ZM100.228 22.24C100.228 22.704 100.46 23.08 100.924 23.368C101.388 23.64 101.948 23.864 102.604 24.04C103.26 24.2 103.916 24.392 104.572 24.616C105.228 24.824 105.788 25.192 106.252 25.72C106.716 26.232 106.948 26.896 106.948 27.712C106.948 28.8 106.524 29.672 105.676 30.328C104.844 30.984 103.772 31.312 102.46 31.312C101.292 31.312 100.292 31.056 99.4598 30.544C98.6278 30.032 98.0358 29.352 97.6838 28.504L99.4838 27.472C99.6758 28.048 100.036 28.504 100.564 28.84C101.092 29.176 101.724 29.344 102.46 29.344C103.148 29.344 103.716 29.216 104.164 28.96C104.612 28.688 104.836 28.272 104.836 27.712C104.836 27.248 104.604 26.88 104.14 26.608C103.676 26.32 103.116 26.096 102.46 25.936C101.804 25.76 101.148 25.56 100.492 25.336C99.8358 25.112 99.2758 24.744 98.8118 24.232C98.3478 23.72 98.1158 23.064 98.1158 22.264C98.1158 21.224 98.5158 20.368 99.3158 19.696C100.132 19.024 101.148 18.688 102.364 18.688C103.34 18.688 104.204 18.912 104.956 19.36C105.724 19.792 106.3 20.4 106.684 21.184L104.932 22.168C104.5 21.144 103.644 20.632 102.364 20.632C101.772 20.632 101.268 20.776 100.852 21.064C100.436 21.336 100.228 21.728 100.228 22.24Z" fill="#1994D9"/>
<circle cx="238.5" cy="111.5" r="89.5" fill="#1994D9"/>
<path d="M195.696 106.312C193.152 106.312 191.048 105.472 189.384 103.792C187.736 102.112 186.912 100.048 186.912 97.6C186.912 95.152 187.736 93.088 189.384 91.408C191.048 89.728 193.152 88.888 195.696 88.888C197.232 88.888 198.64 89.256 199.92 89.992C201.216 90.728 202.224 91.72 202.944 92.968L201 94.096C200.52 93.168 199.8 92.432 198.84 91.888C197.896 91.328 196.848 91.048 195.696 91.048C193.76 91.048 192.176 91.672 190.944 92.92C189.728 94.168 189.12 95.728 189.12 97.6C189.12 99.456 189.728 101.008 190.944 102.256C192.176 103.504 193.76 104.128 195.696 104.128C196.848 104.128 197.896 103.856 198.84 103.312C199.8 102.752 200.52 102.016 201 101.104L202.944 102.208C202.24 103.456 201.24 104.456 199.944 105.208C198.648 105.944 197.232 106.312 195.696 106.312ZM216.104 104.704C214.936 105.776 213.424 106.312 211.568 106.312C209.712 106.312 208.192 105.776 207.008 104.704C205.84 103.616 205.256 102.168 205.256 100.36V89.2H207.488V100.264C207.488 101.448 207.84 102.392 208.544 103.096C209.248 103.784 210.256 104.128 211.568 104.128C212.88 104.128 213.888 103.784 214.592 103.096C215.296 102.392 215.648 101.448 215.648 100.264V89.2H217.856V100.36C217.856 102.168 217.272 103.616 216.104 104.704ZM231.229 106L227.461 99.568H223.501V106H221.269V89.2H227.989C229.429 89.2 230.661 89.712 231.685 90.736C232.709 91.744 233.221 92.968 233.221 94.408C233.221 95.496 232.893 96.488 232.237 97.384C231.597 98.28 230.765 98.912 229.741 99.28L233.701 106H231.229ZM223.501 91.288V97.552H227.989C228.821 97.552 229.525 97.248 230.101 96.64C230.693 96.016 230.989 95.272 230.989 94.408C230.989 93.544 230.693 92.808 230.101 92.2C229.525 91.592 228.821 91.288 227.989 91.288H223.501ZM245.901 106L242.133 99.568H238.173V106H235.941V89.2H242.661C244.101 89.2 245.333 89.712 246.357 90.736C247.381 91.744 247.893 92.968 247.893 94.408C247.893 95.496 247.565 96.488 246.909 97.384C246.269 98.28 245.437 98.912 244.413 99.28L248.373 106H245.901ZM238.173 91.288V97.552H242.661C243.493 97.552 244.197 97.248 244.773 96.64C245.365 96.016 245.661 95.272 245.661 94.408C245.661 93.544 245.365 92.808 244.773 92.2C244.197 91.592 243.493 91.288 242.661 91.288H238.173ZM252.845 103.888H260.645V106H250.613V89.2H260.525V91.312H252.845V96.472H259.925V98.56H252.845V103.888ZM273.779 89.2H276.011V106H274.211L265.571 93.448V106H263.339V89.2H265.139L273.779 101.728V89.2ZM290.357 89.2V91.312H285.389V106H283.181V91.312H278.237V89.2H290.357ZM193.896 117.2C195.448 117.2 196.736 117.72 197.76 118.76C198.8 119.784 199.32 121.064 199.32 122.6C199.32 124.12 198.8 125.4 197.76 126.44C196.736 127.48 195.448 128 193.896 128H190.032V134H187.8V117.2H193.896ZM193.896 125.912C194.824 125.912 195.592 125.6 196.2 124.976C196.808 124.336 197.112 123.544 197.112 122.6C197.112 121.64 196.808 120.848 196.2 120.224C195.592 119.6 194.824 119.288 193.896 119.288H190.032V125.912H193.896ZM211.916 134L208.148 127.568H204.188V134H201.956V117.2H208.676C210.116 117.2 211.348 117.712 212.372 118.736C213.396 119.744 213.908 120.968 213.908 122.408C213.908 123.496 213.58 124.488 212.924 125.384C212.284 126.28 211.452 126.912 210.428 127.28L214.388 134H211.916ZM204.188 119.288V125.552H208.676C209.508 125.552 210.212 125.248 210.788 124.64C211.38 124.016 211.676 123.272 211.676 122.408C211.676 121.544 211.38 120.808 210.788 120.2C210.212 119.592 209.508 119.288 208.676 119.288H204.188ZM230.526 131.768C228.846 133.464 226.79 134.312 224.358 134.312C221.926 134.312 219.87 133.464 218.19 131.768C216.51 130.072 215.67 128.016 215.67 125.6C215.67 123.168 216.51 121.112 218.19 119.432C219.87 117.736 221.926 116.888 224.358 116.888C226.79 116.888 228.846 117.736 230.526 119.432C232.222 121.112 233.07 123.168 233.07 125.6C233.07 128.016 232.222 130.072 230.526 131.768ZM219.726 130.256C220.974 131.504 222.518 132.128 224.358 132.128C226.198 132.128 227.734 131.504 228.966 130.256C230.214 128.992 230.838 127.44 230.838 125.6C230.838 123.744 230.214 122.192 228.966 120.944C227.734 119.68 226.198 119.048 224.358 119.048C222.518 119.048 220.974 119.68 219.726 120.944C218.494 122.192 217.878 123.744 217.878 125.6C217.878 127.44 218.494 128.992 219.726 130.256ZM243.649 134.312C241.105 134.312 239.001 133.472 237.337 131.792C235.689 130.112 234.865 128.048 234.865 125.6C234.865 123.152 235.689 121.088 237.337 119.408C239.001 117.728 241.105 116.888 243.649 116.888C245.185 116.888 246.593 117.256 247.873 117.992C249.169 118.728 250.177 119.72 250.897 120.968L248.953 122.096C248.473 121.168 247.753 120.432 246.793 119.888C245.849 119.328 244.801 119.048 243.649 119.048C241.713 119.048 240.129 119.672 238.897 120.92C237.681 122.168 237.073 123.728 237.073 125.6C237.073 127.456 237.681 129.008 238.897 130.256C240.129 131.504 241.713 132.128 243.649 132.128C244.801 132.128 245.849 131.856 246.793 131.312C247.753 130.752 248.473 130.016 248.953 129.104L250.897 130.208C250.193 131.456 249.193 132.456 247.897 133.208C246.601 133.944 245.185 134.312 243.649 134.312ZM255.657 131.888H263.457V134H253.425V117.2H263.337V119.312H255.657V124.472H262.737V126.56H255.657V131.888ZM271.576 134.312C270.008 134.312 268.664 133.944 267.544 133.208C266.44 132.472 265.664 131.464 265.216 130.184L267.136 129.08C267.792 131.112 269.288 132.128 271.624 132.128C272.776 132.128 273.656 131.896 274.264 131.432C274.872 130.952 275.176 130.32 275.176 129.536C275.176 128.736 274.872 128.136 274.264 127.736C273.656 127.336 272.64 126.912 271.216 126.464C270.512 126.24 269.976 126.064 269.608 125.936C269.24 125.792 268.776 125.584 268.216 125.312C267.672 125.024 267.264 124.736 266.992 124.448C266.72 124.144 266.472 123.752 266.248 123.272C266.04 122.792 265.936 122.248 265.936 121.64C265.936 120.184 266.448 119.032 267.472 118.184C268.496 117.32 269.744 116.888 271.216 116.888C272.544 116.888 273.696 117.224 274.672 117.896C275.664 118.568 276.408 119.456 276.904 120.56L275.032 121.64C274.312 119.912 273.04 119.048 271.216 119.048C270.304 119.048 269.568 119.272 269.008 119.72C268.448 120.168 268.168 120.776 268.168 121.544C268.168 122.28 268.432 122.84 268.96 123.224C269.488 123.608 270.4 124.008 271.696 124.424C272.16 124.568 272.488 124.672 272.68 124.736C272.872 124.8 273.168 124.912 273.568 125.072C273.984 125.232 274.288 125.36 274.48 125.456C274.672 125.552 274.928 125.688 275.248 125.864C275.584 126.04 275.832 126.208 275.992 126.368C276.152 126.528 276.336 126.728 276.544 126.968C276.768 127.192 276.928 127.424 277.024 127.664C277.12 127.904 277.2 128.184 277.264 128.504C277.344 128.808 277.384 129.136 277.384 129.488C277.384 130.96 276.848 132.136 275.776 133.016C274.704 133.88 273.304 134.312 271.576 134.312ZM284.865 134.312C283.297 134.312 281.953 133.944 280.833 133.208C279.729 132.472 278.953 131.464 278.505 130.184L280.425 129.08C281.081 131.112 282.577 132.128 284.913 132.128C286.065 132.128 286.945 131.896 287.553 131.432C288.161 130.952 288.465 130.32 288.465 129.536C288.465 128.736 288.161 128.136 287.553 127.736C286.945 127.336 285.929 126.912 284.505 126.464C283.801 126.24 283.265 126.064 282.897 125.936C282.529 125.792 282.065 125.584 281.505 125.312C280.961 125.024 280.553 124.736 280.281 124.448C280.009 124.144 279.761 123.752 279.537 123.272C279.329 122.792 279.225 122.248 279.225 121.64C279.225 120.184 279.737 119.032 280.761 118.184C281.785 117.32 283.033 116.888 284.505 116.888C285.833 116.888 286.985 117.224 287.961 117.896C288.953 118.568 289.697 119.456 290.193 120.56L288.321 121.64C287.601 119.912 286.329 119.048 284.505 119.048C283.593 119.048 282.857 119.272 282.297 119.72C281.737 120.168 281.457 120.776 281.457 121.544C281.457 122.28 281.721 122.84 282.249 123.224C282.777 123.608 283.689 124.008 284.985 124.424C285.449 124.568 285.777 124.672 285.969 124.736C286.161 124.8 286.457 124.912 286.857 125.072C287.273 125.232 287.577 125.36 287.769 125.456C287.961 125.552 288.217 125.688 288.537 125.864C288.873 126.04 289.121 126.208 289.281 126.368C289.441 126.528 289.625 126.728 289.833 126.968C290.057 127.192 290.217 127.424 290.313 127.664C290.409 127.904 290.489 128.184 290.553 128.504C290.633 128.808 290.673 129.136 290.673 129.488C290.673 130.96 290.137 132.136 289.065 133.016C287.993 133.88 286.593 134.312 284.865 134.312Z" fill="white"/>
<path d="M139.065 112.054C139.647 111.465 139.641 110.515 139.052 109.933L129.448 100.445C128.859 99.8624 127.909 99.8681 127.327 100.457C126.745 101.047 126.751 101.996 127.34 102.579L135.876 111.013L127.442 119.549C126.86 120.138 126.866 121.088 127.455 121.67C128.044 122.252 128.994 122.247 129.576 121.657L139.065 112.054ZM1.00904 113.325L138.007 112.5L137.988 109.5L0.990964 110.325L1.00904 113.325Z" fill="#8F90A6"/>
<path d="M368.36 55.024H366.056V59.872C366.056 60.3093 366.141 60.624 366.312 60.816C366.483 60.9973 366.739 61.0933 367.08 61.104C367.421 61.104 367.848 61.0933 368.36 61.072V62C367.24 62.1707 366.397 62.0907 365.832 61.76C365.277 61.4293 365 60.8 365 59.872V55.024H363.32V54H365V52.08L366.056 51.76V54H368.36V55.024ZM376.364 60.992C375.553 61.792 374.561 62.192 373.388 62.192C372.214 62.192 371.217 61.792 370.396 60.992C369.585 60.1813 369.18 59.184 369.18 58C369.18 56.816 369.585 55.824 370.396 55.024C371.217 54.2133 372.214 53.808 373.388 53.808C374.561 53.808 375.553 54.2133 376.364 55.024C377.185 55.824 377.596 56.816 377.596 58C377.596 59.184 377.185 60.1813 376.364 60.992ZM371.148 60.256C371.756 60.864 372.502 61.168 373.388 61.168C374.273 61.168 375.02 60.864 375.628 60.256C376.236 59.6373 376.54 58.8853 376.54 58C376.54 57.1147 376.236 56.368 375.628 55.76C375.02 55.1413 374.273 54.832 373.388 54.832C372.502 54.832 371.756 55.1413 371.148 55.76C370.54 56.368 370.236 57.1147 370.236 58C370.236 58.8853 370.54 59.6373 371.148 60.256ZM390.291 54H391.347V61.68C391.347 62.832 390.952 63.7387 390.163 64.4C389.373 65.0613 388.429 65.392 387.331 65.392C385.453 65.392 384.189 64.7413 383.539 63.44L384.467 62.912C384.947 63.8827 385.901 64.368 387.331 64.368C388.248 64.368 388.968 64.1227 389.491 63.632C390.024 63.152 390.291 62.5013 390.291 61.68V60.432C389.555 61.6053 388.477 62.192 387.059 62.192C385.917 62.192 384.941 61.7867 384.131 60.976C383.331 60.1653 382.931 59.1733 382.931 58C382.931 56.8267 383.331 55.8347 384.131 55.024C384.941 54.2133 385.917 53.808 387.059 53.808C388.477 53.808 389.555 54.3947 390.291 55.568V54ZM384.899 60.256C385.507 60.864 386.253 61.168 387.139 61.168C388.024 61.168 388.771 60.864 389.379 60.256C389.987 59.6373 390.291 58.8853 390.291 58C390.291 57.1147 389.987 56.368 389.379 55.76C388.771 55.1413 388.024 54.832 387.139 54.832C386.253 54.832 385.507 55.1413 384.899 55.76C384.291 56.368 383.987 57.1147 383.987 58C383.987 58.8853 384.291 59.6373 384.899 60.256ZM397.303 53.808C398.487 53.808 399.441 54.2293 400.167 55.072C400.903 55.904 401.271 56.8907 401.271 58.032C401.271 58.1493 401.26 58.3147 401.239 58.528H394.215C394.321 59.3387 394.663 59.984 395.239 60.464C395.825 60.9333 396.545 61.168 397.399 61.168C398.007 61.168 398.529 61.0453 398.967 60.8C399.415 60.544 399.751 60.2133 399.975 59.808L400.903 60.352C400.551 60.9173 400.071 61.3653 399.463 61.696C398.855 62.0267 398.161 62.192 397.383 62.192C396.124 62.192 395.1 61.7973 394.311 61.008C393.521 60.2187 393.127 59.216 393.127 58C393.127 56.8053 393.516 55.808 394.295 55.008C395.073 54.208 396.076 53.808 397.303 53.808ZM397.303 54.832C396.471 54.832 395.772 55.0827 395.207 55.584C394.652 56.0747 394.321 56.7147 394.215 57.504H400.183C400.076 56.6613 399.751 56.0053 399.207 55.536C398.663 55.0667 398.028 54.832 397.303 54.832ZM406.98 55.024H404.676V59.872C404.676 60.3093 404.761 60.624 404.932 60.816C405.103 60.9973 405.359 61.0933 405.7 61.104C406.041 61.104 406.468 61.0933 406.98 61.072V62C405.86 62.1707 405.017 62.0907 404.452 61.76C403.897 61.4293 403.62 60.8 403.62 59.872V55.024H401.94V54H403.62V52.08L404.676 51.76V54H406.98V55.024ZM419.492 60.992C418.681 61.792 417.689 62.192 416.516 62.192C415.343 62.192 414.345 61.792 413.524 60.992C412.713 60.1813 412.308 59.184 412.308 58C412.308 56.816 412.713 55.824 413.524 55.024C414.345 54.2133 415.343 53.808 416.516 53.808C417.689 53.808 418.681 54.2133 419.492 55.024C420.313 55.824 420.724 56.816 420.724 58C420.724 59.184 420.313 60.1813 419.492 60.992ZM414.276 60.256C414.884 60.864 415.631 61.168 416.516 61.168C417.401 61.168 418.148 60.864 418.756 60.256C419.364 59.6373 419.668 58.8853 419.668 58C419.668 57.1147 419.364 56.368 418.756 55.76C418.148 55.1413 417.401 54.832 416.516 54.832C415.631 54.832 414.884 55.1413 414.276 55.76C413.668 56.368 413.364 57.1147 413.364 58C413.364 58.8853 413.668 59.6373 414.276 60.256ZM428.147 54H429.203V62H428.147V60.752C427.55 61.712 426.654 62.192 425.459 62.192C424.488 62.192 423.72 61.8987 423.155 61.312C422.6 60.7147 422.323 59.9147 422.323 58.912V54H423.379V58.912C423.379 59.6267 423.566 60.1813 423.939 60.576C424.323 60.9707 424.862 61.168 425.555 61.168C426.323 61.168 426.947 60.928 427.427 60.448C427.907 59.9573 428.147 59.2053 428.147 58.192V54ZM435.701 55.024H433.397V59.872C433.397 60.3093 433.482 60.624 433.653 60.816C433.824 60.9973 434.08 61.0933 434.421 61.104C434.762 61.104 435.189 61.0933 435.701 61.072V62C434.581 62.1707 433.738 62.0907 433.173 61.76C432.618 61.4293 432.341 60.8 432.341 59.872V55.024H430.661V54H432.341V52.08L433.397 51.76V54H435.701V55.024ZM448.213 60.992C447.402 61.792 446.41 62.192 445.237 62.192C444.064 62.192 443.066 61.792 442.245 60.992C441.434 60.1813 441.029 59.184 441.029 58C441.029 56.816 441.434 55.824 442.245 55.024C443.066 54.2133 444.064 53.808 445.237 53.808C446.41 53.808 447.402 54.2133 448.213 55.024C449.034 55.824 449.445 56.816 449.445 58C449.445 59.184 449.034 60.1813 448.213 60.992ZM442.997 60.256C443.605 60.864 444.352 61.168 445.237 61.168C446.122 61.168 446.869 60.864 447.477 60.256C448.085 59.6373 448.389 58.8853 448.389 58C448.389 57.1147 448.085 56.368 447.477 55.76C446.869 55.1413 446.122 54.832 445.237 54.832C444.352 54.832 443.605 55.1413 442.997 55.76C442.389 56.368 442.085 57.1147 442.085 58C442.085 58.8853 442.389 59.6373 442.997 60.256ZM454.924 51.632C454.145 51.568 453.564 51.7013 453.18 52.032C452.806 52.3627 452.62 52.912 452.62 53.68V54H454.924V55.024H452.62V62H451.564V55.024H450.204V54H451.564V53.68C451.564 52.6347 451.852 51.8453 452.428 51.312C453.014 50.768 453.846 50.5333 454.924 50.608V51.632ZM371 80H372.056V88H371V86.432C370.264 87.6053 369.187 88.192 367.768 88.192C366.627 88.192 365.651 87.7867 364.84 86.976C364.04 86.1653 363.64 85.1733 363.64 84C363.64 82.8267 364.04 81.8347 364.84 81.024C365.651 80.2133 366.627 79.808 367.768 79.808C369.187 79.808 370.264 80.3947 371 81.568V80ZM365.608 86.256C366.216 86.864 366.963 87.168 367.848 87.168C368.733 87.168 369.48 86.864 370.088 86.256C370.696 85.6373 371 84.8853 371 84C371 83.1147 370.696 82.368 370.088 81.76C369.48 81.1413 368.733 80.832 367.848 80.832C366.963 80.832 366.216 81.1413 365.608 81.76C365 82.368 364.696 83.1147 364.696 84C364.696 84.8853 365 85.6373 365.608 86.256ZM382.628 79.808C383.769 79.808 384.74 80.2133 385.54 81.024C386.351 81.8347 386.756 82.8267 386.756 84C386.756 85.1733 386.351 86.1653 385.54 86.976C384.74 87.7867 383.769 88.192 382.628 88.192C381.209 88.192 380.132 87.6053 379.396 86.432V91.2H378.34V80H379.396V81.568C380.132 80.3947 381.209 79.808 382.628 79.808ZM380.308 86.256C380.916 86.864 381.663 87.168 382.548 87.168C383.433 87.168 384.18 86.864 384.788 86.256C385.396 85.6373 385.7 84.8853 385.7 84C385.7 83.1147 385.396 82.368 384.788 81.76C384.18 81.1413 383.433 80.832 382.548 80.832C381.663 80.832 380.916 81.1413 380.308 81.76C379.7 82.368 379.396 83.1147 379.396 84C379.396 84.8853 379.7 85.6373 380.308 86.256ZM389.592 81.328C390.082 80.3573 390.925 79.872 392.12 79.872V80.896C391.394 80.896 390.792 81.1093 390.312 81.536C389.832 81.9627 389.592 82.6347 389.592 83.552V88H388.536V80H389.592V81.328ZM399.811 86.992C399 87.792 398.008 88.192 396.835 88.192C395.661 88.192 394.664 87.792 393.843 86.992C393.032 86.1813 392.627 85.184 392.627 84C392.627 82.816 393.032 81.824 393.843 81.024C394.664 80.2133 395.661 79.808 396.835 79.808C398.008 79.808 399 80.2133 399.811 81.024C400.632 81.824 401.043 82.816 401.043 84C401.043 85.184 400.632 86.1813 399.811 86.992ZM394.595 86.256C395.203 86.864 395.949 87.168 396.835 87.168C397.72 87.168 398.467 86.864 399.075 86.256C399.683 85.6373 399.987 84.8853 399.987 84C399.987 83.1147 399.683 82.368 399.075 81.76C398.467 81.1413 397.72 80.832 396.835 80.832C395.949 80.832 395.203 81.1413 394.595 81.76C393.987 82.368 393.683 83.1147 393.683 84C393.683 84.8853 393.987 85.6373 394.595 86.256ZM407.122 79.808C408.263 79.808 409.234 80.2133 410.034 81.024C410.844 81.8347 411.25 82.8267 411.25 84C411.25 85.1733 410.844 86.1653 410.034 86.976C409.234 87.7867 408.263 88.192 407.122 88.192C405.703 88.192 404.626 87.6053 403.89 86.432V91.2H402.834V80H403.89V81.568C404.626 80.3947 405.703 79.808 407.122 79.808ZM404.802 86.256C405.41 86.864 406.156 87.168 407.042 87.168C407.927 87.168 408.674 86.864 409.282 86.256C409.89 85.6373 410.194 84.8853 410.194 84C410.194 83.1147 409.89 82.368 409.282 81.76C408.674 81.1413 407.927 80.832 407.042 80.832C406.156 80.832 405.41 81.1413 404.802 81.76C404.194 82.368 403.89 83.1147 403.89 84C403.89 84.8853 404.194 85.6373 404.802 86.256ZM416.726 79.808C417.91 79.808 418.864 80.2293 419.59 81.072C420.326 81.904 420.694 82.8907 420.694 84.032C420.694 84.1493 420.683 84.3147 420.662 84.528H413.638C413.744 85.3387 414.086 85.984 414.662 86.464C415.248 86.9333 415.968 87.168 416.822 87.168C417.43 87.168 417.952 87.0453 418.39 86.8C418.838 86.544 419.174 86.2133 419.398 85.808L420.326 86.352C419.974 86.9173 419.494 87.3653 418.886 87.696C418.278 88.0267 417.584 88.192 416.806 88.192C415.547 88.192 414.523 87.7973 413.734 87.008C412.944 86.2187 412.55 85.216 412.55 84C412.55 82.8053 412.939 81.808 413.718 81.008C414.496 80.208 415.499 79.808 416.726 79.808ZM416.726 80.832C415.894 80.832 415.195 81.0827 414.63 81.584C414.075 82.0747 413.744 82.7147 413.638 83.504H419.606C419.499 82.6613 419.174 82.0053 418.63 81.536C418.086 81.0667 417.451 80.832 416.726 80.832ZM423.453 81.328C423.944 80.3573 424.787 79.872 425.981 79.872V80.896C425.256 80.896 424.653 81.1093 424.173 81.536C423.693 81.9627 423.453 82.6347 423.453 83.552V88H422.397V80H423.453V81.328ZM431.849 81.024H429.545V85.872C429.545 86.3093 429.63 86.624 429.801 86.816C429.972 86.9973 430.228 87.0933 430.569 87.104C430.91 87.104 431.337 87.0933 431.849 87.072V88C430.729 88.1707 429.886 88.0907 429.321 87.76C428.766 87.4293 428.489 86.8 428.489 85.872V81.024H426.809V80H428.489V78.08L429.545 77.76V80H431.849V81.024ZM439.549 80H440.669L437.245 88.736C436.936 89.5253 436.493 90.144 435.917 90.592C435.352 91.0507 434.717 91.2533 434.013 91.2V90.208C434.973 90.3147 435.704 89.76 436.205 88.544L436.413 88.048L432.829 80H433.949L436.957 86.704L439.549 80Z" fill="#110229"/>
<path d="M377.304 14.2L371.352 24.208V31H369.12V24.184L363.192 14.2H365.688L370.248 22.072L374.808 14.2H377.304ZM378.142 25.96C378.35 27.032 378.838 27.864 379.606 28.456C380.39 29.048 381.35 29.344 382.486 29.344C384.07 29.344 385.222 28.76 385.942 27.592L387.718 28.6C386.55 30.408 384.79 31.312 382.438 31.312C380.534 31.312 378.982 30.72 377.782 29.536C376.598 28.336 376.006 26.824 376.006 25C376.006 23.192 376.59 21.688 377.758 20.488C378.926 19.288 380.438 18.688 382.294 18.688C384.054 18.688 385.486 19.312 386.59 20.56C387.71 21.792 388.27 23.28 388.27 25.024C388.27 25.328 388.246 25.64 388.198 25.96H378.142ZM382.294 20.656C381.174 20.656 380.246 20.976 379.51 21.616C378.774 22.24 378.318 23.08 378.142 24.136H386.158C385.982 23 385.534 22.136 384.814 21.544C384.094 20.952 383.254 20.656 382.294 20.656ZM400.583 19H402.671V31H400.583V28.936C399.543 30.52 398.031 31.312 396.047 31.312C394.367 31.312 392.935 30.704 391.751 29.488C390.567 28.256 389.975 26.76 389.975 25C389.975 23.24 390.567 21.752 391.751 20.536C392.935 19.304 394.367 18.688 396.047 18.688C398.031 18.688 399.543 19.48 400.583 21.064V19ZM396.311 29.296C397.527 29.296 398.543 28.888 399.359 28.072C400.175 27.24 400.583 26.216 400.583 25C400.583 23.784 400.175 22.768 399.359 21.952C398.543 21.12 397.527 20.704 396.311 20.704C395.111 20.704 394.103 21.12 393.287 21.952C392.471 22.768 392.062 23.784 392.062 25C392.062 26.216 392.471 27.24 393.287 28.072C394.103 28.888 395.111 29.296 396.311 29.296ZM407.922 21.016C408.61 19.528 409.858 18.784 411.666 18.784V20.968C410.642 20.92 409.762 21.192 409.026 21.784C408.29 22.376 407.922 23.328 407.922 24.64V31H405.834V19H407.922V21.016ZM415.064 22.24C415.064 22.704 415.296 23.08 415.76 23.368C416.224 23.64 416.784 23.864 417.44 24.04C418.096 24.2 418.752 24.392 419.408 24.616C420.064 24.824 420.624 25.192 421.088 25.72C421.552 26.232 421.784 26.896 421.784 27.712C421.784 28.8 421.36 29.672 420.512 30.328C419.68 30.984 418.608 31.312 417.296 31.312C416.128 31.312 415.128 31.056 414.296 30.544C413.464 30.032 412.872 29.352 412.52 28.504L414.32 27.472C414.512 28.048 414.872 28.504 415.4 28.84C415.928 29.176 416.56 29.344 417.296 29.344C417.984 29.344 418.552 29.216 419 28.96C419.448 28.688 419.672 28.272 419.672 27.712C419.672 27.248 419.44 26.88 418.976 26.608C418.512 26.32 417.952 26.096 417.296 25.936C416.64 25.76 415.984 25.56 415.328 25.336C414.672 25.112 414.112 24.744 413.648 24.232C413.184 23.72 412.952 23.064 412.952 22.264C412.952 21.224 413.352 20.368 414.152 19.696C414.968 19.024 415.984 18.688 417.2 18.688C418.176 18.688 419.04 18.912 419.792 19.36C420.56 19.792 421.136 20.4 421.52 21.184L419.768 22.168C419.336 21.144 418.48 20.632 417.2 20.632C416.608 20.632 416.104 20.776 415.688 21.064C415.272 21.336 415.064 21.728 415.064 22.24Z" fill="#1994D9"/>
<path d="M475.065 112.054C475.647 111.465 475.641 110.515 475.052 109.933L465.448 100.445C464.859 99.8624 463.909 99.8681 463.327 100.457C462.745 101.047 462.751 101.996 463.34 102.579L471.876 111.013L463.442 119.549C462.86 120.138 462.866 121.088 463.455 121.67C464.044 122.252 464.994 122.247 465.576 121.657L475.065 112.054ZM337.009 113.325L474.007 112.5L473.988 109.5L336.991 110.325L337.009 113.325Z" fill="#8F90A6"/>
<path d="M572.36 55.024H570.056V59.872C570.056 60.3093 570.141 60.624 570.312 60.816C570.483 60.9973 570.739 61.0933 571.08 61.104C571.421 61.104 571.848 61.0933 572.36 61.072V62C571.24 62.1707 570.397 62.0907 569.832 61.76C569.277 61.4293 569 60.8 569 59.872V55.024H567.32V54H569V52.08L570.056 51.76V54H572.36V55.024ZM580.364 60.992C579.553 61.792 578.561 62.192 577.388 62.192C576.214 62.192 575.217 61.792 574.396 60.992C573.585 60.1813 573.18 59.184 573.18 58C573.18 56.816 573.585 55.824 574.396 55.024C575.217 54.2133 576.214 53.808 577.388 53.808C578.561 53.808 579.553 54.2133 580.364 55.024C581.185 55.824 581.596 56.816 581.596 58C581.596 59.184 581.185 60.1813 580.364 60.992ZM575.148 60.256C575.756 60.864 576.502 61.168 577.388 61.168C578.273 61.168 579.02 60.864 579.628 60.256C580.236 59.6373 580.54 58.8853 580.54 58C580.54 57.1147 580.236 56.368 579.628 55.76C579.02 55.1413 578.273 54.832 577.388 54.832C576.502 54.832 575.756 55.1413 575.148 55.76C574.54 56.368 574.236 57.1147 574.236 58C574.236 58.8853 574.54 59.6373 575.148 60.256ZM594.291 54H595.347V61.68C595.347 62.832 594.952 63.7387 594.163 64.4C593.373 65.0613 592.429 65.392 591.331 65.392C589.453 65.392 588.189 64.7413 587.539 63.44L588.467 62.912C588.947 63.8827 589.901 64.368 591.331 64.368C592.248 64.368 592.968 64.1227 593.491 63.632C594.024 63.152 594.291 62.5013 594.291 61.68V60.432C593.555 61.6053 592.477 62.192 591.059 62.192C589.917 62.192 588.941 61.7867 588.131 60.976C587.331 60.1653 586.931 59.1733 586.931 58C586.931 56.8267 587.331 55.8347 588.131 55.024C588.941 54.2133 589.917 53.808 591.059 53.808C592.477 53.808 593.555 54.3947 594.291 55.568V54ZM588.899 60.256C589.507 60.864 590.253 61.168 591.139 61.168C592.024 61.168 592.771 60.864 593.379 60.256C593.987 59.6373 594.291 58.8853 594.291 58C594.291 57.1147 593.987 56.368 593.379 55.76C592.771 55.1413 592.024 54.832 591.139 54.832C590.253 54.832 589.507 55.1413 588.899 55.76C588.291 56.368 587.987 57.1147 587.987 58C587.987 58.8853 588.291 59.6373 588.899 60.256ZM601.303 53.808C602.487 53.808 603.441 54.2293 604.167 55.072C604.903 55.904 605.271 56.8907 605.271 58.032C605.271 58.1493 605.26 58.3147 605.239 58.528H598.215C598.321 59.3387 598.663 59.984 599.239 60.464C599.825 60.9333 600.545 61.168 601.399 61.168C602.007 61.168 602.529 61.0453 602.967 60.8C603.415 60.544 603.751 60.2133 603.975 59.808L604.903 60.352C604.551 60.9173 604.071 61.3653 603.463 61.696C602.855 62.0267 602.161 62.192 601.383 62.192C600.124 62.192 599.1 61.7973 598.311 61.008C597.521 60.2187 597.127 59.216 597.127 58C597.127 56.8053 597.516 55.808 598.295 55.008C599.073 54.208 600.076 53.808 601.303 53.808ZM601.303 54.832C600.471 54.832 599.772 55.0827 599.207 55.584C598.652 56.0747 598.321 56.7147 598.215 57.504H604.183C604.076 56.6613 603.751 56.0053 603.207 55.536C602.663 55.0667 602.028 54.832 601.303 54.832ZM610.98 55.024H608.676V59.872C608.676 60.3093 608.761 60.624 608.932 60.816C609.103 60.9973 609.359 61.0933 609.7 61.104C610.041 61.104 610.468 61.0933 610.98 61.072V62C609.86 62.1707 609.017 62.0907 608.452 61.76C607.897 61.4293 607.62 60.8 607.62 59.872V55.024H605.94V54H607.62V52.08L608.676 51.76V54H610.98V55.024ZM617.86 52.08C617.711 52.2293 617.529 52.304 617.316 52.304C617.103 52.304 616.921 52.2293 616.772 52.08C616.623 51.9307 616.548 51.7493 616.548 51.536C616.548 51.3227 616.623 51.1413 616.772 50.992C616.921 50.8427 617.103 50.768 617.316 50.768C617.529 50.768 617.711 50.8427 617.86 50.992C618.009 51.1413 618.084 51.3227 618.084 51.536C618.084 51.7493 618.009 51.9307 617.86 52.08ZM616.788 62V54H617.844V62H616.788ZM623.853 53.808C624.824 53.808 625.586 54.1067 626.141 54.704C626.706 55.2907 626.989 56.0853 626.989 57.088V62H625.933V57.088C625.933 56.3733 625.741 55.8187 625.357 55.424C624.984 55.0293 624.45 54.832 623.757 54.832C622.989 54.832 622.365 55.0773 621.885 55.568C621.405 56.048 621.165 56.7947 621.165 57.808V62H620.109V54H621.165V55.248C621.762 54.288 622.658 53.808 623.853 53.808ZM633.295 55.024H630.991V59.872C630.991 60.3093 631.076 60.624 631.247 60.816C631.417 60.9973 631.673 61.0933 632.015 61.104C632.356 61.104 632.783 61.0933 633.295 61.072V62C632.175 62.1707 631.332 62.0907 630.767 61.76C630.212 61.4293 629.935 60.8 629.935 59.872V55.024H628.255V54H629.935V52.08L630.991 51.76V54H633.295V55.024ZM641.298 60.992C640.488 61.792 639.496 62.192 638.322 62.192C637.149 62.192 636.152 61.792 635.33 60.992C634.52 60.1813 634.114 59.184 634.114 58C634.114 56.816 634.52 55.824 635.33 55.024C636.152 54.2133 637.149 53.808 638.322 53.808C639.496 53.808 640.488 54.2133 641.298 55.024C642.12 55.824 642.53 56.816 642.53 58C642.53 59.184 642.12 60.1813 641.298 60.992ZM636.082 60.256C636.69 60.864 637.437 61.168 638.322 61.168C639.208 61.168 639.954 60.864 640.562 60.256C641.17 59.6373 641.474 58.8853 641.474 58C641.474 57.1147 641.17 56.368 640.562 55.76C639.954 55.1413 639.208 54.832 638.322 54.832C637.437 54.832 636.69 55.1413 636.082 55.76C635.474 56.368 635.17 57.1147 635.17 58C635.17 58.8853 635.474 59.6373 636.082 60.256ZM575 80H576.056V88H575V86.432C574.264 87.6053 573.187 88.192 571.768 88.192C570.627 88.192 569.651 87.7867 568.84 86.976C568.04 86.1653 567.64 85.1733 567.64 84C567.64 82.8267 568.04 81.8347 568.84 81.024C569.651 80.2133 570.627 79.808 571.768 79.808C573.187 79.808 574.264 80.3947 575 81.568V80ZM569.608 86.256C570.216 86.864 570.963 87.168 571.848 87.168C572.733 87.168 573.48 86.864 574.088 86.256C574.696 85.6373 575 84.8853 575 84C575 83.1147 574.696 82.368 574.088 81.76C573.48 81.1413 572.733 80.832 571.848 80.832C570.963 80.832 570.216 81.1413 569.608 81.76C569 82.368 568.696 83.1147 568.696 84C568.696 84.8853 569 85.6373 569.608 86.256ZM586.628 79.808C587.769 79.808 588.74 80.2133 589.54 81.024C590.351 81.8347 590.756 82.8267 590.756 84C590.756 85.1733 590.351 86.1653 589.54 86.976C588.74 87.7867 587.769 88.192 586.628 88.192C585.209 88.192 584.132 87.6053 583.396 86.432V91.2H582.34V80H583.396V81.568C584.132 80.3947 585.209 79.808 586.628 79.808ZM584.308 86.256C584.916 86.864 585.663 87.168 586.548 87.168C587.433 87.168 588.18 86.864 588.788 86.256C589.396 85.6373 589.7 84.8853 589.7 84C589.7 83.1147 589.396 82.368 588.788 81.76C588.18 81.1413 587.433 80.832 586.548 80.832C585.663 80.832 584.916 81.1413 584.308 81.76C583.7 82.368 583.396 83.1147 583.396 84C583.396 84.8853 583.7 85.6373 584.308 86.256ZM593.592 81.328C594.082 80.3573 594.925 79.872 596.12 79.872V80.896C595.394 80.896 594.792 81.1093 594.312 81.536C593.832 81.9627 593.592 82.6347 593.592 83.552V88H592.536V80H593.592V81.328ZM603.811 86.992C603 87.792 602.008 88.192 600.835 88.192C599.661 88.192 598.664 87.792 597.843 86.992C597.032 86.1813 596.627 85.184 596.627 84C596.627 82.816 597.032 81.824 597.843 81.024C598.664 80.2133 599.661 79.808 600.835 79.808C602.008 79.808 603 80.2133 603.811 81.024C604.632 81.824 605.043 82.816 605.043 84C605.043 85.184 604.632 86.1813 603.811 86.992ZM598.595 86.256C599.203 86.864 599.949 87.168 600.835 87.168C601.72 87.168 602.467 86.864 603.075 86.256C603.683 85.6373 603.987 84.8853 603.987 84C603.987 83.1147 603.683 82.368 603.075 81.76C602.467 81.1413 601.72 80.832 600.835 80.832C599.949 80.832 599.203 81.1413 598.595 81.76C597.987 82.368 597.683 83.1147 597.683 84C597.683 84.8853 597.987 85.6373 598.595 86.256ZM611.122 79.808C612.263 79.808 613.234 80.2133 614.034 81.024C614.844 81.8347 615.25 82.8267 615.25 84C615.25 85.1733 614.844 86.1653 614.034 86.976C613.234 87.7867 612.263 88.192 611.122 88.192C609.703 88.192 608.626 87.6053 607.89 86.432V91.2H606.834V80H607.89V81.568C608.626 80.3947 609.703 79.808 611.122 79.808ZM608.802 86.256C609.41 86.864 610.156 87.168 611.042 87.168C611.927 87.168 612.674 86.864 613.282 86.256C613.89 85.6373 614.194 84.8853 614.194 84C614.194 83.1147 613.89 82.368 613.282 81.76C612.674 81.1413 611.927 80.832 611.042 80.832C610.156 80.832 609.41 81.1413 608.802 81.76C608.194 82.368 607.89 83.1147 607.89 84C607.89 84.8853 608.194 85.6373 608.802 86.256ZM620.726 79.808C621.91 79.808 622.864 80.2293 623.59 81.072C624.326 81.904 624.694 82.8907 624.694 84.032C624.694 84.1493 624.683 84.3147 624.662 84.528H617.638C617.744 85.3387 618.086 85.984 618.662 86.464C619.248 86.9333 619.968 87.168 620.822 87.168C621.43 87.168 621.952 87.0453 622.39 86.8C622.838 86.544 623.174 86.2133 623.398 85.808L624.326 86.352C623.974 86.9173 623.494 87.3653 622.886 87.696C622.278 88.0267 621.584 88.192 620.806 88.192C619.547 88.192 618.523 87.7973 617.734 87.008C616.944 86.2187 616.55 85.216 616.55 84C616.55 82.8053 616.939 81.808 617.718 81.008C618.496 80.208 619.499 79.808 620.726 79.808ZM620.726 80.832C619.894 80.832 619.195 81.0827 618.63 81.584C618.075 82.0747 617.744 82.7147 617.638 83.504H623.606C623.499 82.6613 623.174 82.0053 622.63 81.536C622.086 81.0667 621.451 80.832 620.726 80.832ZM627.453 81.328C627.944 80.3573 628.787 79.872 629.981 79.872V80.896C629.256 80.896 628.653 81.1093 628.173 81.536C627.693 81.9627 627.453 82.6347 627.453 83.552V88H626.397V80H627.453V81.328ZM635.849 81.024H633.545V85.872C633.545 86.3093 633.63 86.624 633.801 86.816C633.972 86.9973 634.228 87.0933 634.569 87.104C634.91 87.104 635.337 87.0933 635.849 87.072V88C634.729 88.1707 633.886 88.0907 633.321 87.76C632.766 87.4293 632.489 86.8 632.489 85.872V81.024H630.809V80H632.489V78.08L633.545 77.76V80H635.849V81.024ZM643.549 80H644.669L641.245 88.736C640.936 89.5253 640.493 90.144 639.917 90.592C639.352 91.0507 638.717 91.2533 638.013 91.2V90.208C638.973 90.3147 639.704 89.76 640.205 88.544L640.413 88.048L636.829 80H637.949L640.957 86.704L643.549 80Z" fill="#110229"/>
<path d="M574.224 31.312C572.656 31.312 571.312 30.944 570.192 30.208C569.088 29.472 568.312 28.464 567.864 27.184L569.784 26.08C570.44 28.112 571.936 29.128 574.272 29.128C575.424 29.128 576.304 28.896 576.912 28.432C577.52 27.952 577.824 27.32 577.824 26.536C577.824 25.736 577.52 25.136 576.912 24.736C576.304 24.336 575.288 23.912 573.864 23.464C573.16 23.24 572.624 23.064 572.256 22.936C571.888 22.792 571.424 22.584 570.864 22.312C570.32 22.024 569.912 21.736 569.64 21.448C569.368 21.144 569.12 20.752 568.896 20.272C568.688 19.792 568.584 19.248 568.584 18.64C568.584 17.184 569.096 16.032 570.12 15.184C571.144 14.32 572.392 13.888 573.864 13.888C575.192 13.888 576.344 14.224 577.32 14.896C578.312 15.568 579.056 16.456 579.552 17.56L577.68 18.64C576.96 16.912 575.688 16.048 573.864 16.048C572.952 16.048 572.216 16.272 571.656 16.72C571.096 17.168 570.816 17.776 570.816 18.544C570.816 19.28 571.08 19.84 571.608 20.224C572.136 20.608 573.048 21.008 574.344 21.424C574.808 21.568 575.136 21.672 575.328 21.736C575.52 21.8 575.816 21.912 576.216 22.072C576.632 22.232 576.936 22.36 577.128 22.456C577.32 22.552 577.576 22.688 577.896 22.864C578.232 23.04 578.48 23.208 578.64 23.368C578.8 23.528 578.984 23.728 579.192 23.968C579.416 24.192 579.576 24.424 579.672 24.664C579.768 24.904 579.848 25.184 579.912 25.504C579.992 25.808 580.032 26.136 580.032 26.488C580.032 27.96 579.496 29.136 578.424 30.016C577.352 30.88 575.952 31.312 574.224 31.312ZM584.204 25.96C584.412 27.032 584.9 27.864 585.668 28.456C586.452 29.048 587.412 29.344 588.548 29.344C590.132 29.344 591.284 28.76 592.004 27.592L593.78 28.6C592.612 30.408 590.852 31.312 588.5 31.312C586.596 31.312 585.044 30.72 583.844 29.536C582.66 28.336 582.068 26.824 582.068 25C582.068 23.192 582.652 21.688 583.82 20.488C584.988 19.288 586.5 18.688 588.356 18.688C590.116 18.688 591.548 19.312 592.652 20.56C593.772 21.792 594.332 23.28 594.332 25.024C594.332 25.328 594.308 25.64 594.26 25.96H584.204ZM588.356 20.656C587.236 20.656 586.308 20.976 585.572 21.616C584.836 22.24 584.38 23.08 584.204 24.136H592.22C592.044 23 591.596 22.136 590.876 21.544C590.156 20.952 589.316 20.656 588.356 20.656ZM602.349 31.312C600.541 31.312 599.037 30.712 597.837 29.512C596.637 28.296 596.037 26.792 596.037 25C596.037 23.208 596.637 21.712 597.837 20.512C599.037 19.296 600.541 18.688 602.349 18.688C603.533 18.688 604.597 18.976 605.541 19.552C606.485 20.112 607.189 20.872 607.653 21.832L605.901 22.84C605.597 22.2 605.125 21.688 604.485 21.304C603.861 20.92 603.149 20.728 602.349 20.728C601.149 20.728 600.141 21.136 599.325 21.952C598.525 22.768 598.125 23.784 598.125 25C598.125 26.2 598.525 27.208 599.325 28.024C600.141 28.84 601.149 29.248 602.349 29.248C603.149 29.248 603.869 29.064 604.509 28.696C605.149 28.312 605.637 27.8 605.973 27.16L607.749 28.192C607.237 29.136 606.501 29.896 605.541 30.472C604.581 31.032 603.517 31.312 602.349 31.312ZM619.775 29.488C618.543 30.704 617.047 31.312 615.287 31.312C613.527 31.312 612.031 30.704 610.799 29.488C609.583 28.272 608.975 26.776 608.975 25C608.975 23.224 609.583 21.728 610.799 20.512C612.031 19.296 613.527 18.688 615.287 18.688C617.047 18.688 618.543 19.296 619.775 20.512C621.007 21.728 621.622 23.224 621.622 25C621.622 26.776 621.007 28.272 619.775 29.488ZM615.287 29.272C616.487 29.272 617.495 28.864 618.311 28.048C619.127 27.232 619.535 26.216 619.535 25C619.535 23.784 619.127 22.768 618.311 21.952C617.495 21.136 616.487 20.728 615.287 20.728C614.103 20.728 613.103 21.136 612.287 21.952C611.471 22.768 611.062 23.784 611.062 25C611.062 26.216 611.471 27.232 612.287 28.048C613.103 28.864 614.103 29.272 615.287 29.272ZM630.06 18.688C631.468 18.688 632.596 19.136 633.444 20.032C634.292 20.912 634.716 22.112 634.716 23.632V31H632.628V23.752C632.628 22.776 632.364 22.024 631.836 21.496C631.308 20.952 630.58 20.68 629.652 20.68C628.612 20.68 627.772 21.008 627.132 21.664C626.492 22.304 626.172 23.296 626.172 24.64V31H624.084V19H626.172V20.728C627.02 19.368 628.316 18.688 630.06 18.688ZM647.567 14.2H649.655V31H647.567V28.936C646.527 30.52 645.015 31.312 643.031 31.312C641.351 31.312 639.919 30.704 638.735 29.488C637.551 28.256 636.959 26.76 636.959 25C636.959 23.24 637.551 21.752 638.735 20.536C639.919 19.304 641.351 18.688 643.031 18.688C645.015 18.688 646.527 19.48 647.567 21.064V14.2ZM643.295 29.296C644.511 29.296 645.527 28.888 646.343 28.072C647.159 27.24 647.567 26.216 647.567 25C647.567 23.784 647.159 22.768 646.343 21.952C645.527 21.12 644.511 20.704 643.295 20.704C642.095 20.704 641.087 21.12 640.271 21.952C639.455 22.768 639.047 23.784 639.047 25C639.047 26.216 639.455 27.24 640.271 28.072C641.087 28.888 642.095 29.296 643.295 29.296ZM654.595 22.24C654.595 22.704 654.827 23.08 655.291 23.368C655.755 23.64 656.315 23.864 656.971 24.04C657.627 24.2 658.283 24.392 658.939 24.616C659.595 24.824 660.155 25.192 660.619 25.72C661.083 26.232 661.315 26.896 661.315 27.712C661.315 28.8 660.891 29.672 660.043 30.328C659.211 30.984 658.139 31.312 656.827 31.312C655.659 31.312 654.659 31.056 653.827 30.544C652.995 30.032 652.403 29.352 652.051 28.504L653.851 27.472C654.043 28.048 654.403 28.504 654.931 28.84C655.459 29.176 656.091 29.344 656.827 29.344C657.515 29.344 658.083 29.216 658.531 28.96C658.979 28.688 659.203 28.272 659.203 27.712C659.203 27.248 658.971 26.88 658.507 26.608C658.043 26.32 657.483 26.096 656.827 25.936C656.171 25.76 655.515 25.56 654.859 25.336C654.203 25.112 653.643 24.744 653.179 24.232C652.715 23.72 652.483 23.064 652.483 22.264C652.483 21.224 652.883 20.368 653.683 19.696C654.499 19.024 655.515 18.688 656.731 18.688C657.707 18.688 658.571 18.912 659.323 19.36C660.091 19.792 660.667 20.4 661.051 21.184L659.299 22.168C658.867 21.144 658.011 20.632 656.731 20.632C656.139 20.632 655.635 20.776 655.219 21.064C654.803 21.336 654.595 21.728 654.595 22.24Z" fill="#1994D9"/>
<circle cx="778.5" cy="111.5" r="89.5" fill="#1994D9"/>
<path d="M742.502 89.2H744.734V106H742.934L734.294 93.448V106H732.062V89.2H733.862L742.502 101.728V89.2ZM759.391 106L758.023 102.232H750.463L749.095 106H746.719L752.983 89.2H755.503L761.767 106H759.391ZM751.231 100.144H757.255L754.231 91.864L751.231 100.144ZM774.141 89.2H776.349V106H774.141V98.44H765.981V106H763.749V89.2H765.981V96.328H774.141V89.2ZM784.601 87.568H786.617L789.041 84.4H786.521L784.601 87.568ZM790.577 104.704C789.409 105.776 787.897 106.312 786.041 106.312C784.185 106.312 782.665 105.776 781.481 104.704C780.313 103.616 779.729 102.168 779.729 100.36V89.2H781.961V100.264C781.961 101.448 782.313 102.392 783.017 103.096C783.721 103.784 784.729 104.128 786.041 104.128C787.353 104.128 788.361 103.784 789.065 103.096C789.769 102.392 790.121 101.448 790.121 100.264V89.2H792.329V100.36C792.329 102.168 791.745 103.616 790.577 104.704ZM805.701 106L801.933 99.568H797.973V106H795.741V89.2H802.461C803.901 89.2 805.133 89.712 806.157 90.736C807.181 91.744 807.693 92.968 807.693 94.408C807.693 95.496 807.365 96.488 806.709 97.384C806.069 98.28 805.237 98.912 804.213 99.28L808.173 106H805.701ZM797.973 91.288V97.552H802.461C803.293 97.552 803.997 97.248 804.573 96.64C805.165 96.016 805.461 95.272 805.461 94.408C805.461 93.544 805.165 92.808 804.573 92.2C803.997 91.592 803.293 91.288 802.461 91.288H797.973ZM824.311 103.768C822.631 105.464 820.575 106.312 818.143 106.312C815.711 106.312 813.655 105.464 811.975 103.768C810.295 102.072 809.455 100.016 809.455 97.6C809.455 95.168 810.295 93.112 811.975 91.432C813.655 89.736 815.711 88.888 818.143 88.888C820.575 88.888 822.631 89.736 824.311 91.432C826.007 93.112 826.855 95.168 826.855 97.6C826.855 100.016 826.007 102.072 824.311 103.768ZM813.511 102.256C814.759 103.504 816.303 104.128 818.143 104.128C819.983 104.128 821.519 103.504 822.751 102.256C823.999 100.992 824.623 99.44 824.623 97.6C824.623 95.744 823.999 94.192 822.751 92.944C821.519 91.68 819.983 91.048 818.143 91.048C816.303 91.048 814.759 91.68 813.511 92.944C812.279 94.192 811.663 95.744 811.663 97.6C811.663 99.44 812.279 100.992 813.511 102.256ZM734.138 117.2C735.69 117.2 736.978 117.72 738.002 118.76C739.042 119.784 739.562 121.064 739.562 122.6C739.562 124.12 739.042 125.4 738.002 126.44C736.978 127.48 735.69 128 734.138 128H730.274V134H728.042V117.2H734.138ZM734.138 125.912C735.066 125.912 735.834 125.6 736.442 124.976C737.05 124.336 737.354 123.544 737.354 122.6C737.354 121.64 737.05 120.848 736.442 120.224C735.834 119.6 735.066 119.288 734.138 119.288H730.274V125.912H734.138ZM752.158 134L748.39 127.568H744.43V134H742.198V117.2H748.918C750.358 117.2 751.59 117.712 752.614 118.736C753.638 119.744 754.15 120.968 754.15 122.408C754.15 123.496 753.822 124.488 753.166 125.384C752.526 126.28 751.694 126.912 750.67 127.28L754.63 134H752.158ZM744.43 119.288V125.552H748.918C749.75 125.552 750.454 125.248 751.03 124.64C751.622 124.016 751.918 123.272 751.918 122.408C751.918 121.544 751.622 120.808 751.03 120.2C750.454 119.592 749.75 119.288 748.918 119.288H744.43ZM770.768 131.768C769.088 133.464 767.032 134.312 764.6 134.312C762.168 134.312 760.112 133.464 758.432 131.768C756.752 130.072 755.912 128.016 755.912 125.6C755.912 123.168 756.752 121.112 758.432 119.432C760.112 117.736 762.168 116.888 764.6 116.888C767.032 116.888 769.088 117.736 770.768 119.432C772.464 121.112 773.312 123.168 773.312 125.6C773.312 128.016 772.464 130.072 770.768 131.768ZM759.968 130.256C761.216 131.504 762.76 132.128 764.6 132.128C766.44 132.128 767.976 131.504 769.208 130.256C770.456 128.992 771.08 127.44 771.08 125.6C771.08 123.744 770.456 122.192 769.208 120.944C767.976 119.68 766.44 119.048 764.6 119.048C762.76 119.048 761.216 119.68 759.968 120.944C758.736 122.192 758.12 123.744 758.12 125.6C758.12 127.44 758.736 128.992 759.968 130.256ZM783.891 134.312C781.347 134.312 779.243 133.472 777.579 131.792C775.931 130.112 775.107 128.048 775.107 125.6C775.107 123.152 775.931 121.088 777.579 119.408C779.243 117.728 781.347 116.888 783.891 116.888C785.427 116.888 786.835 117.256 788.115 117.992C789.411 118.728 790.419 119.72 791.139 120.968L789.195 122.096C788.715 121.168 787.995 120.432 787.035 119.888C786.091 119.328 785.043 119.048 783.891 119.048C781.955 119.048 780.371 119.672 779.139 120.92C777.923 122.168 777.315 123.728 777.315 125.6C777.315 127.456 777.923 129.008 779.139 130.256C780.371 131.504 781.955 132.128 783.891 132.128C785.043 132.128 786.091 131.856 787.035 131.312C787.995 130.752 788.715 130.016 789.195 129.104L791.139 130.208C790.435 131.456 789.435 132.456 788.139 133.208C786.843 133.944 785.427 134.312 783.891 134.312ZM795.899 131.888H803.699V134H793.667V117.2H803.579V119.312H795.899V124.472H802.979V126.56H795.899V131.888ZM811.818 134.312C810.25 134.312 808.906 133.944 807.786 133.208C806.682 132.472 805.906 131.464 805.458 130.184L807.378 129.08C808.034 131.112 809.53 132.128 811.866 132.128C813.018 132.128 813.898 131.896 814.506 131.432C815.114 130.952 815.418 130.32 815.418 129.536C815.418 128.736 815.114 128.136 814.506 127.736C813.898 127.336 812.882 126.912 811.458 126.464C810.754 126.24 810.218 126.064 809.85 125.936C809.482 125.792 809.018 125.584 808.458 125.312C807.914 125.024 807.506 124.736 807.234 124.448C806.962 124.144 806.714 123.752 806.49 123.272C806.282 122.792 806.178 122.248 806.178 121.64C806.178 120.184 806.69 119.032 807.714 118.184C808.738 117.32 809.986 116.888 811.458 116.888C812.786 116.888 813.938 117.224 814.914 117.896C815.906 118.568 816.65 119.456 817.146 120.56L815.274 121.64C814.554 119.912 813.282 119.048 811.458 119.048C810.546 119.048 809.81 119.272 809.25 119.72C808.69 120.168 808.41 120.776 808.41 121.544C808.41 122.28 808.674 122.84 809.202 123.224C809.73 123.608 810.642 124.008 811.938 124.424C812.402 124.568 812.73 124.672 812.922 124.736C813.114 124.8 813.41 124.912 813.81 125.072C814.226 125.232 814.53 125.36 814.722 125.456C814.914 125.552 815.17 125.688 815.49 125.864C815.826 126.04 816.074 126.208 816.234 126.368C816.394 126.528 816.578 126.728 816.786 126.968C817.01 127.192 817.17 127.424 817.266 127.664C817.362 127.904 817.442 128.184 817.506 128.504C817.586 128.808 817.626 129.136 817.626 129.488C817.626 130.96 817.09 132.136 816.018 133.016C814.946 133.88 813.546 134.312 811.818 134.312ZM825.107 134.312C823.539 134.312 822.195 133.944 821.075 133.208C819.971 132.472 819.195 131.464 818.747 130.184L820.667 129.08C821.323 131.112 822.819 132.128 825.155 132.128C826.307 132.128 827.187 131.896 827.795 131.432C828.403 130.952 828.707 130.32 828.707 129.536C828.707 128.736 828.403 128.136 827.795 127.736C827.187 127.336 826.171 126.912 824.747 126.464C824.043 126.24 823.507 126.064 823.139 125.936C822.771 125.792 822.307 125.584 821.747 125.312C821.203 125.024 820.795 124.736 820.523 124.448C820.251 124.144 820.003 123.752 819.779 123.272C819.571 122.792 819.467 122.248 819.467 121.64C819.467 120.184 819.979 119.032 821.003 118.184C822.027 117.32 823.275 116.888 824.747 116.888C826.075 116.888 827.227 117.224 828.203 117.896C829.195 118.568 829.939 119.456 830.435 120.56L828.563 121.64C827.843 119.912 826.571 119.048 824.747 119.048C823.835 119.048 823.099 119.272 822.539 119.72C821.979 120.168 821.699 120.776 821.699 121.544C821.699 122.28 821.963 122.84 822.491 123.224C823.019 123.608 823.931 124.008 825.227 124.424C825.691 124.568 826.019 124.672 826.211 124.736C826.403 124.8 826.699 124.912 827.099 125.072C827.515 125.232 827.819 125.36 828.011 125.456C828.203 125.552 828.459 125.688 828.779 125.864C829.115 126.04 829.363 126.208 829.523 126.368C829.683 126.528 829.867 126.728 830.075 126.968C830.299 127.192 830.459 127.424 830.555 127.664C830.651 127.904 830.731 128.184 830.795 128.504C830.875 128.808 830.915 129.136 830.915 129.488C830.915 130.96 830.379 132.136 829.307 133.016C828.235 133.88 826.835 134.312 825.107 134.312Z" fill="white"/>
<path d="M679.065 112.054C679.647 111.465 679.641 110.515 679.052 109.933L669.448 100.445C668.859 99.8624 667.909 99.8681 667.327 100.457C666.745 101.047 666.751 101.996 667.34 102.579L675.876 111.013L667.442 119.549C666.86 120.138 666.866 121.088 667.455 121.67C668.044 122.252 668.994 122.247 669.576 121.657L679.065 112.054ZM541.009 113.325L678.007 112.5L677.988 109.5L540.991 110.325L541.009 113.325Z" fill="#8F90A6"/>
<path d="M908.36 55.024H906.056V59.872C906.056 60.3093 906.141 60.624 906.312 60.816C906.483 60.9973 906.739 61.0933 907.08 61.104C907.421 61.104 907.848 61.0933 908.36 61.072V62C907.24 62.1707 906.397 62.0907 905.832 61.76C905.277 61.4293 905 60.8 905 59.872V55.024H903.32V54H905V52.08L906.056 51.76V54H908.36V55.024ZM916.364 60.992C915.553 61.792 914.561 62.192 913.388 62.192C912.214 62.192 911.217 61.792 910.396 60.992C909.585 60.1813 909.18 59.184 909.18 58C909.18 56.816 909.585 55.824 910.396 55.024C911.217 54.2133 912.214 53.808 913.388 53.808C914.561 53.808 915.553 54.2133 916.364 55.024C917.185 55.824 917.596 56.816 917.596 58C917.596 59.184 917.185 60.1813 916.364 60.992ZM911.148 60.256C911.756 60.864 912.502 61.168 913.388 61.168C914.273 61.168 915.02 60.864 915.628 60.256C916.236 59.6373 916.54 58.8853 916.54 58C916.54 57.1147 916.236 56.368 915.628 55.76C915.02 55.1413 914.273 54.832 913.388 54.832C912.502 54.832 911.756 55.1413 911.148 55.76C910.54 56.368 910.236 57.1147 910.236 58C910.236 58.8853 910.54 59.6373 911.148 60.256ZM930.291 54H931.347V61.68C931.347 62.832 930.952 63.7387 930.163 64.4C929.373 65.0613 928.429 65.392 927.331 65.392C925.453 65.392 924.189 64.7413 923.539 63.44L924.467 62.912C924.947 63.8827 925.901 64.368 927.331 64.368C928.248 64.368 928.968 64.1227 929.491 63.632C930.024 63.152 930.291 62.5013 930.291 61.68V60.432C929.555 61.6053 928.477 62.192 927.059 62.192C925.917 62.192 924.941 61.7867 924.131 60.976C923.331 60.1653 922.931 59.1733 922.931 58C922.931 56.8267 923.331 55.8347 924.131 55.024C924.941 54.2133 925.917 53.808 927.059 53.808C928.477 53.808 929.555 54.3947 930.291 55.568V54ZM924.899 60.256C925.507 60.864 926.253 61.168 927.139 61.168C928.024 61.168 928.771 60.864 929.379 60.256C929.987 59.6373 930.291 58.8853 930.291 58C930.291 57.1147 929.987 56.368 929.379 55.76C928.771 55.1413 928.024 54.832 927.139 54.832C926.253 54.832 925.507 55.1413 924.899 55.76C924.291 56.368 923.987 57.1147 923.987 58C923.987 58.8853 924.291 59.6373 924.899 60.256ZM937.303 53.808C938.487 53.808 939.441 54.2293 940.167 55.072C940.903 55.904 941.271 56.8907 941.271 58.032C941.271 58.1493 941.26 58.3147 941.239 58.528H934.215C934.321 59.3387 934.663 59.984 935.239 60.464C935.825 60.9333 936.545 61.168 937.399 61.168C938.007 61.168 938.529 61.0453 938.967 60.8C939.415 60.544 939.751 60.2133 939.975 59.808L940.903 60.352C940.551 60.9173 940.071 61.3653 939.463 61.696C938.855 62.0267 938.161 62.192 937.383 62.192C936.124 62.192 935.1 61.7973 934.311 61.008C933.521 60.2187 933.127 59.216 933.127 58C933.127 56.8053 933.516 55.808 934.295 55.008C935.073 54.208 936.076 53.808 937.303 53.808ZM937.303 54.832C936.471 54.832 935.772 55.0827 935.207 55.584C934.652 56.0747 934.321 56.7147 934.215 57.504H940.183C940.076 56.6613 939.751 56.0053 939.207 55.536C938.663 55.0667 938.028 54.832 937.303 54.832ZM946.98 55.024H944.676V59.872C944.676 60.3093 944.761 60.624 944.932 60.816C945.103 60.9973 945.359 61.0933 945.7 61.104C946.041 61.104 946.468 61.0933 946.98 61.072V62C945.86 62.1707 945.017 62.0907 944.452 61.76C943.897 61.4293 943.62 60.8 943.62 59.872V55.024H941.94V54H943.62V52.08L944.676 51.76V54H946.98V55.024ZM959.492 60.992C958.681 61.792 957.689 62.192 956.516 62.192C955.343 62.192 954.345 61.792 953.524 60.992C952.713 60.1813 952.308 59.184 952.308 58C952.308 56.816 952.713 55.824 953.524 55.024C954.345 54.2133 955.343 53.808 956.516 53.808C957.689 53.808 958.681 54.2133 959.492 55.024C960.313 55.824 960.724 56.816 960.724 58C960.724 59.184 960.313 60.1813 959.492 60.992ZM954.276 60.256C954.884 60.864 955.631 61.168 956.516 61.168C957.401 61.168 958.148 60.864 958.756 60.256C959.364 59.6373 959.668 58.8853 959.668 58C959.668 57.1147 959.364 56.368 958.756 55.76C958.148 55.1413 957.401 54.832 956.516 54.832C955.631 54.832 954.884 55.1413 954.276 55.76C953.668 56.368 953.364 57.1147 953.364 58C953.364 58.8853 953.668 59.6373 954.276 60.256ZM968.147 54H969.203V62H968.147V60.752C967.55 61.712 966.654 62.192 965.459 62.192C964.488 62.192 963.72 61.8987 963.155 61.312C962.6 60.7147 962.323 59.9147 962.323 58.912V54H963.379V58.912C963.379 59.6267 963.566 60.1813 963.939 60.576C964.323 60.9707 964.862 61.168 965.555 61.168C966.323 61.168 966.947 60.928 967.427 60.448C967.907 59.9573 968.147 59.2053 968.147 58.192V54ZM975.701 55.024H973.397V59.872C973.397 60.3093 973.482 60.624 973.653 60.816C973.824 60.9973 974.08 61.0933 974.421 61.104C974.762 61.104 975.189 61.0933 975.701 61.072V62C974.581 62.1707 973.738 62.0907 973.173 61.76C972.618 61.4293 972.341 60.8 972.341 59.872V55.024H970.661V54H972.341V52.08L973.397 51.76V54H975.701V55.024ZM988.213 60.992C987.402 61.792 986.41 62.192 985.237 62.192C984.064 62.192 983.066 61.792 982.245 60.992C981.434 60.1813 981.029 59.184 981.029 58C981.029 56.816 981.434 55.824 982.245 55.024C983.066 54.2133 984.064 53.808 985.237 53.808C986.41 53.808 987.402 54.2133 988.213 55.024C989.034 55.824 989.445 56.816 989.445 58C989.445 59.184 989.034 60.1813 988.213 60.992ZM982.997 60.256C983.605 60.864 984.352 61.168 985.237 61.168C986.122 61.168 986.869 60.864 987.477 60.256C988.085 59.6373 988.389 58.8853 988.389 58C988.389 57.1147 988.085 56.368 987.477 55.76C986.869 55.1413 986.122 54.832 985.237 54.832C984.352 54.832 983.605 55.1413 982.997 55.76C982.389 56.368 982.085 57.1147 982.085 58C982.085 58.8853 982.389 59.6373 982.997 60.256ZM994.924 51.632C994.145 51.568 993.564 51.7013 993.18 52.032C992.806 52.3627 992.62 52.912 992.62 53.68V54H994.924V55.024H992.62V62H991.564V55.024H990.204V54H991.564V53.68C991.564 52.6347 991.852 51.8453 992.428 51.312C993.014 50.768 993.846 50.5333 994.924 50.608V51.632ZM911 80H912.056V88H911V86.432C910.264 87.6053 909.187 88.192 907.768 88.192C906.627 88.192 905.651 87.7867 904.84 86.976C904.04 86.1653 903.64 85.1733 903.64 84C903.64 82.8267 904.04 81.8347 904.84 81.024C905.651 80.2133 906.627 79.808 907.768 79.808C909.187 79.808 910.264 80.3947 911 81.568V80ZM905.608 86.256C906.216 86.864 906.963 87.168 907.848 87.168C908.733 87.168 909.48 86.864 910.088 86.256C910.696 85.6373 911 84.8853 911 84C911 83.1147 910.696 82.368 910.088 81.76C909.48 81.1413 908.733 80.832 907.848 80.832C906.963 80.832 906.216 81.1413 905.608 81.76C905 82.368 904.696 83.1147 904.696 84C904.696 84.8853 905 85.6373 905.608 86.256ZM922.628 79.808C923.769 79.808 924.74 80.2133 925.54 81.024C926.351 81.8347 926.756 82.8267 926.756 84C926.756 85.1733 926.351 86.1653 925.54 86.976C924.74 87.7867 923.769 88.192 922.628 88.192C921.209 88.192 920.132 87.6053 919.396 86.432V91.2H918.34V80H919.396V81.568C920.132 80.3947 921.209 79.808 922.628 79.808ZM920.308 86.256C920.916 86.864 921.663 87.168 922.548 87.168C923.433 87.168 924.18 86.864 924.788 86.256C925.396 85.6373 925.7 84.8853 925.7 84C925.7 83.1147 925.396 82.368 924.788 81.76C924.18 81.1413 923.433 80.832 922.548 80.832C921.663 80.832 920.916 81.1413 920.308 81.76C919.7 82.368 919.396 83.1147 919.396 84C919.396 84.8853 919.7 85.6373 920.308 86.256ZM929.592 81.328C930.082 80.3573 930.925 79.872 932.12 79.872V80.896C931.394 80.896 930.792 81.1093 930.312 81.536C929.832 81.9627 929.592 82.6347 929.592 83.552V88H928.536V80H929.592V81.328ZM939.811 86.992C939 87.792 938.008 88.192 936.835 88.192C935.661 88.192 934.664 87.792 933.843 86.992C933.032 86.1813 932.627 85.184 932.627 84C932.627 82.816 933.032 81.824 933.843 81.024C934.664 80.2133 935.661 79.808 936.835 79.808C938.008 79.808 939 80.2133 939.811 81.024C940.632 81.824 941.043 82.816 941.043 84C941.043 85.184 940.632 86.1813 939.811 86.992ZM934.595 86.256C935.203 86.864 935.949 87.168 936.835 87.168C937.72 87.168 938.467 86.864 939.075 86.256C939.683 85.6373 939.987 84.8853 939.987 84C939.987 83.1147 939.683 82.368 939.075 81.76C938.467 81.1413 937.72 80.832 936.835 80.832C935.949 80.832 935.203 81.1413 934.595 81.76C933.987 82.368 933.683 83.1147 933.683 84C933.683 84.8853 933.987 85.6373 934.595 86.256ZM947.122 79.808C948.263 79.808 949.234 80.2133 950.034 81.024C950.844 81.8347 951.25 82.8267 951.25 84C951.25 85.1733 950.844 86.1653 950.034 86.976C949.234 87.7867 948.263 88.192 947.122 88.192C945.703 88.192 944.626 87.6053 943.89 86.432V91.2H942.834V80H943.89V81.568C944.626 80.3947 945.703 79.808 947.122 79.808ZM944.802 86.256C945.41 86.864 946.156 87.168 947.042 87.168C947.927 87.168 948.674 86.864 949.282 86.256C949.89 85.6373 950.194 84.8853 950.194 84C950.194 83.1147 949.89 82.368 949.282 81.76C948.674 81.1413 947.927 80.832 947.042 80.832C946.156 80.832 945.41 81.1413 944.802 81.76C944.194 82.368 943.89 83.1147 943.89 84C943.89 84.8853 944.194 85.6373 944.802 86.256ZM956.726 79.808C957.91 79.808 958.864 80.2293 959.59 81.072C960.326 81.904 960.694 82.8907 960.694 84.032C960.694 84.1493 960.683 84.3147 960.662 84.528H953.638C953.744 85.3387 954.086 85.984 954.662 86.464C955.248 86.9333 955.968 87.168 956.822 87.168C957.43 87.168 957.952 87.0453 958.39 86.8C958.838 86.544 959.174 86.2133 959.398 85.808L960.326 86.352C959.974 86.9173 959.494 87.3653 958.886 87.696C958.278 88.0267 957.584 88.192 956.806 88.192C955.547 88.192 954.523 87.7973 953.734 87.008C952.944 86.2187 952.55 85.216 952.55 84C952.55 82.8053 952.939 81.808 953.718 81.008C954.496 80.208 955.499 79.808 956.726 79.808ZM956.726 80.832C955.894 80.832 955.195 81.0827 954.63 81.584C954.075 82.0747 953.744 82.7147 953.638 83.504H959.606C959.499 82.6613 959.174 82.0053 958.63 81.536C958.086 81.0667 957.451 80.832 956.726 80.832ZM963.453 81.328C963.944 80.3573 964.787 79.872 965.981 79.872V80.896C965.256 80.896 964.653 81.1093 964.173 81.536C963.693 81.9627 963.453 82.6347 963.453 83.552V88H962.397V80H963.453V81.328ZM971.849 81.024H969.545V85.872C969.545 86.3093 969.63 86.624 969.801 86.816C969.972 86.9973 970.228 87.0933 970.569 87.104C970.91 87.104 971.337 87.0933 971.849 87.072V88C970.729 88.1707 969.886 88.0907 969.321 87.76C968.766 87.4293 968.489 86.8 968.489 85.872V81.024H966.809V80H968.489V78.08L969.545 77.76V80H971.849V81.024ZM979.549 80H980.669L977.245 88.736C976.936 89.5253 976.493 90.144 975.917 90.592C975.352 91.0507 974.717 91.2533 974.013 91.2V90.208C974.973 90.3147 975.704 89.76 976.205 88.544L976.413 88.048L972.829 80H973.949L976.957 86.704L979.549 80Z" fill="#110229"/>
<path d="M910.224 31.312C908.656 31.312 907.312 30.944 906.192 30.208C905.088 29.472 904.312 28.464 903.864 27.184L905.784 26.08C906.44 28.112 907.936 29.128 910.272 29.128C911.424 29.128 912.304 28.896 912.912 28.432C913.52 27.952 913.824 27.32 913.824 26.536C913.824 25.736 913.52 25.136 912.912 24.736C912.304 24.336 911.288 23.912 909.864 23.464C909.16 23.24 908.624 23.064 908.256 22.936C907.888 22.792 907.424 22.584 906.864 22.312C906.32 22.024 905.912 21.736 905.64 21.448C905.368 21.144 905.12 20.752 904.896 20.272C904.688 19.792 904.584 19.248 904.584 18.64C904.584 17.184 905.096 16.032 906.12 15.184C907.144 14.32 908.392 13.888 909.864 13.888C911.192 13.888 912.344 14.224 913.32 14.896C914.312 15.568 915.056 16.456 915.552 17.56L913.68 18.64C912.96 16.912 911.688 16.048 909.864 16.048C908.952 16.048 908.216 16.272 907.656 16.72C907.096 17.168 906.816 17.776 906.816 18.544C906.816 19.28 907.08 19.84 907.608 20.224C908.136 20.608 909.048 21.008 910.344 21.424C910.808 21.568 911.136 21.672 911.328 21.736C911.52 21.8 911.816 21.912 912.216 22.072C912.632 22.232 912.936 22.36 913.128 22.456C913.32 22.552 913.576 22.688 913.896 22.864C914.232 23.04 914.48 23.208 914.64 23.368C914.8 23.528 914.984 23.728 915.192 23.968C915.416 24.192 915.576 24.424 915.672 24.664C915.768 24.904 915.848 25.184 915.912 25.504C915.992 25.808 916.032 26.136 916.032 26.488C916.032 27.96 915.496 29.136 914.424 30.016C913.352 30.88 911.952 31.312 910.224 31.312ZM920.204 25.96C920.412 27.032 920.9 27.864 921.668 28.456C922.452 29.048 923.412 29.344 924.548 29.344C926.132 29.344 927.284 28.76 928.004 27.592L929.78 28.6C928.612 30.408 926.852 31.312 924.5 31.312C922.596 31.312 921.044 30.72 919.844 29.536C918.66 28.336 918.068 26.824 918.068 25C918.068 23.192 918.652 21.688 919.82 20.488C920.988 19.288 922.5 18.688 924.356 18.688C926.116 18.688 927.548 19.312 928.652 20.56C929.772 21.792 930.332 23.28 930.332 25.024C930.332 25.328 930.308 25.64 930.26 25.96H920.204ZM924.356 20.656C923.236 20.656 922.308 20.976 921.572 21.616C920.836 22.24 920.38 23.08 920.204 24.136H928.22C928.044 23 927.596 22.136 926.876 21.544C926.156 20.952 925.316 20.656 924.356 20.656ZM938.349 31.312C936.541 31.312 935.037 30.712 933.837 29.512C932.637 28.296 932.037 26.792 932.037 25C932.037 23.208 932.637 21.712 933.837 20.512C935.037 19.296 936.541 18.688 938.349 18.688C939.533 18.688 940.597 18.976 941.541 19.552C942.485 20.112 943.189 20.872 943.653 21.832L941.901 22.84C941.597 22.2 941.125 21.688 940.485 21.304C939.861 20.92 939.149 20.728 938.349 20.728C937.149 20.728 936.141 21.136 935.325 21.952C934.525 22.768 934.125 23.784 934.125 25C934.125 26.2 934.525 27.208 935.325 28.024C936.141 28.84 937.149 29.248 938.349 29.248C939.149 29.248 939.869 29.064 940.509 28.696C941.149 28.312 941.637 27.8 941.973 27.16L943.749 28.192C943.237 29.136 942.501 29.896 941.541 30.472C940.581 31.032 939.517 31.312 938.349 31.312ZM955.775 29.488C954.543 30.704 953.047 31.312 951.287 31.312C949.527 31.312 948.031 30.704 946.799 29.488C945.583 28.272 944.975 26.776 944.975 25C944.975 23.224 945.583 21.728 946.799 20.512C948.031 19.296 949.527 18.688 951.287 18.688C953.047 18.688 954.543 19.296 955.775 20.512C957.007 21.728 957.622 23.224 957.622 25C957.622 26.776 957.007 28.272 955.775 29.488ZM951.287 29.272C952.487 29.272 953.495 28.864 954.311 28.048C955.127 27.232 955.535 26.216 955.535 25C955.535 23.784 955.127 22.768 954.311 21.952C953.495 21.136 952.487 20.728 951.287 20.728C950.103 20.728 949.103 21.136 948.287 21.952C947.471 22.768 947.062 23.784 947.062 25C947.062 26.216 947.471 27.232 948.287 28.048C949.103 28.864 950.103 29.272 951.287 29.272ZM966.06 18.688C967.468 18.688 968.596 19.136 969.444 20.032C970.292 20.912 970.716 22.112 970.716 23.632V31H968.628V23.752C968.628 22.776 968.364 22.024 967.836 21.496C967.308 20.952 966.58 20.68 965.652 20.68C964.612 20.68 963.772 21.008 963.132 21.664C962.492 22.304 962.172 23.296 962.172 24.64V31H960.084V19H962.172V20.728C963.02 19.368 964.316 18.688 966.06 18.688ZM983.567 14.2H985.655V31H983.567V28.936C982.527 30.52 981.015 31.312 979.031 31.312C977.351 31.312 975.919 30.704 974.735 29.488C973.551 28.256 972.959 26.76 972.959 25C972.959 23.24 973.551 21.752 974.735 20.536C975.919 19.304 977.351 18.688 979.031 18.688C981.015 18.688 982.527 19.48 983.567 21.064V14.2ZM979.295 29.296C980.511 29.296 981.527 28.888 982.343 28.072C983.159 27.24 983.567 26.216 983.567 25C983.567 23.784 983.159 22.768 982.343 21.952C981.527 21.12 980.511 20.704 979.295 20.704C978.095 20.704 977.087 21.12 976.271 21.952C975.455 22.768 975.047 23.784 975.047 25C975.047 26.216 975.455 27.24 976.271 28.072C977.087 28.888 978.095 29.296 979.295 29.296ZM990.595 22.24C990.595 22.704 990.827 23.08 991.291 23.368C991.755 23.64 992.315 23.864 992.971 24.04C993.627 24.2 994.283 24.392 994.939 24.616C995.595 24.824 996.155 25.192 996.619 25.72C997.083 26.232 997.315 26.896 997.315 27.712C997.315 28.8 996.891 29.672 996.043 30.328C995.211 30.984 994.139 31.312 992.827 31.312C991.659 31.312 990.659 31.056 989.827 30.544C988.995 30.032 988.403 29.352 988.051 28.504L989.851 27.472C990.043 28.048 990.403 28.504 990.931 28.84C991.459 29.176 992.091 29.344 992.827 29.344C993.515 29.344 994.083 29.216 994.531 28.96C994.979 28.688 995.203 28.272 995.203 27.712C995.203 27.248 994.971 26.88 994.507 26.608C994.043 26.32 993.483 26.096 992.827 25.936C992.171 25.76 991.515 25.56 990.859 25.336C990.203 25.112 989.643 24.744 989.179 24.232C988.715 23.72 988.483 23.064 988.483 22.264C988.483 21.224 988.883 20.368 989.683 19.696C990.499 19.024 991.515 18.688 992.731 18.688C993.707 18.688 994.571 18.912 995.323 19.36C996.091 19.792 996.667 20.4 997.051 21.184L995.299 22.168C994.867 21.144 994.011 20.632 992.731 20.632C992.139 20.632 991.635 20.776 991.219 21.064C990.803 21.336 990.595 21.728 990.595 22.24Z" fill="#1994D9"/>
<path d="M1015.06 112.054C1015.65 111.465 1015.64 110.515 1015.05 109.933L1005.45 100.445C1004.86 99.8624 1003.91 99.8681 1003.33 100.457C1002.74 101.047 1002.75 101.996 1003.34 102.579L1011.88 111.013L1003.44 119.549C1002.86 120.138 1002.87 121.088 1003.46 121.67C1004.04 122.252 1004.99 122.247 1005.58 121.657L1015.06 112.054ZM877.009 113.325L1014.01 112.5L1013.99 109.5L876.991 110.325L877.009 113.325Z" fill="#8F90A6"/>
<line x1="507.5" x2="507.5" y2="210" stroke="#D2EFFF"/>
</svg>
