<svg width="185" height="41" viewBox="0 0 185 41" fill="none" xmlns="http://www.w3.org/2000/svg">
<path d="M64.272 40.0367V8.90186H68.2161V22.1889H85.2066V8.90186H89.1511V40.0367H85.2066V26.0478H68.2161V40.0367H64.272Z" fill="#1B1B1B"/>
<path d="M100.363 37.0987C102.645 39.2913 105.607 40.3874 109.248 40.3874C112.889 40.3874 115.836 39.2913 118.09 37.0987C120.373 34.906 121.514 31.9386 121.514 28.1965V8.90173H117.57V28.3719C117.57 31.0032 116.819 33.0347 115.316 34.4674C113.813 35.8705 111.791 36.5723 109.248 36.5723C106.705 36.5723 104.682 35.8705 103.18 34.4674C101.677 33.0347 100.926 31.0032 100.926 28.3719V8.90173H96.9819V28.1965C96.9819 31.9386 98.1089 34.906 100.363 37.0987ZM115.706 0L110.808 6.35863H107.644L110.982 0H115.706Z" fill="#1B1B1B"/>
<path d="M129.371 40.0367V8.90186H138.517C141.522 8.90186 143.92 9.70614 145.712 11.3138C147.503 12.8924 148.399 15.0121 148.399 17.6724C148.399 19.6896 147.807 21.4875 146.622 23.0661C145.437 24.6447 143.588 25.6826 141.074 26.1794L151.736 40.0367H146.969L136.696 26.4426H133.316V40.0367H129.371ZM133.316 22.8907H138.257C140.251 22.8907 141.753 22.4521 142.764 21.5753C143.805 20.6689 144.325 19.3974 144.325 17.7602C144.325 16.0939 143.805 14.8219 142.764 13.9451C141.753 13.0387 140.251 12.5854 138.257 12.5854H133.316V22.8907Z" fill="#1B1B1B"/>
<path d="M180.449 35.8267C177.415 38.867 173.688 40.3874 169.266 40.3874C164.845 40.3874 161.118 38.867 158.084 35.8267C155.05 32.7572 153.533 28.9712 153.533 24.4691C153.533 19.967 155.05 16.1958 158.084 13.1554C161.118 10.086 164.845 8.55127 169.266 8.55127C173.688 8.55127 177.415 10.086 180.449 13.1554C183.483 16.1958 185 19.967 185 24.4691C185 28.9712 183.483 32.7572 180.449 35.8267ZM160.901 33.1081C163.126 35.4176 165.915 36.5723 169.266 36.5723C172.618 36.5723 175.407 35.4176 177.632 33.1081C179.856 30.7691 180.969 27.8895 180.969 24.4691C180.969 21.0488 179.856 18.1839 177.632 15.8744C175.407 13.5354 172.618 12.3664 169.266 12.3664C165.915 12.3664 163.126 13.5354 160.901 15.8744C158.676 18.1839 157.564 21.0488 157.564 24.4691C157.564 27.8895 158.676 30.7691 160.901 33.1081Z" fill="#1B1B1B"/>
<path fill-rule="evenodd" clip-rule="evenodd" d="M22.7548 30.9599L16.5022 24.7111L16.502 29.9371L22.7548 36.2076L26.4895 39.9528L26.4898 39.9532L26.4895 39.915V8.68555H22.7548V30.9599Z" fill="#1B1B1B"/>
<path fill-rule="evenodd" clip-rule="evenodd" d="M3.735 17.6789L9.98764 23.9272L9.98786 18.7016L3.735 12.4312V12.4307L0.000255122 8.68555V8.68598L0 8.68555L0.000255122 8.72377V39.9532H3.735V17.6789Z" fill="#1B1B1B"/>
<path fill-rule="evenodd" clip-rule="evenodd" d="M35.9846 28.2275L30.3342 39.9529H34.5901L38.4117 31.8754H52.3086L56.1302 39.9529H60.3861L54.7353 28.2275H50.5711H50.5715H40.1488H40.1488H35.9846Z" fill="#1B1B1B"/>
<path d="M39.4319 23.2334L45.3811 11.9453L51.3302 23.2334H39.4319Z" stroke="#1B1B1B" stroke-width="3"/>
</svg>
