<svg width="34" height="34" viewBox="0 0 34 34" fill="none" xmlns="http://www.w3.org/2000/svg">
<path d="M24.5771 18.6666C25.8271 18.6666 26.9271 17.9833 27.4938 16.9499L33.4605 6.13325C34.0771 5.03325 33.2771 3.66659 32.0105 3.66659H7.34382L5.77715 0.333252H0.327148V3.66659H3.66048L9.66048 16.3166L7.41048 20.3833C6.19381 22.6166 7.79381 25.3333 10.3271 25.3333H30.3271V21.9999H10.3271L12.1605 18.6666H24.5771ZM8.92715 6.99992H29.1771L24.5771 15.3333H12.8771L8.92715 6.99992ZM10.3271 26.9999C8.49381 26.9999 7.01048 28.4999 7.01048 30.3333C7.01048 32.1666 8.49381 33.6666 10.3271 33.6666C12.1605 33.6666 13.6605 32.1666 13.6605 30.3333C13.6605 28.4999 12.1605 26.9999 10.3271 26.9999ZM26.9938 26.9999C25.1605 26.9999 23.6771 28.4999 23.6771 30.3333C23.6771 32.1666 25.1605 33.6666 26.9938 33.6666C28.8271 33.6666 30.3271 32.1666 30.3271 30.3333C30.3271 28.4999 28.8271 26.9999 26.9938 26.9999Z" fill="white"/>
</svg>
