<svg width="22" height="18" viewBox="0 0 22 18" fill="none" xmlns="http://www.w3.org/2000/svg">
<path d="M6.91856 17.9381C15.2205 17.9381 19.7613 11.06 19.7613 5.09539C19.7613 4.90003 19.7613 4.70555 19.7481 4.51195C20.6315 3.87299 21.394 3.08185 22 2.17555C21.1763 2.54075 20.3024 2.78014 19.4075 2.88571C20.3498 2.32168 21.0551 1.43443 21.3919 0.38915C20.5059 0.914958 19.5366 1.28549 18.5258 1.48475C17.8452 0.761113 16.9452 0.281938 15.9648 0.121378C14.9845 -0.0391829 13.9786 0.127822 13.1028 0.596549C12.227 1.06528 11.53 1.80959 11.1198 2.71432C10.7097 3.61905 10.6091 4.63374 10.8337 5.60139C9.03915 5.51137 7.28361 5.045 5.681 4.23256C4.07839 3.42011 2.66453 2.27974 1.5312 0.885471C0.954001 1.87913 0.777216 3.05543 1.03684 4.17486C1.29647 5.29429 1.97298 6.27268 2.92864 6.91083C2.2103 6.88978 1.50759 6.696 0.88 6.34587V6.40307C0.880285 7.44519 1.24103 8.45512 1.90105 9.26158C2.56107 10.068 3.47972 10.6214 4.5012 10.8277C3.83669 11.009 3.13947 11.0355 2.46312 10.9052C2.75166 11.802 3.31323 12.5862 4.0693 13.1482C4.82538 13.7102 5.73817 14.0219 6.68008 14.0397C5.74424 14.7753 4.67254 15.3192 3.5263 15.6402C2.38006 15.9612 1.18178 16.0531 0 15.9106C2.06418 17.2352 4.46593 17.9378 6.91856 17.9346" fill="#1DA1F2"/>
</svg>
