<svg width="658" height="224" viewBox="0 0 658 224" fill="none" xmlns="http://www.w3.org/2000/svg">
<path d="M28 181.5L114 134.5L200.5 95.5L286 56.5L372.5 67.5L458 99.5L544 150L630.5 101" stroke="#D2EFFF" stroke-width="2"/>
<line x1="28.5" y1="1" x2="28.5" y2="224" stroke="#F0F0F0"/>
<line x1="114.5" y1="1" x2="114.5" y2="224" stroke="#F0F0F0"/>
<line x1="200.5" y1="1" x2="200.5" y2="224" stroke="#F0F0F0"/>
<line x1="286.5" y1="1" x2="286.5" y2="224" stroke="#F0F0F0"/>
<line x1="372.5" y1="1" x2="372.5" y2="224" stroke="#F0F0F0"/>
<line x1="458.5" y1="1" x2="458.5" y2="224" stroke="#F0F0F0"/>
<line x1="544.5" y1="1" x2="544.5" y2="224" stroke="#F0F0F0"/>
<line x1="630.5" y1="1" x2="630.5" y2="224" stroke="#F0F0F0"/>
<circle cx="28" cy="181" r="10" fill="#1994D9"/>
<circle cx="28" cy="181" r="10" fill="#1994D9"/>
<circle cx="114" cy="134" r="10" fill="#1994D9"/>
<circle cx="201" cy="95" r="10" fill="#1994D9"/>
<circle cx="286" cy="57" r="10" fill="#1994D9"/>
<circle cx="372" cy="67" r="10" fill="#1994D9"/>
<circle cx="458" cy="100" r="10" fill="#1994D9"/>
<circle cx="544" cy="150" r="10" fill="#1994D9"/>
<circle cx="630" cy="101" r="10" fill="#1994D9"/>
<path d="M17.2064 135.076H21.6864V136H16.2264V126.2H17.2064V135.076ZM23.8877 127.32C23.7571 127.451 23.5984 127.516 23.4117 127.516C23.2251 127.516 23.0664 127.451 22.9357 127.32C22.8051 127.189 22.7397 127.031 22.7397 126.844C22.7397 126.657 22.8051 126.499 22.9357 126.368C23.0664 126.237 23.2251 126.172 23.4117 126.172C23.5984 126.172 23.7571 126.237 23.8877 126.368C24.0184 126.499 24.0837 126.657 24.0837 126.844C24.0837 127.031 24.0184 127.189 23.8877 127.32ZM22.9497 136V129H23.8737V136H22.9497ZM30.8745 129H31.8545L28.9845 136H27.8645L24.9945 129H25.9745L28.4245 135.034L30.8745 129ZM35.9318 128.832C36.9678 128.832 37.8031 129.201 38.4378 129.938C39.0818 130.666 39.4038 131.529 39.4038 132.528C39.4038 132.631 39.3944 132.775 39.3758 132.962H33.2298C33.3231 133.671 33.6218 134.236 34.1258 134.656C34.6391 135.067 35.2691 135.272 36.0158 135.272C36.5478 135.272 37.0051 135.165 37.3878 134.95C37.7798 134.726 38.0738 134.437 38.2698 134.082L39.0818 134.558C38.7738 135.053 38.3538 135.445 37.8218 135.734C37.2898 136.023 36.6831 136.168 36.0018 136.168C34.9004 136.168 34.0044 135.823 33.3138 135.132C32.6231 134.441 32.2778 133.564 32.2778 132.5C32.2778 131.455 32.6184 130.582 33.2998 129.882C33.9811 129.182 34.8584 128.832 35.9318 128.832ZM35.9318 129.728C35.2038 129.728 34.5924 129.947 34.0978 130.386C33.6124 130.815 33.3231 131.375 33.2298 132.066H38.4518C38.3584 131.329 38.0738 130.755 37.5978 130.344C37.1218 129.933 36.5664 129.728 35.9318 129.728ZM16.3711 145H17.2951V152H16.3711V150.628C15.7271 151.655 14.7844 152.168 13.5431 152.168C12.5444 152.168 11.6904 151.813 10.9811 151.104C10.2811 150.395 9.93109 149.527 9.93109 148.5C9.93109 147.473 10.2811 146.605 10.9811 145.896C11.6904 145.187 12.5444 144.832 13.5431 144.832C14.7844 144.832 15.7271 145.345 16.3711 146.372V145ZM11.6531 150.474C12.1851 151.006 12.8384 151.272 13.6131 151.272C14.3878 151.272 15.0411 151.006 15.5731 150.474C16.1051 149.933 16.3711 149.275 16.3711 148.5C16.3711 147.725 16.1051 147.072 15.5731 146.54C15.0411 145.999 14.3878 145.728 13.6131 145.728C12.8384 145.728 12.1851 145.999 11.6531 146.54C11.1211 147.072 10.8551 147.725 10.8551 148.5C10.8551 149.275 11.1211 149.933 11.6531 150.474ZM19.2515 152V141.78H20.1755V152H19.2515ZM28.0023 151.118C27.2929 151.818 26.4249 152.168 25.3983 152.168C24.3716 152.168 23.4989 151.818 22.7803 151.118C22.0709 150.409 21.7163 149.536 21.7163 148.5C21.7163 147.464 22.0709 146.596 22.7803 145.896C23.4989 145.187 24.3716 144.832 25.3983 144.832C26.4249 144.832 27.2929 145.187 28.0023 145.896C28.7209 146.596 29.0803 147.464 29.0803 148.5C29.0803 149.536 28.7209 150.409 28.0023 151.118ZM23.4383 150.474C23.9703 151.006 24.6236 151.272 25.3983 151.272C26.1729 151.272 26.8263 151.006 27.3583 150.474C27.8903 149.933 28.1562 149.275 28.1562 148.5C28.1562 147.725 27.8903 147.072 27.3583 146.54C26.8263 145.999 26.1729 145.728 25.3983 145.728C24.6236 145.728 23.9703 145.999 23.4383 146.54C22.9063 147.072 22.6403 147.725 22.6403 148.5C22.6403 149.275 22.9063 149.933 23.4383 150.474ZM33.9025 144.832C34.7518 144.832 35.4192 145.093 35.9045 145.616C36.3992 146.129 36.6465 146.825 36.6465 147.702V152H35.7225V147.702C35.7225 147.077 35.5545 146.591 35.2185 146.246C34.8918 145.901 34.4252 145.728 33.8185 145.728C33.1465 145.728 32.6005 145.943 32.1805 146.372C31.7605 146.792 31.5505 147.445 31.5505 148.332V152H30.6265V145H31.5505V146.092C32.0732 145.252 32.8572 144.832 33.9025 144.832ZM41.6671 144.832C42.7031 144.832 43.5385 145.201 44.1731 145.938C44.8171 146.666 45.1391 147.529 45.1391 148.528C45.1391 148.631 45.1298 148.775 45.1111 148.962H38.9651C39.0585 149.671 39.3571 150.236 39.8611 150.656C40.3745 151.067 41.0045 151.272 41.7511 151.272C42.2831 151.272 42.7405 151.165 43.1231 150.95C43.5151 150.726 43.8091 150.437 44.0051 150.082L44.8171 150.558C44.5091 151.053 44.0891 151.445 43.5571 151.734C43.0251 152.023 42.4185 152.168 41.7371 152.168C40.6358 152.168 39.7398 151.823 39.0491 151.132C38.3585 150.441 38.0131 149.564 38.0131 148.5C38.0131 147.455 38.3538 146.582 39.0351 145.882C39.7165 145.182 40.5938 144.832 41.6671 144.832ZM41.6671 145.728C40.9391 145.728 40.3278 145.947 39.8331 146.386C39.3478 146.815 39.0585 147.375 38.9651 148.066H44.1871C44.0938 147.329 43.8091 146.755 43.3331 146.344C42.8571 145.933 42.3018 145.728 41.6671 145.728Z" fill="#8F90A6"/>
<path d="M193.874 40.124H189.324V43.736H193.664V44.66H189.324V49H188.344V39.2H193.874V40.124ZM196.347 40.32C196.216 40.4507 196.057 40.516 195.871 40.516C195.684 40.516 195.525 40.4507 195.395 40.32C195.264 40.1893 195.199 40.0307 195.199 39.844C195.199 39.6573 195.264 39.4987 195.395 39.368C195.525 39.2373 195.684 39.172 195.871 39.172C196.057 39.172 196.216 39.2373 196.347 39.368C196.477 39.4987 196.543 39.6573 196.543 39.844C196.543 40.0307 196.477 40.1893 196.347 40.32ZM195.409 49V42H196.333V49H195.409ZM199.217 43.162C199.647 42.3127 200.384 41.888 201.429 41.888V42.784C200.795 42.784 200.267 42.9707 199.847 43.344C199.427 43.7173 199.217 44.3053 199.217 45.108V49H198.293V42H199.217V43.162ZM203.15 43.834C203.15 44.1513 203.29 44.4033 203.57 44.59C203.85 44.7767 204.191 44.9213 204.592 45.024C204.994 45.1267 205.395 45.2433 205.796 45.374C206.198 45.4953 206.538 45.7053 206.818 46.004C207.098 46.2933 207.238 46.676 207.238 47.152C207.238 47.7493 207 48.2347 206.524 48.608C206.058 48.9813 205.451 49.168 204.704 49.168C204.032 49.168 203.458 49.0187 202.982 48.72C202.516 48.4213 202.189 48.034 202.002 47.558L202.786 47.096C202.917 47.46 203.15 47.7493 203.486 47.964C203.832 48.1693 204.238 48.272 204.704 48.272C205.162 48.272 205.544 48.1833 205.852 48.006C206.16 47.8193 206.314 47.5347 206.314 47.152C206.314 46.8347 206.174 46.5827 205.894 46.396C205.614 46.2093 205.274 46.0647 204.872 45.962C204.471 45.8593 204.07 45.7473 203.668 45.626C203.267 45.4953 202.926 45.2853 202.646 44.996C202.366 44.6973 202.226 44.31 202.226 43.834C202.226 43.2647 202.45 42.7887 202.898 42.406C203.356 42.0233 203.93 41.832 204.62 41.832C205.19 41.832 205.689 41.9627 206.118 42.224C206.548 42.476 206.865 42.8213 207.07 43.26L206.3 43.708C206.03 43.0547 205.47 42.728 204.62 42.728C204.219 42.728 203.874 42.826 203.584 43.022C203.295 43.2087 203.15 43.4793 203.15 43.834ZM212.216 42.896H210.2V47.138C210.2 47.5207 210.275 47.796 210.424 47.964C210.574 48.1227 210.798 48.2067 211.096 48.216C211.395 48.216 211.768 48.2067 212.216 48.188V49C211.236 49.1493 210.499 49.0793 210.004 48.79C209.519 48.5007 209.276 47.95 209.276 47.138V42.896H207.806V42H209.276V40.32L210.2 40.04V42H212.216V42.896ZM189.141 65.168C188.087 65.168 187.209 64.818 186.509 64.118C185.809 63.4087 185.459 62.536 185.459 61.5C185.459 60.464 185.809 59.596 186.509 58.896C187.209 58.1867 188.087 57.832 189.141 57.832C189.832 57.832 190.453 58 191.003 58.336C191.554 58.6627 191.955 59.106 192.207 59.666L191.451 60.1C191.265 59.68 190.961 59.3487 190.541 59.106C190.131 58.854 189.664 58.728 189.141 58.728C188.367 58.728 187.713 58.9987 187.181 59.54C186.649 60.072 186.383 60.7253 186.383 61.5C186.383 62.2747 186.649 62.9327 187.181 63.474C187.713 64.006 188.367 64.272 189.141 64.272C189.664 64.272 190.131 64.1507 190.541 63.908C190.952 63.656 191.274 63.32 191.507 62.9L192.277 63.348C191.988 63.908 191.563 64.3513 191.003 64.678C190.443 65.0047 189.823 65.168 189.141 65.168ZM196.88 57.832C197.729 57.832 198.397 58.0933 198.882 58.616C199.377 59.1293 199.624 59.8247 199.624 60.702V65H198.7V60.702C198.7 60.0767 198.532 59.5913 198.196 59.246C197.869 58.9007 197.403 58.728 196.796 58.728C196.124 58.728 195.578 58.9427 195.158 59.372C194.738 59.792 194.528 60.4453 194.528 61.332V65H193.604V55.2H194.528V59.092C195.051 58.252 195.835 57.832 196.88 57.832ZM202.349 56.32C202.218 56.4507 202.059 56.516 201.873 56.516C201.686 56.516 201.527 56.4507 201.397 56.32C201.266 56.1893 201.201 56.0307 201.201 55.844C201.201 55.6573 201.266 55.4987 201.397 55.368C201.527 55.2373 201.686 55.172 201.873 55.172C202.059 55.172 202.218 55.2373 202.349 55.368C202.479 55.4987 202.545 55.6573 202.545 55.844C202.545 56.0307 202.479 56.1893 202.349 56.32ZM201.411 65V58H202.335V65H201.411ZM204.295 65V54.78H205.219V65H204.295ZM213.2 55.2H214.124V65H213.2V63.628C212.556 64.6547 211.614 65.168 210.372 65.168C209.374 65.168 208.52 64.8133 207.81 64.104C207.11 63.3947 206.76 62.5267 206.76 61.5C206.76 60.4733 207.11 59.6053 207.81 58.896C208.52 58.1867 209.374 57.832 210.372 57.832C211.614 57.832 212.556 58.3453 213.2 59.372V55.2ZM208.482 63.474C209.014 64.006 209.668 64.272 210.442 64.272C211.217 64.272 211.87 64.006 212.402 63.474C212.934 62.9327 213.2 62.2747 213.2 61.5C213.2 60.7253 212.934 60.072 212.402 59.54C211.87 58.9987 211.217 58.728 210.442 58.728C209.668 58.728 209.014 58.9987 208.482 59.54C207.95 60.072 207.684 60.7253 207.684 61.5C207.684 62.2747 207.95 62.9327 208.482 63.474Z" fill="#8F90A6"/>
<path d="M257.178 13V12.118L260.706 8.562C261.714 7.554 262.218 6.69067 262.218 5.972C262.218 5.34667 262.022 4.86133 261.63 4.516C261.247 4.16133 260.785 3.984 260.244 3.984C259.236 3.984 258.503 4.446 258.046 5.37L257.22 4.88C257.528 4.27333 257.948 3.816 258.48 3.508C259.012 3.19067 259.6 3.032 260.244 3.032C261.028 3.032 261.714 3.298 262.302 3.83C262.899 4.35267 263.198 5.06667 263.198 5.972C263.198 6.54133 263.039 7.08733 262.722 7.61C262.405 8.13267 261.957 8.68333 261.378 9.262L258.578 12.048H263.408V13H257.178ZM268.23 5.832C269.079 5.832 269.746 6.09333 270.232 6.616C270.726 7.12933 270.974 7.82467 270.974 8.702V13H270.05V8.702C270.05 8.07667 269.882 7.59133 269.546 7.246C269.219 6.90067 268.752 6.728 268.146 6.728C267.474 6.728 266.928 6.94267 266.508 7.372C266.088 7.792 265.878 8.44533 265.878 9.332V13H264.954V6H265.878V7.092C266.4 6.252 267.184 5.832 268.23 5.832ZM278.78 3.2H279.704V13H278.78V11.628C278.136 12.6547 277.194 13.168 275.952 13.168C274.954 13.168 274.1 12.8133 273.39 12.104C272.69 11.3947 272.34 10.5267 272.34 9.5C272.34 8.47333 272.69 7.60533 273.39 6.896C274.1 6.18667 274.954 5.832 275.952 5.832C277.194 5.832 278.136 6.34533 278.78 7.372V3.2ZM274.062 11.474C274.594 12.006 275.248 12.272 276.022 12.272C276.797 12.272 277.45 12.006 277.982 11.474C278.514 10.9327 278.78 10.2747 278.78 9.5C278.78 8.72533 278.514 8.072 277.982 7.54C277.45 6.99867 276.797 6.728 276.022 6.728C275.248 6.728 274.594 6.99867 274.062 7.54C273.53 8.072 273.264 8.72533 273.264 9.5C273.264 10.2747 273.53 10.9327 274.062 11.474ZM288.423 13.168C287.368 13.168 286.491 12.818 285.791 12.118C285.091 11.4087 284.741 10.536 284.741 9.5C284.741 8.464 285.091 7.596 285.791 6.896C286.491 6.18667 287.368 5.832 288.423 5.832C289.113 5.832 289.734 6 290.285 6.336C290.835 6.66267 291.237 7.106 291.489 7.666L290.733 8.1C290.546 7.68 290.243 7.34867 289.823 7.106C289.412 6.854 288.945 6.728 288.423 6.728C287.648 6.728 286.995 6.99867 286.463 7.54C285.931 8.072 285.665 8.72533 285.665 9.5C285.665 10.2747 285.931 10.9327 286.463 11.474C286.995 12.006 287.648 12.272 288.423 12.272C288.945 12.272 289.412 12.1507 289.823 11.908C290.233 11.656 290.555 11.32 290.789 10.9L291.559 11.348C291.269 11.908 290.845 12.3513 290.285 12.678C289.725 13.0047 289.104 13.168 288.423 13.168ZM296.161 5.832C297.011 5.832 297.678 6.09333 298.163 6.616C298.658 7.12933 298.905 7.82467 298.905 8.702V13H297.981V8.702C297.981 8.07667 297.813 7.59133 297.477 7.246C297.151 6.90067 296.684 6.728 296.077 6.728C295.405 6.728 294.859 6.94267 294.439 7.372C294.019 7.792 293.809 8.44533 293.809 9.332V13H292.885V3.2H293.809V7.092C294.332 6.252 295.116 5.832 296.161 5.832ZM301.63 4.32C301.499 4.45067 301.341 4.516 301.154 4.516C300.967 4.516 300.809 4.45067 300.678 4.32C300.547 4.18933 300.482 4.03067 300.482 3.844C300.482 3.65733 300.547 3.49867 300.678 3.368C300.809 3.23733 300.967 3.172 301.154 3.172C301.341 3.172 301.499 3.23733 301.63 3.368C301.761 3.49867 301.826 3.65733 301.826 3.844C301.826 4.03067 301.761 4.18933 301.63 4.32ZM300.692 13V6H301.616V13H300.692ZM303.577 13V2.78H304.501V13H303.577ZM312.481 3.2H313.405V13H312.481V11.628C311.837 12.6547 310.895 13.168 309.653 13.168C308.655 13.168 307.801 12.8133 307.091 12.104C306.391 11.3947 306.041 10.5267 306.041 9.5C306.041 8.47333 306.391 7.60533 307.091 6.896C307.801 6.18667 308.655 5.832 309.653 5.832C310.895 5.832 311.837 6.34533 312.481 7.372V3.2ZM307.763 11.474C308.295 12.006 308.949 12.272 309.723 12.272C310.498 12.272 311.151 12.006 311.683 11.474C312.215 10.9327 312.481 10.2747 312.481 9.5C312.481 8.72533 312.215 8.072 311.683 7.54C311.151 6.99867 310.498 6.728 309.723 6.728C308.949 6.728 308.295 6.99867 307.763 7.54C307.231 8.072 306.965 8.72533 306.965 9.5C306.965 10.2747 307.231 10.9327 307.763 11.474ZM267.99 28.118C267.28 28.818 266.412 29.168 265.386 29.168C264.359 29.168 263.486 28.818 262.768 28.118C262.058 27.4087 261.704 26.536 261.704 25.5C261.704 24.464 262.058 23.596 262.768 22.896C263.486 22.1867 264.359 21.832 265.386 21.832C266.412 21.832 267.28 22.1867 267.99 22.896C268.708 23.596 269.068 24.464 269.068 25.5C269.068 26.536 268.708 27.4087 267.99 28.118ZM263.426 27.474C263.958 28.006 264.611 28.272 265.386 28.272C266.16 28.272 266.814 28.006 267.346 27.474C267.878 26.9327 268.144 26.2747 268.144 25.5C268.144 24.7253 267.878 24.072 267.346 23.54C266.814 22.9987 266.16 22.728 265.386 22.728C264.611 22.728 263.958 22.9987 263.426 23.54C262.894 24.072 262.628 24.7253 262.628 25.5C262.628 26.2747 262.894 26.9327 263.426 27.474ZM273.84 19.928C273.159 19.872 272.65 19.9887 272.314 20.278C271.988 20.5673 271.824 21.048 271.824 21.72V22H273.84V22.896H271.824V29H270.9V22.896H269.71V22H270.9V21.72C270.9 20.8053 271.152 20.1147 271.656 19.648C272.17 19.172 272.898 18.9667 273.84 19.032V19.928ZM285.787 21.832C286.571 21.832 287.201 22.084 287.677 22.588C288.162 23.092 288.405 23.7733 288.405 24.632V29H287.481V24.632C287.481 24.0253 287.322 23.5587 287.005 23.232C286.697 22.896 286.286 22.728 285.773 22.728C285.194 22.728 284.723 22.924 284.359 23.316C284.004 23.6987 283.827 24.3007 283.827 25.122V29H282.903V24.632C282.903 24.016 282.753 23.5447 282.455 23.218C282.165 22.8913 281.769 22.728 281.265 22.728C280.705 22.728 280.229 22.924 279.837 23.316C279.445 23.708 279.249 24.31 279.249 25.122V29H278.325V22H279.249V23.022C279.753 22.2287 280.467 21.832 281.391 21.832C282.399 21.832 283.108 22.2567 283.519 23.106C284.023 22.2567 284.779 21.832 285.787 21.832ZM296.058 28.118C295.349 28.818 294.481 29.168 293.454 29.168C292.427 29.168 291.555 28.818 290.836 28.118C290.127 27.4087 289.772 26.536 289.772 25.5C289.772 24.464 290.127 23.596 290.836 22.896C291.555 22.1867 292.427 21.832 293.454 21.832C294.481 21.832 295.349 22.1867 296.058 22.896C296.777 23.596 297.136 24.464 297.136 25.5C297.136 26.536 296.777 27.4087 296.058 28.118ZM291.494 27.474C292.026 28.006 292.679 28.272 293.454 28.272C294.229 28.272 294.882 28.006 295.414 27.474C295.946 26.9327 296.212 26.2747 296.212 25.5C296.212 24.7253 295.946 24.072 295.414 23.54C294.882 22.9987 294.229 22.728 293.454 22.728C292.679 22.728 292.026 22.9987 291.494 23.54C290.962 24.072 290.696 24.7253 290.696 25.5C290.696 26.2747 290.962 26.9327 291.494 27.474ZM299.606 23.162C300.035 22.3127 300.773 21.888 301.818 21.888V22.784C301.183 22.784 300.656 22.9707 300.236 23.344C299.816 23.7173 299.606 24.3053 299.606 25.108V29H298.682V22H299.606V23.162ZM305.895 21.832C306.931 21.832 307.766 22.2007 308.401 22.938C309.045 23.666 309.367 24.5293 309.367 25.528C309.367 25.6307 309.357 25.7753 309.339 25.962H303.193C303.286 26.6713 303.585 27.236 304.089 27.656C304.602 28.0667 305.232 28.272 305.979 28.272C306.511 28.272 306.968 28.1647 307.351 27.95C307.743 27.726 308.037 27.4367 308.233 27.082L309.045 27.558C308.737 28.0527 308.317 28.4447 307.785 28.734C307.253 29.0233 306.646 29.168 305.965 29.168C304.863 29.168 303.967 28.8227 303.277 28.132C302.586 27.4413 302.241 26.564 302.241 25.5C302.241 24.4547 302.581 23.582 303.263 22.882C303.944 22.182 304.821 21.832 305.895 21.832ZM305.895 22.728C305.167 22.728 304.555 22.9473 304.061 23.386C303.575 23.8153 303.286 24.3753 303.193 25.066H308.415C308.321 24.3287 308.037 23.7547 307.561 23.344C307.085 22.9333 306.529 22.728 305.895 22.728Z" fill="#8F90A6"/>
<path d="M343.092 28.168C341.608 28.168 340.38 27.678 339.41 26.698C338.439 25.718 337.954 24.5187 337.954 23.1C337.954 21.6813 338.439 20.482 339.41 19.502C340.38 18.522 341.608 18.032 343.092 18.032C343.997 18.032 344.828 18.2513 345.584 18.69C346.34 19.1193 346.923 19.7027 347.334 20.44L346.466 20.944C346.158 20.3467 345.7 19.8707 345.094 19.516C344.487 19.1613 343.82 18.984 343.092 18.984C341.869 18.984 340.87 19.3807 340.096 20.174C339.321 20.9673 338.934 21.9427 338.934 23.1C338.934 24.2573 339.321 25.2327 340.096 26.026C340.87 26.8193 341.869 27.216 343.092 27.216C343.82 27.216 344.487 27.0387 345.094 26.684C345.7 26.3293 346.158 25.8533 346.466 25.256L347.334 25.746C346.932 26.4833 346.349 27.0713 345.584 27.51C344.828 27.9487 343.997 28.168 343.092 28.168ZM352.081 20.832C352.931 20.832 353.598 21.0933 354.083 21.616C354.578 22.1293 354.825 22.8247 354.825 23.702V28H353.901V23.702C353.901 23.0767 353.733 22.5913 353.397 22.246C353.071 21.9007 352.604 21.728 351.997 21.728C351.325 21.728 350.779 21.9427 350.359 22.372C349.939 22.792 349.729 23.4453 349.729 24.332V28H348.805V18.2H349.729V22.092C350.252 21.252 351.036 20.832 352.081 20.832ZM362.632 21H363.556V28H362.632V26.628C361.988 27.6547 361.045 28.168 359.804 28.168C358.805 28.168 357.951 27.8133 357.242 27.104C356.542 26.3947 356.192 25.5267 356.192 24.5C356.192 23.4733 356.542 22.6053 357.242 21.896C357.951 21.1867 358.805 20.832 359.804 20.832C361.045 20.832 361.988 21.3453 362.632 22.372V21ZM357.914 26.474C358.446 27.006 359.099 27.272 359.874 27.272C360.649 27.272 361.302 27.006 361.834 26.474C362.366 25.9327 362.632 25.2747 362.632 24.5C362.632 23.7253 362.366 23.072 361.834 22.54C361.302 21.9987 360.649 21.728 359.874 21.728C359.099 21.728 358.446 21.9987 357.914 22.54C357.382 23.072 357.116 23.7253 357.116 24.5C357.116 25.2747 357.382 25.9327 357.914 26.474ZM368.788 20.832C369.638 20.832 370.305 21.0933 370.79 21.616C371.285 22.1293 371.532 22.8247 371.532 23.702V28H370.608V23.702C370.608 23.0767 370.44 22.5913 370.104 22.246C369.778 21.9007 369.311 21.728 368.704 21.728C368.032 21.728 367.486 21.9427 367.066 22.372C366.646 22.792 366.436 23.4453 366.436 24.332V28H365.512V21H366.436V22.092C366.959 21.252 367.743 20.832 368.788 20.832ZM379.339 21H380.263V27.72C380.263 28.728 379.918 29.5213 379.227 30.1C378.536 30.6787 377.71 30.968 376.749 30.968C375.106 30.968 374 30.3987 373.431 29.26L374.243 28.798C374.663 29.6473 375.498 30.072 376.749 30.072C377.552 30.072 378.182 29.8573 378.639 29.428C379.106 29.008 379.339 28.4387 379.339 27.72V26.628C378.695 27.6547 377.752 28.168 376.511 28.168C375.512 28.168 374.658 27.8133 373.949 27.104C373.249 26.3947 372.899 25.5267 372.899 24.5C372.899 23.4733 373.249 22.6053 373.949 21.896C374.658 21.1867 375.512 20.832 376.511 20.832C377.752 20.832 378.695 21.3453 379.339 22.372V21ZM374.621 26.474C375.153 27.006 375.806 27.272 376.581 27.272C377.356 27.272 378.009 27.006 378.541 26.474C379.073 25.9327 379.339 25.2747 379.339 24.5C379.339 23.7253 379.073 23.072 378.541 22.54C378.009 21.9987 377.356 21.728 376.581 21.728C375.806 21.728 375.153 21.9987 374.621 22.54C374.089 23.072 373.823 23.7253 373.823 24.5C373.823 25.2747 374.089 25.9327 374.621 26.474ZM385.453 20.832C386.489 20.832 387.325 21.2007 387.959 21.938C388.603 22.666 388.925 23.5293 388.925 24.528C388.925 24.6307 388.916 24.7753 388.897 24.962H382.751C382.845 25.6713 383.143 26.236 383.647 26.656C384.161 27.0667 384.791 27.272 385.537 27.272C386.069 27.272 386.527 27.1647 386.909 26.95C387.301 26.726 387.595 26.4367 387.791 26.082L388.603 26.558C388.295 27.0527 387.875 27.4447 387.343 27.734C386.811 28.0233 386.205 28.168 385.523 28.168C384.422 28.168 383.526 27.8227 382.835 27.132C382.145 26.4413 381.799 25.564 381.799 24.5C381.799 23.4547 382.14 22.582 382.821 21.882C383.503 21.182 384.38 20.832 385.453 20.832ZM385.453 21.728C384.725 21.728 384.114 21.9473 383.619 22.386C383.134 22.8153 382.845 23.3753 382.751 24.066H387.973C387.88 23.3287 387.595 22.7547 387.119 22.344C386.643 21.9333 386.088 21.728 385.453 21.728ZM394.833 19.32C394.702 19.4507 394.544 19.516 394.357 19.516C394.17 19.516 394.012 19.4507 393.881 19.32C393.75 19.1893 393.685 19.0307 393.685 18.844C393.685 18.6573 393.75 18.4987 393.881 18.368C394.012 18.2373 394.17 18.172 394.357 18.172C394.544 18.172 394.702 18.2373 394.833 18.368C394.964 18.4987 395.029 18.6573 395.029 18.844C395.029 19.0307 394.964 19.1893 394.833 19.32ZM393.895 28V21H394.819V28H393.895ZM400.056 20.832C400.905 20.832 401.572 21.0933 402.058 21.616C402.552 22.1293 402.8 22.8247 402.8 23.702V28H401.876V23.702C401.876 23.0767 401.708 22.5913 401.372 22.246C401.045 21.9007 400.578 21.728 399.972 21.728C399.3 21.728 398.754 21.9427 398.334 22.372C397.914 22.792 397.704 23.4453 397.704 24.332V28H396.78V21H397.704V22.092C398.226 21.252 399.01 20.832 400.056 20.832ZM348.978 35.32C348.847 35.4507 348.688 35.516 348.502 35.516C348.315 35.516 348.156 35.4507 348.026 35.32C347.895 35.1893 347.83 35.0307 347.83 34.844C347.83 34.6573 347.895 34.4987 348.026 34.368C348.156 34.2373 348.315 34.172 348.502 34.172C348.688 34.172 348.847 34.2373 348.978 34.368C349.108 34.4987 349.174 34.6573 349.174 34.844C349.174 35.0307 349.108 35.1893 348.978 35.32ZM348.04 44V37H348.964V44H348.04ZM354.2 36.832C355.05 36.832 355.717 37.0933 356.202 37.616C356.697 38.1293 356.944 38.8247 356.944 39.702V44H356.02V39.702C356.02 39.0767 355.852 38.5913 355.516 38.246C355.19 37.9007 354.723 37.728 354.116 37.728C353.444 37.728 352.898 37.9427 352.478 38.372C352.058 38.792 351.848 39.4453 351.848 40.332V44H350.924V37H351.848V38.092C352.371 37.252 353.155 36.832 354.2 36.832ZM361.993 44.168C360.938 44.168 360.061 43.818 359.361 43.118C358.661 42.4087 358.311 41.536 358.311 40.5C358.311 39.464 358.661 38.596 359.361 37.896C360.061 37.1867 360.938 36.832 361.993 36.832C362.684 36.832 363.304 37 363.855 37.336C364.406 37.6627 364.807 38.106 365.059 38.666L364.303 39.1C364.116 38.68 363.813 38.3487 363.393 38.106C362.982 37.854 362.516 37.728 361.993 37.728C361.218 37.728 360.565 37.9987 360.033 38.54C359.501 39.072 359.235 39.7253 359.235 40.5C359.235 41.2747 359.501 41.9327 360.033 42.474C360.565 43.006 361.218 43.272 361.993 43.272C362.516 43.272 362.982 43.1507 363.393 42.908C363.804 42.656 364.126 42.32 364.359 41.9L365.129 42.348C364.84 42.908 364.415 43.3513 363.855 43.678C363.295 44.0047 362.674 44.168 361.993 44.168ZM372.253 43.118C371.544 43.818 370.676 44.168 369.649 44.168C368.623 44.168 367.75 43.818 367.031 43.118C366.322 42.4087 365.967 41.536 365.967 40.5C365.967 39.464 366.322 38.596 367.031 37.896C367.75 37.1867 368.623 36.832 369.649 36.832C370.676 36.832 371.544 37.1867 372.253 37.896C372.972 38.596 373.331 39.464 373.331 40.5C373.331 41.536 372.972 42.4087 372.253 43.118ZM367.689 42.474C368.221 43.006 368.875 43.272 369.649 43.272C370.424 43.272 371.077 43.006 371.609 42.474C372.141 41.9327 372.407 41.2747 372.407 40.5C372.407 39.7253 372.141 39.072 371.609 38.54C371.077 37.9987 370.424 37.728 369.649 37.728C368.875 37.728 368.221 37.9987 367.689 38.54C367.157 39.072 366.891 39.7253 366.891 40.5C366.891 41.2747 367.157 41.9327 367.689 42.474ZM382.339 36.832C383.123 36.832 383.753 37.084 384.229 37.588C384.715 38.092 384.957 38.7733 384.957 39.632V44H384.033V39.632C384.033 39.0253 383.875 38.5587 383.557 38.232C383.249 37.896 382.839 37.728 382.325 37.728C381.747 37.728 381.275 37.924 380.911 38.316C380.557 38.6987 380.379 39.3007 380.379 40.122V44H379.455V39.632C379.455 39.016 379.306 38.5447 379.007 38.218C378.718 37.8913 378.321 37.728 377.817 37.728C377.257 37.728 376.781 37.924 376.389 38.316C375.997 38.708 375.801 39.31 375.801 40.122V44H374.877V37H375.801V38.022C376.305 37.2287 377.019 36.832 377.943 36.832C378.951 36.832 379.661 37.2567 380.071 38.106C380.575 37.2567 381.331 36.832 382.339 36.832ZM389.979 36.832C391.015 36.832 391.85 37.2007 392.485 37.938C393.129 38.666 393.451 39.5293 393.451 40.528C393.451 40.6307 393.441 40.7753 393.423 40.962H387.277C387.37 41.6713 387.669 42.236 388.173 42.656C388.686 43.0667 389.316 43.272 390.063 43.272C390.595 43.272 391.052 43.1647 391.435 42.95C391.827 42.726 392.121 42.4367 392.317 42.082L393.129 42.558C392.821 43.0527 392.401 43.4447 391.869 43.734C391.337 44.0233 390.73 44.168 390.049 44.168C388.947 44.168 388.051 43.8227 387.361 43.132C386.67 42.4413 386.325 41.564 386.325 40.5C386.325 39.4547 386.665 38.582 387.347 37.882C388.028 37.182 388.905 36.832 389.979 36.832ZM389.979 37.728C389.251 37.728 388.639 37.9473 388.145 38.386C387.659 38.8153 387.37 39.3753 387.277 40.066H392.499C392.405 39.3287 392.121 38.7547 391.645 38.344C391.169 37.9333 390.613 37.728 389.979 37.728Z" fill="#8F90A6"/>
<path d="M619.283 77.698C618.303 78.678 617.103 79.168 615.685 79.168C614.266 79.168 613.067 78.678 612.087 77.698C611.107 76.7087 610.617 75.5093 610.617 74.1C610.617 72.6907 611.107 71.496 612.087 70.516C613.067 69.5267 614.266 69.032 615.685 69.032C617.103 69.032 618.303 69.5267 619.283 70.516C620.263 71.496 620.753 72.6907 620.753 74.1C620.753 75.5093 620.263 76.7087 619.283 77.698ZM612.773 77.026C613.557 77.8193 614.527 78.216 615.685 78.216C616.842 78.216 617.813 77.8193 618.597 77.026C619.381 76.2233 619.773 75.248 619.773 74.1C619.773 72.952 619.381 71.9813 618.597 71.188C617.813 70.3853 616.842 69.984 615.685 69.984C614.527 69.984 613.557 70.3853 612.773 71.188C611.989 71.9813 611.597 72.952 611.597 74.1C611.597 75.248 611.989 76.2233 612.773 77.026ZM625.999 72.896H623.983V77.138C623.983 77.5207 624.057 77.796 624.207 77.964C624.356 78.1227 624.58 78.2067 624.879 78.216C625.177 78.216 625.551 78.2067 625.999 78.188V79C625.019 79.1493 624.281 79.0793 623.787 78.79C623.301 78.5007 623.059 77.95 623.059 77.138V72.896H621.589V72H623.059V70.32L623.983 70.04V72H625.999V72.896ZM630.815 71.832C631.664 71.832 632.331 72.0933 632.817 72.616C633.311 73.1293 633.559 73.8247 633.559 74.702V79H632.635V74.702C632.635 74.0767 632.467 73.5913 632.131 73.246C631.804 72.9007 631.337 72.728 630.731 72.728C630.059 72.728 629.513 72.9427 629.093 73.372C628.673 73.792 628.463 74.4453 628.463 75.332V79H627.539V69.2H628.463V73.092C628.985 72.252 629.769 71.832 630.815 71.832ZM638.579 71.832C639.615 71.832 640.451 72.2007 641.085 72.938C641.729 73.666 642.051 74.5293 642.051 75.528C642.051 75.6307 642.042 75.7753 642.023 75.962H635.877C635.971 76.6713 636.269 77.236 636.773 77.656C637.287 78.0667 637.917 78.272 638.663 78.272C639.195 78.272 639.653 78.1647 640.035 77.95C640.427 77.726 640.721 77.4367 640.917 77.082L641.729 77.558C641.421 78.0527 641.001 78.4447 640.469 78.734C639.937 79.0233 639.331 79.168 638.649 79.168C637.548 79.168 636.652 78.8227 635.961 78.132C635.271 77.4413 634.925 76.564 634.925 75.5C634.925 74.4547 635.266 73.582 635.947 72.882C636.629 72.182 637.506 71.832 638.579 71.832ZM638.579 72.728C637.851 72.728 637.24 72.9473 636.745 73.386C636.26 73.8153 635.971 74.3753 635.877 75.066H641.099C641.006 74.3287 640.721 73.7547 640.245 73.344C639.769 72.9333 639.214 72.728 638.579 72.728ZM644.445 73.162C644.874 72.3127 645.612 71.888 646.657 71.888V72.784C646.022 72.784 645.495 72.9707 645.075 73.344C644.655 73.7173 644.445 74.3053 644.445 75.108V79H643.521V72H644.445V73.162Z" fill="#8F90A6"/>
<path d="M429.087 64.168C427.603 64.168 426.375 63.678 425.405 62.698C424.434 61.718 423.949 60.5187 423.949 59.1C423.949 57.6813 424.434 56.482 425.405 55.502C426.375 54.522 427.603 54.032 429.087 54.032C429.992 54.032 430.823 54.2513 431.579 54.69C432.335 55.1193 432.918 55.7027 433.329 56.44L432.461 56.944C432.153 56.3467 431.695 55.8707 431.089 55.516C430.482 55.1613 429.815 54.984 429.087 54.984C427.864 54.984 426.865 55.3807 426.091 56.174C425.316 56.9673 424.929 57.9427 424.929 59.1C424.929 60.2573 425.316 61.2327 426.091 62.026C426.865 62.8193 427.864 63.216 429.087 63.216C429.815 63.216 430.482 63.0387 431.089 62.684C431.695 62.3293 432.153 61.8533 432.461 61.256L433.329 61.746C432.927 62.4833 432.344 63.0713 431.579 63.51C430.823 63.9487 429.992 64.168 429.087 64.168ZM438.076 56.832C438.926 56.832 439.593 57.0933 440.078 57.616C440.573 58.1293 440.82 58.8247 440.82 59.702V64H439.896V59.702C439.896 59.0767 439.728 58.5913 439.392 58.246C439.066 57.9007 438.599 57.728 437.992 57.728C437.32 57.728 436.774 57.9427 436.354 58.372C435.934 58.792 435.724 59.4453 435.724 60.332V64H434.8V54.2H435.724V58.092C436.247 57.252 437.031 56.832 438.076 56.832ZM448.627 57H449.551V64H448.627V62.628C447.983 63.6547 447.04 64.168 445.799 64.168C444.8 64.168 443.946 63.8133 443.237 63.104C442.537 62.3947 442.187 61.5267 442.187 60.5C442.187 59.4733 442.537 58.6053 443.237 57.896C443.946 57.1867 444.8 56.832 445.799 56.832C447.04 56.832 447.983 57.3453 448.627 58.372V57ZM443.909 62.474C444.441 63.006 445.094 63.272 445.869 63.272C446.644 63.272 447.297 63.006 447.829 62.474C448.361 61.9327 448.627 61.2747 448.627 60.5C448.627 59.7253 448.361 59.072 447.829 58.54C447.297 57.9987 446.644 57.728 445.869 57.728C445.094 57.728 444.441 57.9987 443.909 58.54C443.377 59.072 443.111 59.7253 443.111 60.5C443.111 61.2747 443.377 61.9327 443.909 62.474ZM454.783 56.832C455.633 56.832 456.3 57.0933 456.785 57.616C457.28 58.1293 457.527 58.8247 457.527 59.702V64H456.603V59.702C456.603 59.0767 456.435 58.5913 456.099 58.246C455.773 57.9007 455.306 57.728 454.699 57.728C454.027 57.728 453.481 57.9427 453.061 58.372C452.641 58.792 452.431 59.4453 452.431 60.332V64H451.507V57H452.431V58.092C452.954 57.252 453.738 56.832 454.783 56.832ZM465.334 57H466.258V63.72C466.258 64.728 465.913 65.5213 465.222 66.1C464.531 66.6787 463.705 66.968 462.744 66.968C461.101 66.968 459.995 66.3987 459.426 65.26L460.238 64.798C460.658 65.6473 461.493 66.072 462.744 66.072C463.547 66.072 464.177 65.8573 464.634 65.428C465.101 65.008 465.334 64.4387 465.334 63.72V62.628C464.69 63.6547 463.747 64.168 462.506 64.168C461.507 64.168 460.653 63.8133 459.944 63.104C459.244 62.3947 458.894 61.5267 458.894 60.5C458.894 59.4733 459.244 58.6053 459.944 57.896C460.653 57.1867 461.507 56.832 462.506 56.832C463.747 56.832 464.69 57.3453 465.334 58.372V57ZM460.616 62.474C461.148 63.006 461.801 63.272 462.576 63.272C463.351 63.272 464.004 63.006 464.536 62.474C465.068 61.9327 465.334 61.2747 465.334 60.5C465.334 59.7253 465.068 59.072 464.536 58.54C464.004 57.9987 463.351 57.728 462.576 57.728C461.801 57.728 461.148 57.9987 460.616 58.54C460.084 59.072 459.818 59.7253 459.818 60.5C459.818 61.2747 460.084 61.9327 460.616 62.474ZM471.448 56.832C472.484 56.832 473.32 57.2007 473.954 57.938C474.598 58.666 474.92 59.5293 474.92 60.528C474.92 60.6307 474.911 60.7753 474.892 60.962H468.746C468.84 61.6713 469.138 62.236 469.642 62.656C470.156 63.0667 470.786 63.272 471.532 63.272C472.064 63.272 472.522 63.1647 472.904 62.95C473.296 62.726 473.59 62.4367 473.786 62.082L474.598 62.558C474.29 63.0527 473.87 63.4447 473.338 63.734C472.806 64.0233 472.2 64.168 471.518 64.168C470.417 64.168 469.521 63.8227 468.83 63.132C468.14 62.4413 467.794 61.564 467.794 60.5C467.794 59.4547 468.135 58.582 468.816 57.882C469.498 57.182 470.375 56.832 471.448 56.832ZM471.448 57.728C470.72 57.728 470.109 57.9473 469.614 58.386C469.129 58.8153 468.84 59.3753 468.746 60.066H473.968C473.875 59.3287 473.59 58.7547 473.114 58.344C472.638 57.9333 472.083 57.728 471.448 57.728ZM485.756 63.118C485.047 63.818 484.179 64.168 483.152 64.168C482.125 64.168 481.253 63.818 480.534 63.118C479.825 62.4087 479.47 61.536 479.47 60.5C479.47 59.464 479.825 58.596 480.534 57.896C481.253 57.1867 482.125 56.832 483.152 56.832C484.179 56.832 485.047 57.1867 485.756 57.896C486.475 58.596 486.834 59.464 486.834 60.5C486.834 61.536 486.475 62.4087 485.756 63.118ZM481.192 62.474C481.724 63.006 482.377 63.272 483.152 63.272C483.927 63.272 484.58 63.006 485.112 62.474C485.644 61.9327 485.91 61.2747 485.91 60.5C485.91 59.7253 485.644 59.072 485.112 58.54C484.58 57.9987 483.927 57.728 483.152 57.728C482.377 57.728 481.724 57.9987 481.192 58.54C480.66 59.072 480.394 59.7253 480.394 60.5C480.394 61.2747 480.66 61.9327 481.192 62.474ZM491.607 54.928C490.926 54.872 490.417 54.9887 490.081 55.278C489.754 55.5673 489.591 56.048 489.591 56.72V57H491.607V57.896H489.591V64H488.667V57.896H487.477V57H488.667V56.72C488.667 55.8053 488.919 55.1147 489.423 54.648C489.936 54.172 490.664 53.9667 491.607 54.032V54.928ZM432.298 80V69.78H433.222V80H432.298ZM441.049 79.118C440.34 79.818 439.472 80.168 438.445 80.168C437.418 80.168 436.546 79.818 435.827 79.118C435.118 78.4087 434.763 77.536 434.763 76.5C434.763 75.464 435.118 74.596 435.827 73.896C436.546 73.1867 437.418 72.832 438.445 72.832C439.472 72.832 440.34 73.1867 441.049 73.896C441.768 74.596 442.127 75.464 442.127 76.5C442.127 77.536 441.768 78.4087 441.049 79.118ZM436.485 78.474C437.017 79.006 437.67 79.272 438.445 79.272C439.22 79.272 439.873 79.006 440.405 78.474C440.937 77.9327 441.203 77.2747 441.203 76.5C441.203 75.7253 440.937 75.072 440.405 74.54C439.873 73.9987 439.22 73.728 438.445 73.728C437.67 73.728 437.017 73.9987 436.485 74.54C435.953 75.072 435.687 75.7253 435.687 76.5C435.687 77.2747 435.953 77.9327 436.485 78.474ZM446.935 80.168C445.881 80.168 445.003 79.818 444.303 79.118C443.603 78.4087 443.253 77.536 443.253 76.5C443.253 75.464 443.603 74.596 444.303 73.896C445.003 73.1867 445.881 72.832 446.935 72.832C447.626 72.832 448.247 73 448.797 73.336C449.348 73.6627 449.749 74.106 450.001 74.666L449.245 75.1C449.059 74.68 448.755 74.3487 448.335 74.106C447.925 73.854 447.458 73.728 446.935 73.728C446.161 73.728 445.507 73.9987 444.975 74.54C444.443 75.072 444.177 75.7253 444.177 76.5C444.177 77.2747 444.443 77.9327 444.975 78.474C445.507 79.006 446.161 79.272 446.935 79.272C447.458 79.272 447.925 79.1507 448.335 78.908C448.746 78.656 449.068 78.32 449.301 77.9L450.071 78.348C449.782 78.908 449.357 79.3513 448.797 79.678C448.237 80.0047 447.617 80.168 446.935 80.168ZM457.35 73H458.274V80H457.35V78.628C456.706 79.6547 455.763 80.168 454.522 80.168C453.523 80.168 452.669 79.8133 451.96 79.104C451.26 78.3947 450.91 77.5267 450.91 76.5C450.91 75.4733 451.26 74.6053 451.96 73.896C452.669 73.1867 453.523 72.832 454.522 72.832C455.763 72.832 456.706 73.3453 457.35 74.372V73ZM452.632 78.474C453.164 79.006 453.817 79.272 454.592 79.272C455.366 79.272 456.02 79.006 456.552 78.474C457.084 77.9327 457.35 77.2747 457.35 76.5C457.35 75.7253 457.084 75.072 456.552 74.54C456.02 73.9987 455.366 73.728 454.592 73.728C453.817 73.728 453.164 73.9987 452.632 74.54C452.1 75.072 451.834 75.7253 451.834 76.5C451.834 77.2747 452.1 77.9327 452.632 78.474ZM463.94 73.896H461.924V78.138C461.924 78.5207 461.999 78.796 462.148 78.964C462.297 79.1227 462.521 79.2067 462.82 79.216C463.119 79.216 463.492 79.2067 463.94 79.188V80C462.96 80.1493 462.223 80.0793 461.728 79.79C461.243 79.5007 461 78.95 461 78.138V73.896H459.53V73H461V71.32L461.924 71.04V73H463.94V73.896ZM466.418 71.32C466.287 71.4507 466.129 71.516 465.942 71.516C465.755 71.516 465.597 71.4507 465.466 71.32C465.335 71.1893 465.27 71.0307 465.27 70.844C465.27 70.6573 465.335 70.4987 465.466 70.368C465.597 70.2373 465.755 70.172 465.942 70.172C466.129 70.172 466.287 70.2373 466.418 70.368C466.549 70.4987 466.614 70.6573 466.614 70.844C466.614 71.0307 466.549 71.1893 466.418 71.32ZM465.48 80V73H466.404V80H465.48ZM474.231 79.118C473.521 79.818 472.653 80.168 471.627 80.168C470.6 80.168 469.727 79.818 469.009 79.118C468.299 78.4087 467.945 77.536 467.945 76.5C467.945 75.464 468.299 74.596 469.009 73.896C469.727 73.1867 470.6 72.832 471.627 72.832C472.653 72.832 473.521 73.1867 474.231 73.896C474.949 74.596 475.309 75.464 475.309 76.5C475.309 77.536 474.949 78.4087 474.231 79.118ZM469.667 78.474C470.199 79.006 470.852 79.272 471.627 79.272C472.401 79.272 473.055 79.006 473.587 78.474C474.119 77.9327 474.385 77.2747 474.385 76.5C474.385 75.7253 474.119 75.072 473.587 74.54C473.055 73.9987 472.401 73.728 471.627 73.728C470.852 73.728 470.199 73.9987 469.667 74.54C469.135 75.072 468.869 75.7253 468.869 76.5C468.869 77.2747 469.135 77.9327 469.667 78.474ZM480.131 72.832C480.98 72.832 481.648 73.0933 482.133 73.616C482.628 74.1293 482.875 74.8247 482.875 75.702V80H481.951V75.702C481.951 75.0767 481.783 74.5913 481.447 74.246C481.12 73.9007 480.654 73.728 480.047 73.728C479.375 73.728 478.829 73.9427 478.409 74.372C477.989 74.792 477.779 75.4453 477.779 76.332V80H476.855V73H477.779V74.092C478.302 73.252 479.086 72.832 480.131 72.832Z" fill="#8F90A6"/>
<path d="M514.087 96.168C512.603 96.168 511.375 95.678 510.405 94.698C509.434 93.718 508.949 92.5187 508.949 91.1C508.949 89.6813 509.434 88.482 510.405 87.502C511.375 86.522 512.603 86.032 514.087 86.032C514.992 86.032 515.823 86.2513 516.579 86.69C517.335 87.1193 517.918 87.7027 518.329 88.44L517.461 88.944C517.153 88.3467 516.695 87.8707 516.089 87.516C515.482 87.1613 514.815 86.984 514.087 86.984C512.864 86.984 511.865 87.3807 511.091 88.174C510.316 88.9673 509.929 89.9427 509.929 91.1C509.929 92.2573 510.316 93.2327 511.091 94.026C511.865 94.8193 512.864 95.216 514.087 95.216C514.815 95.216 515.482 95.0387 516.089 94.684C516.695 94.3293 517.153 93.8533 517.461 93.256L518.329 93.746C517.927 94.4833 517.344 95.0713 516.579 95.51C515.823 95.9487 514.992 96.168 514.087 96.168ZM523.076 88.832C523.926 88.832 524.593 89.0933 525.078 89.616C525.573 90.1293 525.82 90.8247 525.82 91.702V96H524.896V91.702C524.896 91.0767 524.728 90.5913 524.392 90.246C524.066 89.9007 523.599 89.728 522.992 89.728C522.32 89.728 521.774 89.9427 521.354 90.372C520.934 90.792 520.724 91.4453 520.724 92.332V96H519.8V86.2H520.724V90.092C521.247 89.252 522.031 88.832 523.076 88.832ZM533.627 89H534.551V96H533.627V94.628C532.983 95.6547 532.04 96.168 530.799 96.168C529.8 96.168 528.946 95.8133 528.237 95.104C527.537 94.3947 527.187 93.5267 527.187 92.5C527.187 91.4733 527.537 90.6053 528.237 89.896C528.946 89.1867 529.8 88.832 530.799 88.832C532.04 88.832 532.983 89.3453 533.627 90.372V89ZM528.909 94.474C529.441 95.006 530.094 95.272 530.869 95.272C531.644 95.272 532.297 95.006 532.829 94.474C533.361 93.9327 533.627 93.2747 533.627 92.5C533.627 91.7253 533.361 91.072 532.829 90.54C532.297 89.9987 531.644 89.728 530.869 89.728C530.094 89.728 529.441 89.9987 528.909 90.54C528.377 91.072 528.111 91.7253 528.111 92.5C528.111 93.2747 528.377 93.9327 528.909 94.474ZM539.783 88.832C540.633 88.832 541.3 89.0933 541.785 89.616C542.28 90.1293 542.527 90.8247 542.527 91.702V96H541.603V91.702C541.603 91.0767 541.435 90.5913 541.099 90.246C540.773 89.9007 540.306 89.728 539.699 89.728C539.027 89.728 538.481 89.9427 538.061 90.372C537.641 90.792 537.431 91.4453 537.431 92.332V96H536.507V89H537.431V90.092C537.954 89.252 538.738 88.832 539.783 88.832ZM550.334 89H551.258V95.72C551.258 96.728 550.913 97.5213 550.222 98.1C549.531 98.6787 548.705 98.968 547.744 98.968C546.101 98.968 544.995 98.3987 544.426 97.26L545.238 96.798C545.658 97.6473 546.493 98.072 547.744 98.072C548.547 98.072 549.177 97.8573 549.634 97.428C550.101 97.008 550.334 96.4387 550.334 95.72V94.628C549.69 95.6547 548.747 96.168 547.506 96.168C546.507 96.168 545.653 95.8133 544.944 95.104C544.244 94.3947 543.894 93.5267 543.894 92.5C543.894 91.4733 544.244 90.6053 544.944 89.896C545.653 89.1867 546.507 88.832 547.506 88.832C548.747 88.832 549.69 89.3453 550.334 90.372V89ZM545.616 94.474C546.148 95.006 546.801 95.272 547.576 95.272C548.351 95.272 549.004 95.006 549.536 94.474C550.068 93.9327 550.334 93.2747 550.334 92.5C550.334 91.7253 550.068 91.072 549.536 90.54C549.004 89.9987 548.351 89.728 547.576 89.728C546.801 89.728 546.148 89.9987 545.616 90.54C545.084 91.072 544.818 91.7253 544.818 92.5C544.818 93.2747 545.084 93.9327 545.616 94.474ZM556.448 88.832C557.484 88.832 558.32 89.2007 558.954 89.938C559.598 90.666 559.92 91.5293 559.92 92.528C559.92 92.6307 559.911 92.7753 559.892 92.962H553.746C553.84 93.6713 554.138 94.236 554.642 94.656C555.156 95.0667 555.786 95.272 556.532 95.272C557.064 95.272 557.522 95.1647 557.904 94.95C558.296 94.726 558.59 94.4367 558.786 94.082L559.598 94.558C559.29 95.0527 558.87 95.4447 558.338 95.734C557.806 96.0233 557.2 96.168 556.518 96.168C555.417 96.168 554.521 95.8227 553.83 95.132C553.14 94.4413 552.794 93.564 552.794 92.5C552.794 91.4547 553.135 90.582 553.816 89.882C554.498 89.182 555.375 88.832 556.448 88.832ZM556.448 89.728C555.72 89.728 555.109 89.9473 554.614 90.386C554.129 90.8153 553.84 91.3753 553.746 92.066H558.968C558.875 91.3287 558.59 90.7547 558.114 90.344C557.638 89.9333 557.083 89.728 556.448 89.728ZM570.756 95.118C570.047 95.818 569.179 96.168 568.152 96.168C567.125 96.168 566.253 95.818 565.534 95.118C564.825 94.4087 564.47 93.536 564.47 92.5C564.47 91.464 564.825 90.596 565.534 89.896C566.253 89.1867 567.125 88.832 568.152 88.832C569.179 88.832 570.047 89.1867 570.756 89.896C571.475 90.596 571.834 91.464 571.834 92.5C571.834 93.536 571.475 94.4087 570.756 95.118ZM566.192 94.474C566.724 95.006 567.377 95.272 568.152 95.272C568.927 95.272 569.58 95.006 570.112 94.474C570.644 93.9327 570.91 93.2747 570.91 92.5C570.91 91.7253 570.644 91.072 570.112 90.54C569.58 89.9987 568.927 89.728 568.152 89.728C567.377 89.728 566.724 89.9987 566.192 90.54C565.66 91.072 565.394 91.7253 565.394 92.5C565.394 93.2747 565.66 93.9327 566.192 94.474ZM576.607 86.928C575.926 86.872 575.417 86.9887 575.081 87.278C574.754 87.5673 574.591 88.048 574.591 88.72V89H576.607V89.896H574.591V96H573.667V89.896H572.477V89H573.667V88.72C573.667 87.8053 573.919 87.1147 574.423 86.648C574.936 86.172 575.664 85.9667 576.607 86.032V86.928ZM528.609 104.832C529.393 104.832 530.023 105.084 530.499 105.588C530.984 106.092 531.227 106.773 531.227 107.632V112H530.303V107.632C530.303 107.025 530.144 106.559 529.827 106.232C529.519 105.896 529.108 105.728 528.595 105.728C528.016 105.728 527.545 105.924 527.181 106.316C526.826 106.699 526.649 107.301 526.649 108.122V112H525.725V107.632C525.725 107.016 525.576 106.545 525.277 106.218C524.988 105.891 524.591 105.728 524.087 105.728C523.527 105.728 523.051 105.924 522.659 106.316C522.267 106.708 522.071 107.31 522.071 108.122V112H521.147V105H522.071V106.022C522.575 105.229 523.289 104.832 524.213 104.832C525.221 104.832 525.93 105.257 526.341 106.106C526.845 105.257 527.601 104.832 528.609 104.832ZM539.034 105H539.958V112H539.034V110.628C538.39 111.655 537.448 112.168 536.206 112.168C535.208 112.168 534.354 111.813 533.644 111.104C532.944 110.395 532.594 109.527 532.594 108.5C532.594 107.473 532.944 106.605 533.644 105.896C534.354 105.187 535.208 104.832 536.206 104.832C537.448 104.832 538.39 105.345 539.034 106.372V105ZM534.316 110.474C534.848 111.006 535.502 111.272 536.276 111.272C537.051 111.272 537.704 111.006 538.236 110.474C538.768 109.933 539.034 109.275 539.034 108.5C539.034 107.725 538.768 107.072 538.236 106.54C537.704 105.999 537.051 105.728 536.276 105.728C535.502 105.728 534.848 105.999 534.316 106.54C533.784 107.072 533.518 107.725 533.518 108.5C533.518 109.275 533.784 109.933 534.316 110.474ZM542.839 106.162C543.268 105.313 544.005 104.888 545.051 104.888V105.784C544.416 105.784 543.889 105.971 543.469 106.344C543.049 106.717 542.839 107.305 542.839 108.108V112H541.915V105H542.839V106.162ZM547.255 103.32C547.124 103.451 546.966 103.516 546.779 103.516C546.592 103.516 546.434 103.451 546.303 103.32C546.172 103.189 546.107 103.031 546.107 102.844C546.107 102.657 546.172 102.499 546.303 102.368C546.434 102.237 546.592 102.172 546.779 102.172C546.966 102.172 547.124 102.237 547.255 102.368C547.386 102.499 547.451 102.657 547.451 102.844C547.451 103.031 547.386 103.189 547.255 103.32ZM546.317 112V105H547.241V112H546.317ZM552.912 105.896H550.896V110.138C550.896 110.521 550.97 110.796 551.12 110.964C551.269 111.123 551.493 111.207 551.792 111.216C552.09 111.216 552.464 111.207 552.912 111.188V112C551.932 112.149 551.194 112.079 550.7 111.79C550.214 111.501 549.972 110.95 549.972 110.138V105.896H548.502V105H549.972V103.32L550.896 103.04V105H552.912V105.896ZM560.048 105H560.972V112H560.048V110.628C559.404 111.655 558.461 112.168 557.22 112.168C556.221 112.168 555.367 111.813 554.658 111.104C553.958 110.395 553.608 109.527 553.608 108.5C553.608 107.473 553.958 106.605 554.658 105.896C555.367 105.187 556.221 104.832 557.22 104.832C558.461 104.832 559.404 105.345 560.048 106.372V105ZM555.33 110.474C555.862 111.006 556.515 111.272 557.29 111.272C558.065 111.272 558.718 111.006 559.25 110.474C559.782 109.933 560.048 109.275 560.048 108.5C560.048 107.725 559.782 107.072 559.25 106.54C558.718 105.999 558.065 105.728 557.29 105.728C556.515 105.728 555.862 105.999 555.33 106.54C554.798 107.072 554.532 107.725 554.532 108.5C554.532 109.275 554.798 109.933 555.33 110.474ZM562.928 112V101.78H563.852V112H562.928ZM524.596 122.834C524.596 123.151 524.736 123.403 525.016 123.59C525.296 123.777 525.636 123.921 526.038 124.024C526.439 124.127 526.84 124.243 527.242 124.374C527.643 124.495 527.984 124.705 528.264 125.004C528.544 125.293 528.684 125.676 528.684 126.152C528.684 126.749 528.446 127.235 527.97 127.608C527.503 127.981 526.896 128.168 526.15 128.168C525.478 128.168 524.904 128.019 524.428 127.72C523.961 127.421 523.634 127.034 523.448 126.558L524.232 126.096C524.362 126.46 524.596 126.749 524.932 126.964C525.277 127.169 525.683 127.272 526.15 127.272C526.607 127.272 526.99 127.183 527.298 127.006C527.606 126.819 527.76 126.535 527.76 126.152C527.76 125.835 527.62 125.583 527.34 125.396C527.06 125.209 526.719 125.065 526.318 124.962C525.916 124.859 525.515 124.747 525.114 124.626C524.712 124.495 524.372 124.285 524.092 123.996C523.812 123.697 523.672 123.31 523.672 122.834C523.672 122.265 523.896 121.789 524.344 121.406C524.801 121.023 525.375 120.832 526.066 120.832C526.635 120.832 527.134 120.963 527.564 121.224C527.993 121.476 528.31 121.821 528.516 122.26L527.746 122.708C527.475 122.055 526.915 121.728 526.066 121.728C525.664 121.728 525.319 121.826 525.03 122.022C524.74 122.209 524.596 122.479 524.596 122.834ZM533.662 121.896H531.646V126.138C531.646 126.521 531.72 126.796 531.87 126.964C532.019 127.123 532.243 127.207 532.542 127.216C532.84 127.216 533.214 127.207 533.662 127.188V128C532.682 128.149 531.944 128.079 531.45 127.79C530.964 127.501 530.722 126.95 530.722 126.138V121.896H529.252V121H530.722V119.32L531.646 119.04V121H533.662V121.896ZM540.798 121H541.722V128H540.798V126.628C540.154 127.655 539.211 128.168 537.97 128.168C536.971 128.168 536.117 127.813 535.408 127.104C534.708 126.395 534.358 125.527 534.358 124.5C534.358 123.473 534.708 122.605 535.408 121.896C536.117 121.187 536.971 120.832 537.97 120.832C539.211 120.832 540.154 121.345 540.798 122.372V121ZM536.08 126.474C536.612 127.006 537.265 127.272 538.04 127.272C538.815 127.272 539.468 127.006 540 126.474C540.532 125.933 540.798 125.275 540.798 124.5C540.798 123.725 540.532 123.072 540 122.54C539.468 121.999 538.815 121.728 538.04 121.728C537.265 121.728 536.612 121.999 536.08 122.54C535.548 123.072 535.282 123.725 535.282 124.5C535.282 125.275 535.548 125.933 536.08 126.474ZM547.388 121.896H545.372V126.138C545.372 126.521 545.447 126.796 545.596 126.964C545.746 127.123 545.97 127.207 546.268 127.216C546.567 127.216 546.94 127.207 547.388 127.188V128C546.408 128.149 545.671 128.079 545.176 127.79C544.691 127.501 544.448 126.95 544.448 126.138V121.896H542.978V121H544.448V119.32L545.372 119.04V121H547.388V121.896ZM553.856 121H554.78V128H553.856V126.908C553.334 127.748 552.55 128.168 551.504 128.168C550.655 128.168 549.983 127.911 549.488 127.398C549.003 126.875 548.76 126.175 548.76 125.298V121H549.684V125.298C549.684 125.923 549.848 126.409 550.174 126.754C550.51 127.099 550.982 127.272 551.588 127.272C552.26 127.272 552.806 127.062 553.226 126.642C553.646 126.213 553.856 125.555 553.856 124.668V121ZM557.463 122.834C557.463 123.151 557.603 123.403 557.883 123.59C558.163 123.777 558.504 123.921 558.905 124.024C559.306 124.127 559.708 124.243 560.109 124.374C560.51 124.495 560.851 124.705 561.131 125.004C561.411 125.293 561.551 125.676 561.551 126.152C561.551 126.749 561.313 127.235 560.837 127.608C560.37 127.981 559.764 128.168 559.017 128.168C558.345 128.168 557.771 128.019 557.295 127.72C556.828 127.421 556.502 127.034 556.315 126.558L557.099 126.096C557.23 126.46 557.463 126.749 557.799 126.964C558.144 127.169 558.55 127.272 559.017 127.272C559.474 127.272 559.857 127.183 560.165 127.006C560.473 126.819 560.627 126.535 560.627 126.152C560.627 125.835 560.487 125.583 560.207 125.396C559.927 125.209 559.586 125.065 559.185 124.962C558.784 124.859 558.382 124.747 557.981 124.626C557.58 124.495 557.239 124.285 556.959 123.996C556.679 123.697 556.539 123.31 556.539 122.834C556.539 122.265 556.763 121.789 557.211 121.406C557.668 121.023 558.242 120.832 558.933 120.832C559.502 120.832 560.002 120.963 560.431 121.224C560.86 121.476 561.178 121.821 561.383 122.26L560.613 122.708C560.342 122.055 559.782 121.728 558.933 121.728C558.532 121.728 558.186 121.826 557.897 122.022C557.608 122.209 557.463 122.479 557.463 122.834Z" fill="#8F90A6"/>
<path d="M93.1982 96.2V106H92.2182V97.684L88.7882 103.424H88.6482L85.2182 97.684V106H84.2382V96.2H85.4562L88.7182 101.66L91.9802 96.2H93.1982ZM101.315 99H102.239V106H101.315V104.628C100.671 105.655 99.7288 106.168 98.4874 106.168C97.4888 106.168 96.6348 105.813 95.9254 105.104C95.2254 104.395 94.8754 103.527 94.8754 102.5C94.8754 101.473 95.2254 100.605 95.9254 99.896C96.6348 99.1867 97.4888 98.832 98.4874 98.832C99.7288 98.832 100.671 99.3453 101.315 100.372V99ZM96.5974 104.474C97.1294 105.006 97.7828 105.272 98.5574 105.272C99.3321 105.272 99.9854 105.006 100.517 104.474C101.049 103.933 101.315 103.275 101.315 102.5C101.315 101.725 101.049 101.072 100.517 100.54C99.9854 99.9987 99.3321 99.728 98.5574 99.728C97.7828 99.728 97.1294 99.9987 96.5974 100.54C96.0654 101.072 95.7994 101.725 95.7994 102.5C95.7994 103.275 96.0654 103.933 96.5974 104.474ZM105.12 100.162C105.549 99.3127 106.286 98.888 107.332 98.888V99.784C106.697 99.784 106.17 99.9707 105.75 100.344C105.33 100.717 105.12 101.305 105.12 102.108V106H104.196V99H105.12V100.162ZM109.522 100.162C109.951 99.3127 110.689 98.888 111.734 98.888V99.784C111.099 99.784 110.572 99.9707 110.152 100.344C109.732 100.717 109.522 101.305 109.522 102.108V106H108.598V99H109.522V100.162ZM113.939 97.32C113.808 97.4507 113.649 97.516 113.463 97.516C113.276 97.516 113.117 97.4507 112.987 97.32C112.856 97.1893 112.791 97.0307 112.791 96.844C112.791 96.6573 112.856 96.4987 112.987 96.368C113.117 96.2373 113.276 96.172 113.463 96.172C113.649 96.172 113.808 96.2373 113.939 96.368C114.069 96.4987 114.135 96.6573 114.135 96.844C114.135 97.0307 114.069 97.1893 113.939 97.32ZM113.001 106V99H113.925V106H113.001ZM121.905 99H122.829V106H121.905V104.628C121.261 105.655 120.319 106.168 119.077 106.168C118.079 106.168 117.225 105.813 116.515 105.104C115.815 104.395 115.465 103.527 115.465 102.5C115.465 101.473 115.815 100.605 116.515 99.896C117.225 99.1867 118.079 98.832 119.077 98.832C120.319 98.832 121.261 99.3453 121.905 100.372V99ZM117.187 104.474C117.719 105.006 118.373 105.272 119.147 105.272C119.922 105.272 120.575 105.006 121.107 104.474C121.639 103.933 121.905 103.275 121.905 102.5C121.905 101.725 121.639 101.072 121.107 100.54C120.575 99.9987 119.922 99.728 119.147 99.728C118.373 99.728 117.719 99.9987 117.187 100.54C116.655 101.072 116.389 101.725 116.389 102.5C116.389 103.275 116.655 103.933 117.187 104.474ZM130.806 99H131.73V105.72C131.73 106.728 131.384 107.521 130.694 108.1C130.003 108.679 129.177 108.968 128.216 108.968C126.573 108.968 125.467 108.399 124.898 107.26L125.71 106.798C126.13 107.647 126.965 108.072 128.216 108.072C129.018 108.072 129.648 107.857 130.106 107.428C130.572 107.008 130.806 106.439 130.806 105.72V104.628C130.162 105.655 129.219 106.168 127.978 106.168C126.979 106.168 126.125 105.813 125.416 105.104C124.716 104.395 124.366 103.527 124.366 102.5C124.366 101.473 124.716 100.605 125.416 99.896C126.125 99.1867 126.979 98.832 127.978 98.832C129.219 98.832 130.162 99.3453 130.806 100.372V99ZM126.088 104.474C126.62 105.006 127.273 105.272 128.048 105.272C128.822 105.272 129.476 105.006 130.008 104.474C130.54 103.933 130.806 103.275 130.806 102.5C130.806 101.725 130.54 101.072 130.008 100.54C129.476 99.9987 128.822 99.728 128.048 99.728C127.273 99.728 126.62 99.9987 126.088 100.54C125.556 101.072 125.29 101.725 125.29 102.5C125.29 103.275 125.556 103.933 126.088 104.474ZM136.92 98.832C137.956 98.832 138.791 99.2007 139.426 99.938C140.07 100.666 140.392 101.529 140.392 102.528C140.392 102.631 140.383 102.775 140.364 102.962H134.218C134.311 103.671 134.61 104.236 135.114 104.656C135.627 105.067 136.257 105.272 137.004 105.272C137.536 105.272 137.993 105.165 138.376 104.95C138.768 104.726 139.062 104.437 139.258 104.082L140.07 104.558C139.762 105.053 139.342 105.445 138.81 105.734C138.278 106.023 137.671 106.168 136.99 106.168C135.889 106.168 134.993 105.823 134.302 105.132C133.611 104.441 133.266 103.564 133.266 102.5C133.266 101.455 133.607 100.582 134.288 99.882C134.969 99.182 135.847 98.832 136.92 98.832ZM136.92 99.728C136.192 99.728 135.581 99.9473 135.086 100.386C134.601 100.815 134.311 101.375 134.218 102.066H139.44C139.347 101.329 139.062 100.755 138.586 100.344C138.11 99.9333 137.555 99.728 136.92 99.728Z" fill="#8F90A6"/>
<line y1="200.5" x2="658" y2="200.5" stroke="#F0F0F0"/>
</svg>
