<svg width="20" height="16" viewBox="0 0 20 16" fill="none" xmlns="http://www.w3.org/2000/svg">
<path d="M19.8898 5.99752C19.2812 2.61861 15.1559 0.0864258 10.0013 0.0864258C4.84156 0.0864258 0.718906 2.62111 0.110156 6.00252C0 7.09205 0 10.4033 0 10.4033C0 11.781 1.11453 12.8378 2.62484 13.7371V14.4308C2.62484 15.2474 3.29109 15.9136 4.10766 15.9136H6.85781C7.13328 15.9136 7.40391 15.801 7.59922 15.6055L9.47016 13.7344C9.76313 13.4439 10.2391 13.4439 10.5297 13.7344L12.4008 15.6055C12.6011 15.8033 12.8642 15.9136 13.1447 15.9136H15.8923C16.7114 15.9136 17.3752 15.2474 17.3752 14.4308V13.7521C18.883 12.8503 20 11.7885 20 10.4033C20 10.4033 20 7.40518 19.8898 5.99752ZM16.6237 14.4308C16.6237 14.8341 16.2956 15.1622 15.8923 15.1622H13.1447C13.0645 15.1622 12.9894 15.1297 12.9317 15.0746L11.0608 13.2035C10.4772 12.6199 9.52547 12.6174 8.93937 13.2035L7.06844 15.0746C7.01328 15.1297 6.93562 15.1622 6.85797 15.1622H4.10766C3.70438 15.1622 3.37625 14.8341 3.37625 14.4308V8.3594C3.37625 7.70064 3.84969 7.21971 4.50094 7.21971H15.5016C16.1528 7.21971 16.6236 7.70064 16.6236 8.3594V14.4308H16.6237ZM17.3752 9.0558V8.3594C17.3752 7.28236 16.5711 6.4683 15.5017 6.4683H4.50094C3.43141 6.4683 2.62484 7.28236 2.62484 8.3594V9.00564C0.786406 8.59486 0.786406 6.86658 0.786406 6.86658C0.786406 3.48768 4.83406 0.837832 10.0013 0.837832C15.1684 0.837832 19.2161 3.48783 19.2161 6.86658C19.2161 6.86658 19.0362 8.54799 17.3752 9.0558ZM6.49719 13.1967C5.41 13.1967 4.52531 12.3122 4.52531 11.2249C4.52531 10.1377 5.40984 9.25299 6.49719 9.25299C7.58453 9.25299 8.46906 10.1375 8.46906 11.2249C8.46906 12.3121 7.58438 13.1967 6.49719 13.1967ZM6.49719 10.0044C5.82422 10.0044 5.27672 10.5519 5.27672 11.2249C5.27672 11.8978 5.82422 12.4453 6.49719 12.4453C7.17016 12.4453 7.71766 11.8978 7.71766 11.2249C7.71766 10.5519 7.17 10.0044 6.49719 10.0044ZM13.5103 13.1967C12.4231 13.1967 11.5384 12.3122 11.5384 11.2249C11.5384 10.1377 12.423 9.25299 13.5103 9.25299C14.5975 9.25299 15.4822 10.1375 15.4822 11.2249C15.4822 12.3121 14.5977 13.1967 13.5103 13.1967ZM13.5103 10.0044C12.8373 10.0044 12.2898 10.5519 12.2898 11.2249C12.2898 11.8978 12.8373 12.4453 13.5103 12.4453C14.1833 12.4453 14.7308 11.8978 14.7308 11.2249C14.7308 10.5519 14.1833 10.0044 13.5103 10.0044Z" fill="white"/>
</svg>
