<svg width="18" height="16" viewBox="0 0 18 16" fill="none" xmlns="http://www.w3.org/2000/svg">
<path d="M6.49996 0.666504L4.97496 2.33317H2.33329C1.41663 2.33317 0.666626 3.08317 0.666626 3.99984V13.9998C0.666626 14.9165 1.41663 15.6665 2.33329 15.6665H15.6666C16.5833 15.6665 17.3333 14.9165 17.3333 13.9998V3.99984C17.3333 3.08317 16.5833 2.33317 15.6666 2.33317H13.025L11.5 0.666504H6.49996ZM8.99996 13.1665C6.69996 13.1665 4.83329 11.2998 4.83329 8.99984C4.83329 6.69984 6.69996 4.83317 8.99996 4.83317C11.3 4.83317 13.1666 6.69984 13.1666 8.99984C13.1666 11.2998 11.3 13.1665 8.99996 13.1665Z" fill="white"/>
</svg>
