<svg width="18" height="18" viewBox="0 0 18 18" fill="none" xmlns="http://www.w3.org/2000/svg">
<path d="M9.87504 7.1585L7.33337 5.25016V12.7502L9.87504 10.8418L12.3334 9.00016L9.87504 7.1585ZM9.87504 7.1585L7.33337 5.25016V12.7502L9.87504 10.8418L12.3334 9.00016L9.87504 7.1585ZM9.87504 7.1585L7.33337 5.25016V12.7502L9.87504 10.8418L12.3334 9.00016L9.87504 7.1585ZM8.16671 2.39183V0.708496C6.49171 0.875163 4.96671 1.54183 3.73337 2.55016L4.91671 3.74183C5.84171 3.02516 6.95004 2.54183 8.16671 2.39183ZM3.74171 4.91683L2.55004 3.7335C1.54171 4.96683 0.875041 6.49183 0.708374 8.16683H2.39171C2.54171 6.95016 3.02504 5.84183 3.74171 4.91683ZM2.39171 9.8335H0.708374C0.875041 11.5085 1.54171 13.0335 2.55004 14.2668L3.74171 13.0752C3.02504 12.1585 2.54171 11.0502 2.39171 9.8335ZM3.73337 15.4502C4.96671 16.4585 6.50004 17.1252 8.16671 17.2918V15.6085C6.95004 15.4585 5.84171 14.9752 4.91671 14.2585L3.73337 15.4502ZM17.3334 9.00016C17.3334 13.3002 14.0667 16.8502 9.87504 17.2918V15.6085C13.1417 15.1752 15.6667 12.3752 15.6667 9.00016C15.6667 5.62516 13.1417 2.82516 9.87504 2.39183V0.708496C14.0667 1.15016 17.3334 4.70016 17.3334 9.00016Z" fill="white"/>
</svg>
