<svg width="100" height="100" viewBox="0 0 100 100" fill="none" xmlns="http://www.w3.org/2000/svg">
<rect x="0.5" y="0.5" width="99" height="99" rx="19.5" fill="white" stroke="#DCDCEB"/>
<circle cx="50.04" cy="50.04" r="23.04" fill="#EDF0F4"/>
<path d="M49.9772 36.216L49.7939 36.8386V54.9026L49.9772 55.0854L58.3622 50.129L49.9772 36.216Z" fill="#343434"/>
<path d="M49.9772 36.216L41.592 50.129L49.9772 55.0854V46.3177V36.216Z" fill="#8C8C8C"/>
<path d="M49.9773 56.673L49.874 56.799V63.2337L49.9773 63.5352L58.3674 51.7192L49.9773 56.673Z" fill="#3C3C3B"/>
<path d="M49.9772 63.5352V56.673L41.592 51.7192L49.9772 63.5352Z" fill="#8C8C8C"/>
<path d="M49.9773 55.0855L58.3622 50.129L49.9773 46.3177V55.0855Z" fill="#141414"/>
<path d="M41.592 50.129L49.9772 55.0855V46.3177L41.592 50.129Z" fill="#393939"/>
</svg>
