<svg width="72" height="30" viewBox="0 0 72 30" fill="none" xmlns="http://www.w3.org/2000/svg">
<path fill-rule="evenodd" clip-rule="evenodd" d="M33.2289 23.023V14.3917H37.6837C39.5092 14.3917 41.0499 13.7801 42.306 12.5737L42.6074 12.2679C44.9018 9.77025 44.7511 5.87937 42.306 3.56863C41.0834 2.3453 39.4087 1.68266 37.6837 1.71664H30.5326V23.023H33.2289ZM33.2293 11.7751V4.33318H37.7517C38.7232 4.33318 39.6445 4.70697 40.3312 5.3866C41.7885 6.81382 41.822 9.19253 40.415 10.6707C39.7282 11.4013 38.7567 11.8091 37.7517 11.7751H33.2293ZM55.1847 9.58337C54.0292 8.51295 52.4549 7.96925 50.462 7.96925C47.8996 7.96925 45.9737 8.92073 44.7009 10.8067L47.079 12.3189C47.9499 11.0276 49.1389 10.3819 50.6462 10.3819C51.6008 10.3819 52.5219 10.7387 53.242 11.3844C53.9454 11.9961 54.3474 12.8796 54.3474 13.8141V14.4427C53.309 13.865 52.0027 13.5592 50.395 13.5592C48.5193 13.5592 47.012 14.001 45.89 14.9015C44.7679 15.802 44.1985 16.9913 44.1985 18.5035C44.165 19.8798 44.7512 21.188 45.7895 22.0716C46.8446 23.023 48.1843 23.4988 49.7586 23.4988C51.6175 23.4988 53.0913 22.6662 54.2134 21.0012H54.3306V23.023H56.9097V14.0349C56.9097 12.149 56.3403 10.6538 55.1847 9.58337ZM47.8666 20.3385C47.3139 19.9307 46.9789 19.2681 46.9789 18.5545C46.9789 17.7559 47.3474 17.0933 48.0676 16.5666C48.8046 16.0398 49.7259 15.768 50.8146 15.768C52.3221 15.751 53.4946 16.0908 54.3321 16.7704C54.3321 17.9258 53.8799 18.9283 52.9921 19.7778C52.1881 20.5934 51.0994 21.0521 49.9604 21.0521C49.2066 21.0691 48.4696 20.8142 47.8666 20.3385ZM62.7043 29.4286L71.7144 8.445H68.7836L64.6135 18.9113H64.5633L60.2927 8.445H57.3619L63.2737 22.0886L59.9243 29.4286H62.7043Z" fill="#3C4043"/>
<path d="M23.9203 12.5228C23.9203 11.6902 23.8533 10.8577 23.7193 10.0421H12.3479V14.7486H18.8626C18.5946 16.2607 17.7238 17.62 16.451 18.4695V21.5279H20.3364C22.614 19.404 23.9203 16.2607 23.9203 12.5228Z" fill="#4285F4"/>
<path d="M12.3484 24.4843C15.5974 24.4843 18.3439 23.3968 20.3369 21.5279L16.4515 18.4695C15.3629 19.2171 13.9729 19.6419 12.3484 19.6419C9.19992 19.6419 6.5371 17.4841 5.5825 14.5956H1.5799V17.7559C3.62307 21.8847 7.79315 24.4843 12.3484 24.4843Z" fill="#34A853"/>
<path d="M5.58292 14.5957C5.08042 13.0835 5.08042 11.4354 5.58292 9.90623V6.76294H1.57967C-0.145576 10.2121 -0.145576 14.2898 1.57967 17.739L5.58292 14.5957Z" fill="#FBBC04"/>
<path d="M12.3484 4.85995C14.0734 4.82597 15.7314 5.48861 16.9707 6.69495L20.4206 3.19485C18.2267 1.12198 15.3462 -0.0163963 12.3484 0.0175852C7.79315 0.0175852 3.62307 2.63416 1.5799 6.76291L5.5825 9.92319C6.5371 7.01777 9.19992 4.85995 12.3484 4.85995Z" fill="#EA4335"/>
</svg>
