<svg width="52" height="42" viewBox="0 0 52 42" fill="none" xmlns="http://www.w3.org/2000/svg">
<path d="M30.4144 41.714C41.5501 41.7678 51.7143 32.5489 51.7143 21.3342C51.7143 9.07125 41.5501 0.593844 30.4144 0.598421H20.8304C9.56187 0.593844 0.285706 9.07353 0.285706 21.3342C0.285706 32.5512 9.56187 41.7678 20.8304 41.714H30.4144Z" fill="#0079BE"/>
<path d="M20.8761 2.29779C10.5781 2.30122 2.23454 10.7237 2.23111 21.119C2.23454 31.5132 10.5781 39.9357 20.8761 39.9391C31.1753 39.9357 39.5223 31.5132 39.5234 21.119C39.5223 10.7237 31.1765 2.30122 20.8761 2.29779ZM9.05835 21.119C9.05618 18.7155 9.77914 16.3673 11.1327 14.3812C12.4863 12.3951 14.4076 10.8636 16.6454 9.98673V32.2502C14.4074 31.374 12.4859 29.8427 11.1323 27.8567C9.7786 25.8708 9.05578 23.5225 9.05835 21.119V21.119ZM25.1057 32.2548V9.98558C27.3452 10.8612 29.2681 12.3926 30.6227 14.3794C31.9773 16.3661 32.7004 18.7156 32.6973 21.1202C32.6999 23.5247 31.9766 25.8739 30.6221 27.8606C29.2676 29.8473 27.3449 31.3788 25.1057 32.2548V32.2548Z" fill="white"/>
<path d="M30.4144 41.714C41.5501 41.7678 51.7143 32.5489 51.7143 21.3342C51.7143 9.07125 41.5501 0.593844 30.4144 0.598421H20.8304C9.56187 0.593844 0.285706 9.07353 0.285706 21.3342C0.285706 32.5512 9.56187 41.7678 20.8304 41.714H30.4144Z" fill="#0079BE"/>
<path d="M20.8761 2.29779C10.5781 2.30122 2.23454 10.7237 2.23111 21.119C2.23454 31.5132 10.5781 39.9357 20.8761 39.9391C31.1753 39.9357 39.5223 31.5132 39.5234 21.119C39.5223 10.7237 31.1765 2.30122 20.8761 2.29779ZM9.05835 21.119C9.05618 18.7155 9.77914 16.3673 11.1327 14.3812C12.4863 12.3951 14.4076 10.8636 16.6454 9.98673V32.2502C14.4074 31.374 12.4859 29.8427 11.1323 27.8567C9.7786 25.8708 9.05578 23.5225 9.05835 21.119V21.119ZM25.1057 32.2548V9.98558C27.3452 10.8612 29.2681 12.3926 30.6227 14.3794C31.9773 16.3661 32.7004 18.7156 32.6973 21.1202C32.6999 23.5247 31.9766 25.8739 30.6221 27.8606C29.2676 29.8473 27.3449 31.3788 25.1057 32.2548V32.2548Z" fill="white"/>
</svg>
