<svg width="47" height="47" viewBox="0 0 47 47" fill="none" xmlns="http://www.w3.org/2000/svg">
<path fill-rule="evenodd" clip-rule="evenodd" d="M46.2199 23.4702C46.2199 36.1958 35.9043 46.5119 23.1793 46.5119C10.4544 46.5119 0.138794 36.1958 0.138794 23.4702C0.138794 10.7447 10.4544 0.428558 23.1793 0.428558C35.9043 0.428558 46.2199 10.7447 46.2199 23.4702ZM28.7147 14.9094C31.9198 16.0101 34.2642 17.6582 33.8043 20.7253C33.4702 22.9713 32.2206 24.0575 30.5602 24.4379C32.8382 25.6192 33.6145 27.8612 32.8931 30.5721C31.5235 34.4734 28.2678 34.8019 23.9376 33.9865L22.8861 38.1802L20.3478 37.5492L21.3848 33.4117C20.7268 33.2489 20.0542 33.0745 19.3615 32.8887L18.3201 37.0464L15.7847 36.4154L16.8347 32.213L11.722 30.928L12.9832 28.0323C12.9832 28.0323 14.8547 28.5264 14.8287 28.4904C15.5475 28.6676 15.8672 28.2008 15.993 27.8911L18.8422 16.5086C18.874 15.9712 18.6875 15.2941 17.6591 15.0377C17.6982 15.0103 15.8151 14.581 15.8151 14.581L16.4905 11.8798L21.6105 13.1432L22.6518 8.98839L25.1886 9.61939L24.169 13.6921C24.8516 13.8462 25.5372 14.0033 26.2039 14.169L27.2164 10.1222L29.7546 10.7532L28.7147 14.9094ZM22.6413 21.8403C24.3703 22.2987 28.1327 23.2962 28.7885 20.6807C29.4576 18.0047 25.8022 17.1965 24.0125 16.8008L24.0124 16.8008C23.8096 16.756 23.6308 16.7164 23.4849 16.6801L22.2208 21.731C22.3412 21.7607 22.4827 21.7982 22.6413 21.8403ZM20.6822 29.9724C22.7532 30.5179 27.2825 31.711 28.0031 28.829C28.7408 25.8822 24.3494 24.9007 22.2067 24.4217C21.9673 24.3682 21.7559 24.321 21.583 24.278L20.1887 29.8446C20.3304 29.8797 20.4963 29.9235 20.682 29.9724L20.6822 29.9724L20.6822 29.9724Z" fill="#F7931A"/>
</svg>
