<svg width="72" height="30" viewBox="0 0 72 30" fill="none" xmlns="http://www.w3.org/2000/svg">
<path fill-rule="evenodd" clip-rule="evenodd" d="M9.84631 5.52273C11.1893 5.63602 12.5323 4.84301 13.3716 3.83759C14.197 2.80385 14.7426 1.41609 14.6027 0C13.4136 0.0566434 11.9447 0.793008 11.1053 1.82675C10.3359 2.71888 9.67843 4.16329 9.84631 5.52273ZM25.8221 23.7619V1.68513H34.0059C38.2306 1.68513 41.1824 4.63059 41.1824 8.93549C41.1824 13.2404 38.1747 16.2142 33.894 16.2142H29.2075V23.7619H25.8221ZM14.5886 5.79178C13.4054 5.72285 12.3259 6.15196 11.4539 6.49856C10.8927 6.72161 10.4175 6.91049 10.056 6.91049C9.65034 6.91049 9.15553 6.71151 8.59997 6.4881C7.87202 6.19536 7.03976 5.86068 6.167 5.87675C4.16653 5.90507 2.30595 7.0521 1.28473 8.87885C-0.813666 12.5323 0.739148 17.9418 2.7676 20.9156C3.76084 22.3883 4.94993 24.0026 6.51674 23.946C7.20603 23.9197 7.70188 23.7067 8.21503 23.4863C8.8058 23.2325 9.41952 22.9689 10.3778 22.9689C11.3028 22.9689 11.8897 23.2256 12.4531 23.4721C12.9887 23.7064 13.5032 23.9315 14.2668 23.9177C15.8896 23.8893 16.9108 22.4449 17.904 20.9722C18.9759 19.3916 19.4469 17.849 19.5184 17.6149L19.5268 17.5878C19.5251 17.586 19.5118 17.5799 19.4885 17.5691C19.1302 17.403 16.3915 16.1339 16.3652 12.7306C16.3388 9.87404 18.5375 8.42672 18.8836 8.19889C18.9046 8.18503 18.9188 8.17568 18.9253 8.1708C17.5263 6.075 15.344 5.84842 14.5886 5.79178ZM47.3658 23.9318C49.4922 23.9318 51.4647 22.8414 52.36 21.1138H52.4299V23.7619H55.5635V12.7731C55.5635 9.5869 53.0455 7.53357 49.1704 7.53357C45.5752 7.53357 42.9172 9.61522 42.8193 12.4757H45.8689C46.1208 11.1163 47.3658 10.2241 49.0725 10.2241C51.1429 10.2241 52.304 11.2012 52.304 12.9997V14.2175L48.0793 14.4724C44.1483 14.7131 42.0219 16.3416 42.0219 19.1738C42.0219 22.0343 44.2182 23.9318 47.3658 23.9318ZM48.2749 21.3121C46.4703 21.3121 45.3231 20.4341 45.3231 19.0888C45.3231 17.7011 46.4283 16.8939 48.5407 16.7665L52.3038 16.5257V17.7719C52.3038 19.8394 50.5691 21.3121 48.2749 21.3121ZM65.9575 24.6257C64.6005 28.4916 63.0477 29.7661 59.7462 29.7661C59.4944 29.7661 58.655 29.7378 58.4592 29.6812V27.0331C58.669 27.0614 59.1866 27.0897 59.4524 27.0897C60.9493 27.0897 61.7887 26.4525 62.3063 24.7957L62.614 23.8186L56.8784 7.746H60.4177L64.4047 20.7881H64.4746L68.4616 7.746H71.9029L65.9575 24.6257ZM29.2072 4.57395H33.1102C36.048 4.57395 37.7267 6.15997 37.7267 8.94965C37.7267 11.7393 36.048 13.3395 33.0963 13.3395H29.2072V4.57395Z" fill="#110229"/>
</svg>
