<svg width="65" height="40" viewBox="0 0 65 40" fill="none" xmlns="http://www.w3.org/2000/svg">
<path fill-rule="evenodd" clip-rule="evenodd" d="M32.7143 35.0198C29.3098 37.9578 24.8936 39.7313 20.0679 39.7313C9.3003 39.7313 0.571426 30.9011 0.571426 20.0085C0.571426 9.11591 9.3003 0.285706 20.0679 0.285706C24.8936 0.285706 29.3098 2.05928 32.7143 4.99722C36.1188 2.05928 40.535 0.285706 45.3606 0.285706C56.1283 0.285706 64.8571 9.11591 64.8571 20.0085C64.8571 30.9011 56.1283 39.7313 45.3606 39.7313C40.535 39.7313 36.1188 37.9578 32.7143 35.0198Z" fill="#ED0006"/>
<path fill-rule="evenodd" clip-rule="evenodd" d="M32.7143 35.0198C36.9063 31.4023 39.5644 26.0194 39.5644 20.0085C39.5644 13.9976 36.9063 8.61475 32.7143 4.99722C36.1188 2.05928 40.535 0.285706 45.3606 0.285706C56.1283 0.285706 64.8571 9.11591 64.8571 20.0085C64.8571 30.9011 56.1283 39.7313 45.3606 39.7313C40.535 39.7313 36.1188 37.9578 32.7143 35.0198Z" fill="#F9A000"/>
<path fill-rule="evenodd" clip-rule="evenodd" d="M32.7143 4.99731C36.9063 8.61484 39.5644 13.9977 39.5644 20.0085C39.5644 26.0194 36.9063 31.4022 32.7143 35.0198C28.5224 31.4022 25.8643 26.0194 25.8643 20.0085C25.8643 13.9977 28.5224 8.61484 32.7143 4.99731Z" fill="#FF5E00"/>
</svg>
