<svg width="80" height="26" viewBox="0 0 80 26" fill="none" xmlns="http://www.w3.org/2000/svg">
<path fill-rule="evenodd" clip-rule="evenodd" d="M50.2974 23.1283C50.8603 21.6989 52.1133 18.4956 51.5175 17.7194H51.5219C50.9287 16.9415 47.5991 17.3497 46.1015 17.5334L46.0983 17.5337C45.6427 17.5897 45.5726 17.1848 45.9822 16.8917C48.6414 14.9836 52.9982 15.5295 53.5042 16.1737C54.0102 16.8179 53.3662 21.2784 50.8757 23.4079C50.4924 23.7345 50.1265 23.56 50.2974 23.1283ZM32.4035 25.334C38.1951 25.334 44.9395 23.4661 49.5855 19.9653V19.9721C50.3543 19.3815 49.695 18.5136 48.9108 18.8536C43.8395 21.038 38.3958 22.1783 32.8919 22.209C25.256 22.209 17.8697 20.0705 11.8942 16.5205C11.3706 16.2095 10.9807 16.7576 11.4188 17.158C17.1716 22.4585 24.6553 25.3743 32.4035 25.334Z" fill="#FF9900"/>
<path fill-rule="evenodd" clip-rule="evenodd" d="M70.2743 14.8518H72.7408H72.743C73.001 14.8568 73.2154 14.6498 73.2249 14.3864V7.40496C73.2249 6.52808 73.2709 5.73621 73.617 4.94433C73.8546 4.34195 74.4143 3.93639 75.0496 3.9064C76.6272 3.9064 76.6121 5.67191 76.6002 7.05891C76.5992 7.17589 76.5982 7.29018 76.5982 7.40049V14.4446C76.6287 14.6706 76.8131 14.842 77.0363 14.8518H79.5247C79.7606 14.8568 79.9638 14.6828 80 14.4446V6.28202C80 5.0271 80 3.28006 79.3538 2.24212C78.6551 1.12365 77.573 0.714294 76.4646 0.714294C74.756 0.714294 73.7857 1.55986 73.0935 3.33374H73.0453V1.34958C72.9953 1.14216 72.8162 0.994051 72.6072 0.9872H70.3116C70.069 0.981106 69.8624 1.16588 69.8362 1.41222V14.3864C69.8394 14.6352 70.0311 14.8388 70.2743 14.8518ZM67.9525 8.04697C67.9525 3.95338 65.9658 0.732195 62.2924 0.732195C58.7132 0.732195 56.7264 3.89969 56.7264 7.91051C56.7264 11.9213 58.6891 15.1425 62.2924 15.1425C65.7621 15.1425 67.9525 12.0041 67.9525 8.04697ZM60.3757 7.50114C60.3757 5.9174 60.4918 3.38071 62.3164 3.38071C63.1006 3.38071 63.6548 3.74086 63.933 4.63563C64.2572 5.67133 64.3032 6.98218 64.3032 8.0738C64.3032 9.73808 64.2309 12.4671 62.2923 12.4671C60.3749 12.4671 60.3754 9.15832 60.3756 7.55363L60.3757 7.50114ZM14.0913 14.8787H16.5643H16.5665C16.6906 14.8815 16.8108 14.8339 16.9004 14.7461C16.99 14.6584 17.0417 14.5378 17.044 14.411V7.53691L17.044 7.42931C17.043 5.93465 17.0416 3.95782 18.7526 3.95782C20.3343 3.95782 20.3099 5.69471 20.2901 7.09731L20.2901 7.09762C20.288 7.2488 20.2859 7.3961 20.2859 7.53691V14.4132C20.2901 14.6616 20.4812 14.8645 20.724 14.8787H23.2036C23.3274 14.8809 23.447 14.833 23.5361 14.7453C23.6253 14.6576 23.6766 14.5374 23.6789 14.411V7.53691L23.6787 7.37347V7.37345C23.6772 6.64513 23.6752 5.66231 23.9111 5.05168C24.1517 4.4275 24.7332 4.00962 25.3897 3.98914C26.106 3.98914 26.6602 4.2352 26.8442 5.1076C26.9381 5.52748 26.9259 6.50084 26.9178 7.1463C26.9159 7.29863 26.9143 7.4327 26.9143 7.53691V14.4132C26.9174 14.662 27.1091 14.8656 27.3523 14.8787H29.8254C29.9495 14.8815 30.0697 14.8339 30.1593 14.7461C30.2489 14.6584 30.3006 14.5378 30.3029 14.411V6.22607C30.3029 6.02673 30.3063 5.82302 30.3097 5.61706V5.6169V5.61673V5.61656V5.6164C30.3299 4.39427 30.3515 3.09337 29.6786 2.15933C28.863 1.09982 27.5512 0.571851 26.247 0.778141C24.9429 0.984431 23.849 1.89292 23.3854 3.15476C22.691 1.51509 21.6988 0.752297 20.1742 0.752297C18.6496 0.752297 17.5172 1.51509 16.917 3.15476H16.871V1.4614C16.8579 1.22005 16.6692 1.02733 16.4329 1.01402H14.1263C13.8716 1.01145 13.6615 1.21707 13.6532 1.47706V14.4513C13.6756 14.6847 13.8619 14.8664 14.0913 14.8787ZM9.78699 14.977C9.6241 15.1213 9.39001 15.1455 9.20214 15.0374C8.50127 14.4419 8.28997 14.12 7.96548 13.6257L7.96543 13.6256C7.90962 13.5406 7.85047 13.4505 7.78491 13.353C6.42463 14.7667 5.46302 15.1895 3.70407 15.1895C1.62094 15.1895 0 13.8764 0 11.2503C0 9.19902 1.09523 7.80541 2.62856 7.12091C3.76079 6.61351 5.27148 6.45603 6.57754 6.31988C6.82038 6.29456 7.05615 6.26998 7.2811 6.24403V5.91744C7.2811 5.85514 7.28159 5.79166 7.28209 5.72735L7.28209 5.72721C7.28642 5.17034 7.29124 4.55036 6.98101 4.08315C6.67872 3.61787 6.10482 3.42773 5.59225 3.42773C4.64816 3.42773 3.80703 3.92209 3.60112 4.94437C3.57503 5.18284 3.39534 5.37368 3.16303 5.40965L0.784186 5.14346C0.665482 5.1261 0.558935 5.05981 0.489393 4.96004C0.419851 4.86028 0.393392 4.73577 0.416188 4.61554C0.965994 1.64489 3.59455 0.747885 5.9493 0.747885C7.15405 0.747885 8.72681 1.07448 9.67309 2.00504C10.7839 3.06714 10.7771 4.45755 10.7696 5.97702V5.97727V5.97752V5.97777V5.97803V5.97829C10.7689 6.10332 10.7683 6.22922 10.7683 6.35588V10.2906C10.7683 11.3503 11.1533 11.8775 11.5589 12.4327L11.5589 12.4327L11.5589 12.4328L11.5589 12.4328L11.5589 12.4328L11.559 12.4328C11.6071 12.4988 11.6555 12.5651 11.7036 12.6327C11.8614 12.8564 11.8964 13.136 11.7036 13.3038C11.1976 13.7355 10.2996 14.5319 9.8067 14.9815L9.78699 14.977ZM7.29201 8.81647L7.29208 8.93896C7.29295 9.8694 7.29369 10.6584 6.82982 11.5008C6.43553 12.2121 5.81125 12.6506 5.11469 12.6506C4.16621 12.6506 3.61203 11.9124 3.61203 10.8163C3.61203 8.66436 5.5024 8.27289 7.29201 8.27289V8.81647ZM43.9907 12.4235L43.9909 12.4237C44.0391 12.4897 44.0875 12.556 44.1357 12.6237C44.3022 12.8564 44.3372 13.1293 44.1247 13.2836C43.6187 13.7154 42.7206 14.5139 42.2278 14.9613C42.0639 15.1036 41.8306 15.1268 41.6429 15.0195C40.9391 14.4214 40.7306 14.1043 40.4014 13.6035C40.3464 13.5199 40.2881 13.4311 40.2235 13.3351C38.8654 14.7488 37.8972 15.1716 36.1449 15.1716C34.0617 15.1716 32.4408 13.8585 32.4408 11.2346C32.4408 9.18109 33.5295 7.78749 35.0803 7.10298C36.215 6.59366 37.7342 6.43691 39.044 6.30176L39.0441 6.30176L39.0441 6.30175L39.0442 6.30175L39.0445 6.30171C39.282 6.2772 39.5127 6.25341 39.7329 6.22834V5.90846C39.7329 5.84643 39.7333 5.78322 39.7338 5.71918C39.7382 5.1621 39.743 4.54188 39.4306 4.07642C39.1371 3.61113 38.5522 3.41876 38.0418 3.41876C37.0977 3.41876 36.261 3.91312 36.0529 4.9354C36.0261 5.17352 35.8467 5.36398 35.6148 5.40068L33.2162 5.13672C33.0967 5.11997 32.9892 5.05358 32.9191 4.95324C32.849 4.85289 32.8226 4.72747 32.846 4.60657C33.398 1.63369 36.0266 0.738913 38.3813 0.738913C39.5839 0.738913 41.1567 1.0655 42.1051 1.99607C43.2183 3.05267 43.2105 4.43231 43.2019 5.94402C43.2011 6.07733 43.2004 6.21167 43.2004 6.3469V10.2839C43.2004 11.3414 43.5852 11.8683 43.9907 12.4235ZM37.5599 12.6371C38.2543 12.6371 38.8808 12.1987 39.2729 11.4896C39.7383 10.6426 39.7379 9.84986 39.7373 8.90779L39.7372 8.80749V8.26168C37.9476 8.26168 36.0573 8.65091 36.0573 10.8051C36.0573 11.8989 36.6114 12.6371 37.5599 12.6371ZM46.2297 1.43232V3.28002C46.2284 3.40677 46.278 3.52852 46.367 3.61687C46.456 3.70522 46.5766 3.75245 46.7006 3.74754H50.9589L46.0763 10.9057C45.8535 11.2897 45.7482 11.733 45.774 12.1785V14.0688C45.774 14.3417 46.0697 14.6526 46.3523 14.4982C49.0452 13.0723 52.2476 13.0665 54.9455 14.4826C55.2544 14.6459 55.5457 14.3305 55.5457 14.0576V12.0712C55.5374 11.7674 55.3701 11.4916 55.1076 11.3486C53.686 10.5322 52.0322 10.2928 50.4682 10.3308L54.6827 4.18822C55.0747 3.63793 55.2938 3.28897 55.2938 3.02278V1.43232C55.2951 1.30597 55.2457 1.18459 55.1572 1.09631C55.0687 1.00803 54.9487 0.96052 54.825 0.964799H46.6918C46.568 0.957697 46.4471 1.00451 46.359 1.09363C46.2709 1.18275 46.2239 1.30582 46.2297 1.43232Z" fill="#110229"/>
</svg>
