<svg width="72" height="27" viewBox="0 0 72 27" fill="none" xmlns="http://www.w3.org/2000/svg">
<path fill-rule="evenodd" clip-rule="evenodd" d="M42.8875 10.8229H46.1616C47.1997 10.7854 47.831 10.7055 48.0583 10.5803C48.3687 10.4093 48.577 10.0671 48.6807 9.55369C48.747 9.21197 48.7801 8.70402 48.7801 8.02912C48.7801 7.20246 48.7143 6.58969 48.582 6.1894C48.393 5.62881 47.9406 5.28733 47.224 5.1633C47.0825 5.14457 46.7432 5.13461 46.2058 5.13461H42.8875V10.8229ZM37.6355 20.404V0.857147H47.4201C48.7621 0.857147 49.7863 0.966942 50.4898 1.1863C52.0992 1.6914 53.1789 2.72556 53.7319 4.28854C54.0174 5.10881 54.1602 6.34383 54.1602 7.99289C54.1602 9.97561 54.0018 11.4006 53.6886 12.268C53.061 13.9835 51.7692 14.9716 49.8184 15.2278C49.5891 15.2662 48.613 15.3006 46.8903 15.3281L46.0184 15.3572H42.8873V20.404H37.6355ZM11.2646 7.09247H16.1503C16.1818 6.66064 16.1977 6.33766 16.1977 6.12162C16.1977 3.48772 15.1347 1.8849 13.0086 1.31269C12.1374 1.07863 10.676 0.960537 8.62544 0.960537C7.32292 0.960537 6.13877 1.0082 5.07132 1.1014C3.78845 1.20479 2.7345 1.55078 1.9109 2.14006C1.34865 2.52399 0.941228 3.0853 0.688394 3.8247C0.435796 4.56386 0.309379 5.54656 0.309379 6.77209C0.309379 8.38132 0.543274 9.58432 1.01083 10.3794C1.54277 11.3152 2.6088 11.9315 4.20842 12.2313C4.81589 12.3354 5.90061 12.4428 7.46212 12.5545C9.40667 12.6856 10.4961 12.789 10.7303 12.8632C11.3564 13.0511 11.6701 13.5747 11.6701 14.4352C11.6701 14.8194 11.6329 15.1334 11.5581 15.376C11.4173 15.7701 11.1225 16.0549 10.6734 16.2318C10.4211 16.3262 9.83611 16.3731 8.91947 16.3731H7.12335C6.64514 16.3627 6.23843 16.2747 5.90156 16.1071C5.41554 15.864 5.17194 15.3181 5.17194 14.4694L5.17176 14.3291V14.3291V14.329C5.17162 14.2544 5.17146 14.1656 5.17146 14.0629H0.285706C0.285706 15.6534 0.401943 16.7895 0.636785 17.4718C1.05841 18.6973 1.9296 19.5112 3.25106 19.9129C4.32774 20.2409 6.23464 20.404 8.97084 20.404C10.61 20.404 11.8287 20.3288 12.6253 20.1785C14.5268 19.823 15.7488 18.9767 16.2928 17.6366C16.593 16.9062 16.7429 15.7537 16.7429 14.1801C16.7429 13.4973 16.7102 12.8829 16.6444 12.3399C16.5319 11.4321 16.1795 10.697 15.5883 10.1345C14.8372 9.41358 13.6265 8.96871 11.9566 8.8001C11.4305 8.7439 10.1117 8.64502 7.99999 8.50463L7.01469 8.43491C6.58217 8.40693 6.23535 8.31326 5.97282 8.1539C5.60635 7.92933 5.42359 7.46075 5.42359 6.74909C5.42359 5.96298 5.63002 5.45242 6.04242 5.21765C6.45505 4.98359 7.30067 4.86669 8.5762 4.86669C9.88961 4.86669 10.6921 5.06991 10.9829 5.47589C11.1704 5.75026 11.2646 6.28928 11.2646 7.09247ZM0.304235 24.2805L1.0367 24.2065C1.08073 24.4539 1.17021 24.6353 1.30492 24.7515C1.43986 24.8674 1.62167 24.9253 1.85059 24.9253C2.09301 24.9253 2.27554 24.8738 2.39864 24.7709C2.5215 24.6678 2.58282 24.5473 2.58282 24.4093C2.58282 24.3208 2.55701 24.2457 2.50564 24.1833C2.45403 24.1212 2.36407 24.0673 2.23553 24.0211C2.14746 23.991 1.94718 23.9369 1.63445 23.8591C1.23177 23.7595 0.949577 23.6367 0.787176 23.4908C0.558962 23.286 0.444856 23.036 0.444856 22.741C0.444856 22.5515 0.498595 22.3739 0.60631 22.2089C0.713788 22.0436 0.869087 21.9177 1.0715 21.8314C1.27414 21.745 1.51869 21.7016 1.80514 21.7016C2.27293 21.7016 2.62496 21.8048 2.86146 22.0106C3.09796 22.2167 3.22201 22.4915 3.23384 22.8354L2.47936 22.865C2.44717 22.673 2.37804 22.5349 2.27198 22.4505C2.16616 22.3663 2.00731 22.3241 1.79543 22.3241C1.57669 22.3241 1.40577 22.3692 1.28195 22.4593C1.20217 22.5169 1.1624 22.5942 1.1624 22.691C1.1624 22.7794 1.19981 22.8548 1.27438 22.9179C1.36907 22.9976 1.59942 23.0808 1.96541 23.1669C2.33117 23.2532 2.60176 23.3426 2.77718 23.4356C2.95236 23.5283 3.08967 23.6552 3.18886 23.816C3.28782 23.9772 3.33753 24.1759 3.33753 24.4126C3.33753 24.6275 3.27811 24.8283 3.15927 25.0156C3.04043 25.203 2.87258 25.3422 2.6555 25.4332C2.43841 25.5243 2.16782 25.5701 1.84373 25.5701C1.37215 25.5701 1.00994 25.4603 0.75711 25.2407C0.504513 25.0211 0.353476 24.7012 0.304235 24.2805ZM4.11972 22.7984H4.83727V25.5032H4.11972V22.7984ZM4.11972 21.7683H4.83726V22.428H4.11972V21.7683ZM7.46876 25.5032H8.1863V23.8188C8.1863 23.6097 8.17305 23.4489 8.14677 23.3367C8.12049 23.2243 8.07385 23.124 8.00686 23.0355C7.93986 22.9471 7.84114 22.8743 7.7107 22.8174C7.58026 22.7605 7.43609 22.7318 7.27842 22.7318C6.92095 22.7318 6.62408 22.8864 6.38853 23.1959V22.7984H5.72283V25.5032H6.44037V24.2755C6.44037 23.9725 6.45837 23.765 6.49482 23.6528C6.53104 23.5404 6.59804 23.4503 6.69605 23.3822C6.79406 23.3142 6.90461 23.28 7.02795 23.28C7.12407 23.28 7.20645 23.304 7.27487 23.3514C7.34329 23.3991 7.39253 23.4662 7.42307 23.552C7.45337 23.6379 7.46876 23.8271 7.46876 24.1197V25.5032ZM9.63747 24.0925C9.63747 24.3804 9.69239 24.5912 9.80271 24.7247C9.9128 24.8587 10.0487 24.9253 10.2104 24.9253C10.3834 24.9253 10.5297 24.8568 10.6493 24.7197C10.7686 24.5827 10.8285 24.3794 10.8285 24.1103C10.8285 23.8295 10.7712 23.6208 10.6569 23.4845C10.5423 23.3484 10.3979 23.2801 10.2229 23.2801C10.0529 23.2801 9.9128 23.3472 9.80271 23.4807C9.69239 23.6147 9.63747 23.8184 9.63747 24.0925ZM8.99392 25.6811L9.80758 25.77C9.82131 25.8708 9.8528 25.94 9.90204 25.978C9.97022 26.032 10.0775 26.0591 10.2238 26.0591C10.411 26.0591 10.5514 26.0311 10.6452 25.9751C10.7079 25.9377 10.7557 25.8774 10.7881 25.7942C10.8102 25.7344 10.8213 25.6251 10.8213 25.4653L10.8234 25.0704C10.6118 25.359 10.3433 25.5032 10.0176 25.5032C9.65418 25.5032 9.36678 25.3495 9.15466 25.0415C8.98824 24.7982 8.90514 24.4951 8.90514 24.1328C8.90514 23.6784 9.01404 23.3315 9.23208 23.0915C9.45011 22.8518 9.72141 22.7318 10.0455 22.7318C10.3798 22.7318 10.6556 22.879 10.8729 23.1731V22.7984H11.5388V25.2298C11.5388 25.5497 11.5126 25.7887 11.4598 25.9467C11.4072 26.1051 11.3333 26.2291 11.2382 26.3192C11.143 26.4093 11.0161 26.48 10.8573 26.531C10.6984 26.582 10.4977 26.6076 10.255 26.6076C9.79646 26.6076 9.47118 26.5284 9.27919 26.3702C9.08719 26.212 8.99132 26.0114 8.99132 25.7683C8.99132 25.7444 8.99226 25.7155 8.99392 25.6811ZM13.1156 21.7683H12.398V25.5032H13.1156V21.7683ZM15.614 23.9248C15.609 23.7143 15.5553 23.5544 15.4527 23.4446C15.3505 23.3351 15.226 23.2801 15.0792 23.2801C14.9222 23.2801 14.7925 23.3382 14.6902 23.4536C14.5877 23.5691 14.5375 23.7264 14.5392 23.9248H15.614ZM15.5771 24.6512L16.2873 24.7697C16.1954 25.0304 16.0503 25.2291 15.8521 25.3654C15.654 25.502 15.4059 25.5701 15.1083 25.5701C14.637 25.5701 14.2883 25.4157 14.0622 25.1072C13.8834 24.8601 13.7942 24.5483 13.7942 24.1712C13.7942 23.7216 13.9114 23.369 14.1462 23.114C14.3808 22.8591 14.6775 22.7318 15.0361 22.7318C15.4393 22.7318 15.7572 22.8655 15.9902 23.1328C16.2231 23.4005 16.3344 23.81 16.3242 24.3621H14.5267C14.5316 24.5751 14.5899 24.7406 14.7011 24.8591C14.8124 24.9772 14.9511 25.0365 15.1173 25.0365C15.2302 25.0365 15.3254 25.0062 15.4023 24.9452C15.4793 24.8845 15.5378 24.7863 15.5771 24.6512ZM18.6719 21.7683V25.5032H21.5054V24.8734H19.4267V23.8582H21.291V23.2284H19.4267V22.3984H21.4316V21.7683H18.6719ZM24.0703 25.5032V25.0981C23.9716 25.2426 23.8421 25.3573 23.6814 25.4425C23.5206 25.5274 23.3511 25.57 23.1726 25.57C22.9906 25.57 22.8277 25.53 22.6831 25.4501C22.5387 25.3701 22.434 25.2577 22.3694 25.1133C22.3048 24.9687 22.2726 24.7688 22.2726 24.5136V22.7984H22.9901V24.0424C22.9901 24.4232 23.0031 24.6566 23.0296 24.7422C23.0559 24.8285 23.1037 24.8963 23.1733 24.9466C23.2429 24.9966 23.331 25.0215 23.438 25.0215C23.5602 25.0215 23.6698 24.9883 23.7664 24.921C23.8632 24.8539 23.9292 24.7707 23.965 24.6711C24.0005 24.5717 24.0185 24.3282 24.0185 23.9407V22.7984H24.736V25.5032H24.0703ZM25.5954 25.5032H26.3129V24.6668C26.3129 24.2063 26.3331 23.9035 26.3731 23.7591C26.4131 23.6146 26.468 23.5148 26.5378 23.4593C26.6077 23.4043 26.6927 23.3766 26.7933 23.3766C26.897 23.3766 27.0097 23.4157 27.1304 23.4937L27.3487 22.8674C27.1976 22.7771 27.0404 22.7318 26.8776 22.7318C26.762 22.7318 26.659 22.7617 26.5681 22.8212C26.4772 22.8809 26.375 23.0014 26.2611 23.1831V22.7984H25.5954V25.5032ZM28.3705 24.1509C28.3705 24.4205 28.4342 24.6266 28.5618 24.7698C28.6894 24.913 28.8466 24.9846 29.0338 24.9846C29.2208 24.9846 29.3778 24.913 29.5045 24.7698C29.6311 24.6266 29.6946 24.4186 29.6946 24.1459C29.6946 23.88 29.6311 23.6752 29.5045 23.5322C29.3778 23.3889 29.2208 23.3173 29.0338 23.3173C28.8466 23.3173 28.6894 23.3889 28.5618 23.5322C28.4342 23.6752 28.3705 23.8817 28.3705 24.1509ZM27.6381 24.1124C27.6381 23.8738 27.6965 23.6429 27.8137 23.4195C27.9307 23.1963 28.0964 23.0258 28.3111 22.9082C28.5256 22.7906 28.7654 22.7318 29.0301 22.7318C29.4389 22.7318 29.7739 22.865 30.0353 23.1318C30.2964 23.3986 30.4271 23.7358 30.4271 24.1432C30.4271 24.5539 30.295 24.8947 30.0312 25.1648C29.7675 25.4349 29.4354 25.5701 29.035 25.5701C28.7874 25.5701 28.5512 25.5137 28.3265 25.4015C28.1016 25.2888 27.9307 25.124 27.8137 24.9066C27.6965 24.6891 27.6381 24.4247 27.6381 24.1124ZM33.5181 23.4655V22.3984H33.8807C34.1516 22.3984 34.3315 22.4069 34.4212 22.424C34.5429 22.4463 34.6435 22.5018 34.723 22.5907C34.8026 22.6796 34.8424 22.7925 34.8424 22.9293C34.8424 23.0406 34.8139 23.138 34.7574 23.2217C34.7008 23.3057 34.6224 23.3673 34.5228 23.4067C34.4229 23.4461 34.2249 23.4655 33.929 23.4655H33.5181ZM32.7636 21.7683V25.5032H33.5181V24.0953H34.0086C34.3488 24.0953 34.6087 24.0775 34.7884 24.0417C34.9205 24.0128 35.0505 23.954 35.1783 23.8646C35.3062 23.7754 35.4118 23.6526 35.4946 23.4966C35.5777 23.3398 35.6191 23.1473 35.6191 22.9179C35.6191 22.6206 35.5472 22.378 35.403 22.1904C35.2588 22.0026 35.0801 21.8805 34.8666 21.8245C34.7276 21.7873 34.4291 21.7683 33.9715 21.7683H32.7636ZM37.8735 24.2066C37.7819 24.2374 37.6373 24.2739 37.4394 24.3166C37.2414 24.359 37.1119 24.401 37.0513 24.4418C36.9581 24.5084 36.9119 24.5929 36.9119 24.6951C36.9119 24.7959 36.9488 24.8826 37.0232 24.9562C37.0977 25.0294 37.1924 25.0662 37.3077 25.0662C37.4363 25.0662 37.5587 25.0235 37.6756 24.9384C37.7618 24.8734 37.8186 24.7942 37.8456 24.7003C37.8641 24.6389 37.8735 24.522 37.8735 24.3496V24.2066ZM36.912 23.621L36.2683 23.5025C36.3412 23.2404 36.4667 23.0467 36.6447 22.9208C36.823 22.7949 37.0876 22.7318 37.4387 22.7318C37.7576 22.7318 37.9953 22.7697 38.1513 22.8451C38.3073 22.9212 38.4174 23.0173 38.4808 23.1337C38.5445 23.2502 38.5765 23.4643 38.5765 23.7757L38.5691 24.6128C38.5691 24.8508 38.5805 25.0268 38.6032 25.1397C38.6262 25.2528 38.669 25.374 38.7318 25.5032H38.0216C38.0026 25.4565 37.9799 25.387 37.9527 25.295C37.9408 25.253 37.9323 25.2255 37.9276 25.212C37.8054 25.3313 37.675 25.4209 37.536 25.4807C37.3971 25.5402 37.2491 25.5701 37.0914 25.5701C36.8135 25.5701 36.5943 25.4942 36.4343 25.3429C36.2742 25.1914 36.1942 24.9998 36.1942 24.7683C36.1942 24.6154 36.2307 24.4788 36.3033 24.3588C36.3765 24.2388 36.4788 24.1468 36.6101 24.083C36.7418 24.0194 36.9314 23.9632 37.179 23.9156C37.5131 23.8527 37.7446 23.7942 37.8736 23.7396V23.6673C37.8736 23.5279 37.8395 23.4285 37.7713 23.369C37.7029 23.3097 37.5744 23.28 37.385 23.28C37.2571 23.28 37.1575 23.3054 37.0858 23.3557C37.014 23.4062 36.956 23.4946 36.912 23.621ZM39.8535 22.7984H39.0917L40.1212 25.5108C40.0786 25.6635 40.0173 25.7894 39.937 25.8885C39.8568 25.9872 39.7335 26.0367 39.5661 26.0367C39.4759 26.0367 39.3741 26.0258 39.2616 26.0033L39.3284 26.5641C39.4607 26.5931 39.5961 26.6075 39.7337 26.6075C39.8696 26.6075 39.9915 26.5931 40.0994 26.5639C40.2074 26.5352 40.2978 26.4944 40.3719 26.4425C40.4458 26.3908 40.5114 26.323 40.5682 26.2397C40.625 26.1563 40.6849 26.0356 40.7479 25.8771L41.8733 22.7984H41.1335L40.501 24.7187L39.8535 22.7984ZM42.4327 22.7984H43.0911V23.1679C43.3276 22.8771 43.6091 22.7318 43.9358 22.7318C44.1091 22.7318 44.2596 22.7673 44.3872 22.8387C44.5148 22.9103 44.6195 23.0185 44.7009 23.1629C44.8197 23.0185 44.9483 22.9103 45.0856 22.8387C45.2234 22.7673 45.3699 22.7318 45.5262 22.7318C45.725 22.7318 45.8931 22.7721 46.0306 22.8532C46.1682 22.9336 46.2712 23.0524 46.3391 23.2091C46.3881 23.3246 46.4127 23.5117 46.4127 23.7704V25.5032H45.6952V23.954C45.6952 23.6851 45.6706 23.5117 45.6216 23.4335C45.5553 23.331 45.4537 23.28 45.3166 23.28C45.2165 23.28 45.1223 23.3106 45.0342 23.372C44.9462 23.4335 44.8827 23.5231 44.8439 23.6414C44.8048 23.7595 44.7852 23.9464 44.7852 24.2016V25.5032H44.0676V24.018C44.0676 23.7538 44.0551 23.5841 44.0295 23.5072C44.0042 23.4306 43.9649 23.3737 43.9114 23.3362C43.8579 23.299 43.7857 23.28 43.6941 23.28C43.584 23.28 43.4848 23.3099 43.3967 23.3694C43.3087 23.429 43.2457 23.515 43.2073 23.6272C43.1692 23.7396 43.1503 23.9258 43.1503 24.1861V25.5032H42.4327V22.7984ZM48.7231 23.4446C48.8259 23.5544 48.8794 23.7143 48.8846 23.9248H47.8098C47.8081 23.7264 47.8583 23.5691 47.9608 23.4536C48.0629 23.3382 48.1928 23.2801 48.3496 23.2801C48.4963 23.2801 48.6211 23.3351 48.7231 23.4446ZM49.5579 24.7697L48.8477 24.6512C48.8084 24.7863 48.7501 24.8845 48.6727 24.9452C48.5958 25.0062 48.5008 25.0365 48.3879 25.0365C48.2215 25.0365 48.0828 24.9772 47.9717 24.8591C47.8605 24.7406 47.8022 24.5751 47.797 24.3621H49.5948C49.605 23.81 49.4935 23.4005 49.2605 23.1328C49.0276 22.8655 48.7099 22.7318 48.3067 22.7318C47.9478 22.7318 47.6514 22.8591 47.4166 23.114C47.1822 23.369 47.0646 23.7216 47.0646 24.1712C47.0646 24.5483 47.1538 24.8601 47.3325 25.1072C47.5589 25.4157 47.9076 25.5701 48.3787 25.5701C48.6765 25.5701 48.9244 25.502 49.1227 25.3654C49.3209 25.2291 49.4658 25.0304 49.5579 24.7697ZM52.7881 25.5032H52.0706V24.1197C52.0706 23.8271 52.0552 23.6379 52.0251 23.552C51.9946 23.4662 51.9451 23.3991 51.8767 23.3514C51.8083 23.304 51.7259 23.28 51.6298 23.28C51.5067 23.28 51.3959 23.3142 51.2981 23.3822C51.2001 23.4503 51.1331 23.5404 51.0966 23.6528C51.0604 23.765 51.0422 23.9725 51.0422 24.2755V25.5032H50.3246V22.7984H50.9903V23.1959C51.2261 22.8864 51.5228 22.7318 51.8802 22.7318C52.0379 22.7318 52.1823 22.7605 52.3125 22.8174C52.443 22.8743 52.5419 22.9471 52.6089 23.0355C52.6759 23.124 52.7223 23.2243 52.7486 23.3367C52.7751 23.4489 52.7881 23.6097 52.7881 23.8188V25.5032ZM54.9054 23.369V22.7984H54.417V21.8351L53.6994 22.2575V22.7984H53.3739V23.369H53.6994V24.5513C53.6994 24.8048 53.7068 24.9734 53.7221 25.0569C53.7406 25.1743 53.7738 25.2675 53.8218 25.3363C53.8701 25.4053 53.9456 25.4617 54.0484 25.5049C54.1513 25.5483 54.2666 25.5701 54.3952 25.5701C54.6042 25.5701 54.7915 25.5343 54.957 25.4629L54.8942 24.9085C54.7707 24.9542 54.6769 24.9772 54.6116 24.9772C54.5649 24.9772 54.5256 24.9651 54.493 24.9414C54.4605 24.9175 54.4397 24.8874 54.4307 24.8506C54.4215 24.8141 54.417 24.6848 54.417 24.4634V23.369H54.9054ZM55.3088 24.7401L56.0264 24.6289C56.0569 24.7671 56.1187 24.872 56.2117 24.9438C56.305 25.0157 56.4352 25.0512 56.6028 25.0512C56.7877 25.0512 56.9267 25.0171 57.0197 24.9488C57.0825 24.9006 57.1139 24.8369 57.1139 24.7562C57.1139 24.7017 57.0967 24.6562 57.0626 24.6206C57.0266 24.5862 56.9466 24.5547 56.822 24.5255C56.2423 24.3972 55.8746 24.2803 55.7198 24.1748C55.5048 24.0285 55.3976 23.8247 55.3976 23.5646C55.3976 23.3294 55.4902 23.1318 55.676 22.972C55.8621 22.8119 56.1502 22.7318 56.5406 22.7318C56.9122 22.7318 57.1883 22.7918 57.3691 22.9115C57.5498 23.0315 57.6743 23.2087 57.7427 23.4432L57.0694 23.5691C57.0403 23.4641 56.9849 23.3832 56.9035 23.3272C56.8218 23.271 56.7056 23.243 56.5548 23.243C56.3644 23.243 56.2278 23.2694 56.1457 23.3227C56.0905 23.3602 56.0633 23.4088 56.0633 23.4686C56.0633 23.52 56.087 23.5637 56.1348 23.5997C56.1994 23.6474 56.4231 23.715 56.8055 23.8022C57.1878 23.8895 57.4548 23.9962 57.6066 24.1226C57.7562 24.2506 57.8315 24.4292 57.8315 24.6581C57.8315 24.9073 57.7278 25.1217 57.5211 25.3009C57.314 25.4805 57.0081 25.5701 56.6028 25.5701C56.2352 25.5701 55.944 25.4954 55.7295 25.3467C55.515 25.1975 55.3749 24.9957 55.3088 24.7401ZM61.6774 22.6429L62.1987 24.0287H61.1737L61.6774 22.6429ZM62.77 25.5032H63.5825L62.0769 21.7683H61.2833L59.839 25.5032H60.6375L60.9448 24.6585H62.4476L62.77 25.5032ZM64.814 25.5032H64.0965V22.7984H64.7622V23.1831C64.8761 23.0014 64.9781 22.8809 65.0692 22.8212C65.1599 22.7617 65.2629 22.7318 65.3787 22.7318C65.5415 22.7318 65.6985 22.7771 65.8498 22.8674L65.6315 23.4937C65.5105 23.4157 65.3981 23.3766 65.2944 23.3766C65.1935 23.3766 65.1085 23.4043 65.0387 23.4593C64.9689 23.5148 64.9139 23.6146 64.8742 23.7591C64.8339 23.9035 64.814 24.2063 64.814 24.6668V25.5032ZM67.7608 23.4446C67.8631 23.5544 67.9168 23.7143 67.922 23.9248H66.8473C66.8454 23.7264 66.8958 23.5691 66.9983 23.4536C67.1006 23.3382 67.2301 23.2801 67.3873 23.2801C67.5338 23.2801 67.6583 23.3351 67.7608 23.4446ZM68.5952 24.7697L67.885 24.6512C67.8455 24.7863 67.7873 24.8845 67.7103 24.9452C67.6331 25.0062 67.5382 25.0365 67.4251 25.0365C67.2591 25.0365 67.1204 24.9772 67.0089 24.8591C66.8979 24.7406 66.8396 24.5751 66.8344 24.3621H68.6322C68.6423 23.81 68.5308 23.4005 68.2981 23.1328C68.0649 22.8655 67.747 22.7318 67.3441 22.7318C66.9854 22.7318 66.6886 22.8591 66.4542 23.114C66.2194 23.369 66.1019 23.7216 66.1019 24.1712C66.1019 24.5483 66.1912 24.8601 66.3699 25.1072C66.596 25.4157 66.945 25.5701 67.4163 25.5701C67.7139 25.5701 67.962 25.502 68.1601 25.3654C68.3583 25.2291 68.5034 25.0304 68.5952 24.7697ZM70.8565 24.2066C70.7651 24.2374 70.6202 24.2739 70.4223 24.3166C70.2244 24.359 70.0951 24.401 70.0343 24.4418C69.941 24.5084 69.8949 24.5929 69.8949 24.6951C69.8949 24.7959 69.9318 24.8826 70.0064 24.9562C70.0807 25.0294 70.1754 25.0662 70.2907 25.0662C70.4192 25.0662 70.5416 25.0235 70.6586 24.9384C70.7447 24.8734 70.8015 24.7942 70.8285 24.7003C70.847 24.6389 70.8565 24.522 70.8565 24.3496V24.2066ZM69.8948 23.621L69.2511 23.5025C69.324 23.2404 69.4495 23.0467 69.6275 22.9208C69.8057 22.7949 70.0704 22.7318 70.4215 22.7318C70.7404 22.7318 70.9781 22.7697 71.1341 22.8451C71.2901 22.9212 71.4002 23.0173 71.4636 23.1337C71.5273 23.2502 71.5592 23.4643 71.5592 23.7757L71.5519 24.6128C71.5519 24.8508 71.5633 25.0268 71.586 25.1397C71.609 25.2528 71.6518 25.374 71.7143 25.5032H71.0043C70.9854 25.4565 70.9629 25.387 70.9354 25.295C70.9239 25.253 70.9151 25.2255 70.9104 25.212C70.7882 25.3313 70.658 25.4209 70.519 25.4807C70.3801 25.5402 70.2319 25.5701 70.0742 25.5701C69.7963 25.5701 69.5771 25.4942 69.417 25.3429C69.2572 25.1914 69.1772 24.9998 69.1772 24.7683C69.1772 24.6154 69.2134 24.4788 69.2863 24.3588C69.3593 24.2388 69.4615 24.1468 69.5929 24.083C69.7245 24.0194 69.9142 23.9632 70.1618 23.9156C70.4958 23.8527 70.7274 23.7942 70.8564 23.7396V23.6673C70.8564 23.5279 70.8223 23.4285 70.7541 23.369C70.6859 23.3097 70.5571 23.28 70.3678 23.28C70.2399 23.28 70.1403 23.3054 70.0685 23.3557C69.997 23.4062 69.9388 23.4946 69.8948 23.621ZM61.8667 4.74454L64.3274 13.2177H59.4788L61.8667 4.74454ZM58.3488 17.0257H65.3706L66.3725 20.404H71.6919L65.757 0.857147H57.8348L51.9718 20.404H57.4054L58.3488 17.0257Z" fill="#10298E"/>
<path fill-rule="evenodd" clip-rule="evenodd" d="M30.3869 3.6072C32.5531 3.6072 34.4862 4.60673 35.757 6.17232L36.8891 3.74094C35.1186 2.06461 32.7088 1.03116 30.051 1.03116C25.9129 1.03116 22.3729 3.53463 20.9201 7.07843H18.7125L17.4091 9.87762H20.2489C20.2276 10.1373 20.2139 10.3972 20.2139 10.6623C20.2139 10.9832 20.2305 11.3002 20.2622 11.6135H18.8349L17.5317 14.4136H20.9878C22.4821 17.8678 25.9777 20.2927 30.051 20.2927C32.1037 20.2927 34.0085 19.6767 35.5857 18.6242V15.1926C34.3156 16.641 32.4579 17.5564 30.3869 17.5564C27.9661 17.5564 25.8366 16.306 24.5966 14.4136H31.8339L33.1371 11.6135H23.5318C23.4823 11.2765 23.4558 10.9322 23.4558 10.5814C23.4558 10.3443 23.4681 10.1095 23.4908 9.87762H33.9448L35.2481 7.07843H24.3949C25.5952 5.00347 27.8288 3.6072 30.3869 3.6072" fill="#FFBE00"/>
</svg>
