<svg width="58" height="50" viewBox="0 0 58 50" fill="none" xmlns="http://www.w3.org/2000/svg">
<path fill-rule="evenodd" clip-rule="evenodd" d="M7.28573 34.5455H2.84112C2.53697 34.5455 2.2783 34.7666 2.23087 35.0667L0.433236 46.4641C0.397507 46.689 0.571674 46.8917 0.799795 46.8917H2.9217C3.22585 46.8917 3.48452 46.6707 3.53195 46.3699L4.01679 43.2959C4.06356 42.9949 4.32287 42.7741 4.62639 42.7741H6.0334C8.96123 42.7741 10.6509 41.3573 11.0924 38.5498C11.2912 37.3215 11.1008 36.3564 10.5254 35.6803C9.89386 34.9383 8.77326 34.5455 7.28573 34.5455ZM7.79852 38.7082C7.55551 40.3031 6.33692 40.3031 5.15866 40.3031H4.48795L4.95848 37.3245C4.98642 37.1446 5.14239 37.012 5.32438 37.012H5.63177C6.43439 37.012 7.1916 37.012 7.58288 37.4694C7.81596 37.7425 7.88754 38.1479 7.79852 38.7082ZM20.5718 38.6571H18.4434C18.262 38.6571 18.1053 38.7898 18.0773 38.9699L17.9832 39.5651L17.8343 39.3495C17.3736 38.6806 16.3462 38.4571 15.3206 38.4571C12.9685 38.4571 10.9597 40.2385 10.5684 42.7374C10.3651 43.9838 10.6542 45.1756 11.3612 46.0069C12.01 46.7711 12.9381 47.0896 14.0421 47.0896C15.9372 47.0896 16.9883 45.871 16.9883 45.871L16.8933 46.4626C16.8575 46.6887 17.0316 46.8914 17.2584 46.8914H19.1757C19.4807 46.8914 19.7378 46.6704 19.7859 46.3696L20.9363 39.0848C20.9727 38.8607 20.7992 38.6571 20.5718 38.6571ZM17.6049 42.7997C17.3994 44.0156 16.4343 44.8319 15.2036 44.8319C14.5856 44.8319 14.0915 44.6337 13.7745 44.258C13.4599 43.8851 13.3402 43.354 13.4403 42.7627C13.6322 41.557 14.6136 40.7143 15.8256 40.7143C16.4298 40.7143 16.9212 40.9149 17.2449 41.2938C17.5691 41.6767 17.6978 42.2108 17.6049 42.7997ZM29.7685 38.6568H31.9074C32.207 38.6568 32.3817 38.9928 32.2115 39.2385L25.0978 49.5068C24.9826 49.6731 24.7928 49.772 24.5901 49.772H22.4539C22.1531 49.772 21.9775 49.4334 22.1516 49.1871L24.3667 46.0604L22.0109 39.1467C21.9294 38.9064 22.1068 38.6568 22.3625 38.6568H24.4641C24.7372 38.6568 24.9781 38.8361 25.0569 39.0974L26.3071 43.2731L29.2572 38.9278C29.3727 38.7582 29.5646 38.6568 29.7685 38.6568Z" fill="#253B80"/>
<path fill-rule="evenodd" clip-rule="evenodd" d="M52.9584 46.464L54.7825 34.8582C54.8105 34.6781 54.9666 34.5455 55.1479 34.5449H57.2015C57.4282 34.5449 57.6024 34.7482 57.5666 34.9731L55.7678 46.3699C55.7208 46.6706 55.4622 46.8917 55.1575 46.8917H53.3236C53.0968 46.8917 52.9226 46.689 52.9584 46.464ZM38.9888 34.5455H34.5434C34.2399 34.5455 33.9812 34.7665 33.9337 35.0667L32.1361 46.464C32.1003 46.689 32.2745 46.8917 32.5015 46.8917H34.7825C34.9945 46.8917 35.1758 46.7371 35.2089 46.5265L35.719 43.2959C35.7659 42.9948 36.0252 42.7741 36.3286 42.7741H37.7349C40.6634 42.7741 42.3527 41.3572 42.7945 38.5497C42.9939 37.3214 42.8023 36.3563 42.2273 35.6802C41.596 34.9382 40.4763 34.5455 38.9888 34.5455ZM39.5016 38.7082C39.2592 40.3031 38.0405 40.3031 36.8616 40.3031H36.1915L36.6628 37.3244C36.6907 37.1446 36.8453 37.0119 37.0279 37.0119H37.3352C38.1373 37.0119 38.8952 37.0119 39.2862 37.4694C39.5196 37.7425 39.5906 38.1479 39.5016 38.7082ZM52.2736 38.6571H50.1467C49.9638 38.6571 49.8087 38.7897 49.7813 38.9698L49.6872 39.565L49.5377 39.3494C49.0769 38.6805 48.0502 38.4571 47.0246 38.4571C44.6724 38.4571 42.6643 40.2384 42.273 42.7374C42.0703 43.9837 42.3581 45.1756 43.0652 46.0068C43.7151 46.7711 44.642 47.0896 45.7461 47.0896C47.6411 47.0896 48.692 45.8709 48.692 45.8709L48.5972 46.4625C48.5614 46.6887 48.7356 46.8914 48.9638 46.8914H50.8802C51.1837 46.8914 51.4423 46.6703 51.4899 46.3695L52.6408 39.0847C52.676 38.8607 52.5019 38.6571 52.2736 38.6571ZM49.307 42.7996C49.1028 44.0156 48.1365 44.8318 46.9055 44.8318C46.2886 44.8318 45.7936 44.6336 45.4763 44.258C45.1617 43.885 45.0435 43.3539 45.1425 42.7626C45.3353 41.5569 46.3154 40.7142 47.5274 40.7142C48.132 40.7142 48.6231 40.9148 48.947 41.2937C49.2724 41.6766 49.4011 42.2107 49.307 42.7996Z" fill="#179BD7"/>
<path d="M23.7343 30.4682L24.2808 26.9975L23.0637 26.9692H17.2516L21.2907 1.35828C21.303 1.28095 21.3439 1.20886 21.4035 1.15768C21.463 1.10649 21.5394 1.07828 21.6188 1.07828H31.4189C34.6724 1.07828 36.9175 1.7553 38.0899 3.09158C38.6393 3.71846 38.9894 4.37353 39.1587 5.09444C39.3362 5.85089 39.3395 6.75462 39.1659 7.85688L39.1533 7.93733V8.64359L39.7031 8.95496C40.1659 9.20046 40.5335 9.48151 40.8156 9.80332C41.2859 10.3393 41.59 11.0205 41.7184 11.8281C41.8511 12.6587 41.8072 13.6471 41.59 14.7661C41.3392 16.0533 40.9338 17.1743 40.3864 18.0916C39.8826 18.9369 39.2411 19.6378 38.4796 20.1812C37.7524 20.6973 36.8883 21.0892 35.9115 21.34C34.9647 21.5864 33.8856 21.7109 32.7019 21.7109H31.9392C31.3939 21.7109 30.864 21.9073 30.4483 22.2594C30.0315 22.6188 29.7554 23.1097 29.6709 23.6468L29.6134 23.9593L28.648 30.0763L28.6041 30.301C28.5927 30.3722 28.5728 30.4077 28.5437 30.4318C28.5175 30.4534 28.4799 30.4682 28.4432 30.4682H23.7343Z" fill="#253B80"/>
<path d="M40.2234 8.01917C40.1942 8.20617 40.1608 8.39736 40.1233 8.59378C38.8306 15.2293 34.4093 17.5215 28.762 17.5215H25.8868C25.1963 17.5215 24.6143 18.023 24.5067 18.7042L23.0345 28.0406L22.6176 30.6869C22.5476 31.1341 22.8925 31.5374 23.3437 31.5374H28.4435C29.0474 31.5374 29.5602 31.0986 29.6553 30.5031L29.7055 30.2439L30.6658 24.1506L30.7274 23.8165C30.8213 23.2189 31.3353 22.7801 31.9392 22.7801H32.7019C37.6426 22.7801 41.5106 20.7741 42.6412 14.9691C43.1133 12.5441 42.8688 10.5194 41.6192 9.09529C41.2411 8.66587 40.772 8.3096 40.2234 8.01917Z" fill="#179BD7"/>
<path d="M38.8709 7.48048C38.6736 7.42301 38.4697 7.37077 38.2607 7.32376C38.0508 7.2778 37.8354 7.23705 37.6141 7.20153C36.8387 7.07615 35.9894 7.0166 35.0793 7.0166H27.3981C27.2089 7.0166 27.0294 7.05943 26.8685 7.13675C26.5142 7.30704 26.251 7.64244 26.1873 8.05303L24.553 18.4027L24.5061 18.7047C24.6137 18.0235 25.1957 17.5219 25.8862 17.5219H28.7614C34.4087 17.5219 38.8303 15.2286 40.1227 8.59423C40.1612 8.39781 40.1936 8.20662 40.2228 8.01961C39.8959 7.84617 39.5416 7.69781 39.1602 7.57137C39.0664 7.54003 38.9693 7.50975 38.8709 7.48048Z" fill="#222D65"/>
<path d="M26.1873 8.05281C26.2511 7.64219 26.5146 7.30682 26.8685 7.13756C27.0306 7.06024 27.2093 7.01741 27.3982 7.01741H35.0797C35.9898 7.01741 36.8391 7.07696 37.6141 7.20234C37.8358 7.23786 38.0511 7.27861 38.261 7.32457C38.4701 7.37161 38.6737 7.42385 38.8713 7.48129C38.9693 7.51055 39.0665 7.54084 39.1615 7.57116C39.5429 7.69756 39.8971 7.84698 40.2241 8.01937C40.6087 5.56724 40.2211 3.89767 38.8953 2.38585C37.4337 0.721515 34.7955 0.00897217 31.4198 0.00897217H21.6195C20.9299 0.00897217 20.3419 0.510447 20.2351 1.1927L16.1533 27.0669C16.0727 27.5788 16.4676 28.0408 16.9837 28.0408H23.0343L24.5534 18.4025L26.1873 8.05281Z" fill="#253B80"/>
</svg>
