<svg width="71" height="45" viewBox="0 0 71 45" fill="none" xmlns="http://www.w3.org/2000/svg">
<path fill-rule="evenodd" clip-rule="evenodd" d="M22.6208 34.1675C23.0684 33.935 23.8293 33.6299 24.6352 33.6299C26.4853 33.6299 27.4852 34.8791 27.4852 37.2037C27.4852 39.9192 26.1427 41.2411 23.9789 41.2411C23.1877 41.2411 21.9642 40.9942 21.0688 40.5288V30.3911L22.6208 30.0278V34.1675ZM22.6061 39.9916C23.0833 40.1951 23.6058 40.2238 23.979 40.2238C25.0832 40.2238 25.9187 39.5559 25.9187 37.2036C25.9187 35.3584 25.2323 34.763 24.2326 34.763C23.6354 34.763 23.2031 34.9228 22.6061 35.2423V39.9916ZM6.71299 33.8184H6.81749L8.84644 41.0667H10.4579L12.8756 30.7682H11.1295L9.60756 38.4521H9.50358L7.42898 30.7682H6.10098L4.16123 38.4521H4.05672L2.38538 30.7682H0.714294L3.13172 41.0667H4.74289L6.71299 33.8184ZM19.4879 40.5724V39.4686C18.6671 39.9479 17.9213 40.2238 17.1156 40.2238C15.5786 40.2238 14.8475 39.4537 14.8475 37.711H19.7117V37.1738C19.7117 34.8066 18.5626 33.6299 16.6978 33.6299C14.4596 33.6299 13.3105 35.2277 13.3105 37.4351C13.3105 39.7304 14.34 41.2411 16.8467 41.2411C17.9213 41.2411 18.8165 40.9506 19.4879 40.5724ZM18.2941 36.7382H14.8778C15.0414 35.286 15.7423 34.6032 16.6531 34.6032C17.4588 34.6032 18.2202 35.2128 18.2941 36.7382ZM34.3495 38.8878H34.2746L30.9321 30.7682H29.1267V41.0667H30.4697V33.7753H30.6038L33.6483 41.0667H34.6029L37.6471 33.6008H37.7817V41.0667H39.3931V30.7682H37.5426L34.3495 38.8878ZM41.0348 37.4351C41.0348 34.8932 42.4673 33.6299 44.4369 33.6299C46.4067 33.6299 47.8395 34.8932 47.8395 37.4351C47.8395 39.9192 46.4814 41.2411 44.4369 41.2411C42.3923 41.2411 41.0348 39.9192 41.0348 37.4351ZM46.2722 37.4351C46.2722 35.4745 45.4512 34.6469 44.4367 34.6469C43.4518 34.6469 42.6012 35.4745 42.6012 37.4351C42.6012 39.4257 43.3776 40.2238 44.4367 40.2238C45.4961 40.2238 46.2722 39.4257 46.2722 37.4351ZM53.0609 33.6299C51.3457 33.6299 49.9277 34.3124 49.2563 34.7047V41.0667H50.8084V35.3148C51.2708 35.0538 52.0319 34.7917 52.6291 34.7917C53.39 34.7917 53.9714 34.9952 53.9714 36.1427V41.0667H55.5231V35.8082C55.5231 34.3124 54.8523 33.6299 53.0609 33.6299ZM63.0882 39.4686V40.5724C62.4171 40.9506 61.5222 41.2411 60.4472 41.2411C57.9409 41.2411 56.9111 39.7304 56.9111 37.4351C56.9111 35.2277 58.0604 33.6299 60.2984 33.6299C62.164 33.6299 63.3133 34.8066 63.3133 37.1738V37.711H58.4486C58.4486 39.4537 59.1797 40.2238 60.7164 40.2238C61.5222 40.2238 62.2682 39.9479 63.0882 39.4686ZM58.4784 36.7382H61.8952C61.8211 35.2128 61.0594 34.6032 60.2537 34.6032C59.3432 34.6032 58.6428 35.286 58.4784 36.7382ZM70.7143 33.8767H69.1176L67.4159 39.2215H67.327L65.4171 33.8767H63.7755L66.6406 41.1391C66.2819 42.2137 65.6559 42.9987 64.6412 42.9987V44.1891C66.3563 44.1891 67.2668 43.1439 68.0132 41.1391L70.7143 33.8767Z" fill="#0068A3"/>
<path fill-rule="evenodd" clip-rule="evenodd" d="M34.7138 0.323792C36.7673 0.323792 38.712 0.789267 40.4441 1.61566C40.7162 1.74128 40.9875 1.87949 41.2596 2.03207L40.0556 3.08094L38.2467 1.26039L35.1938 3.91093L33.3805 1.98455L27.6935 6.97428L31.3394 10.8853L29.9066 12.112L33.4977 16.029L32.0733 17.2528L37.2048 22.8125L40.2509 20.0829L42.8844 23.008C42.3606 23.4044 41.79 23.7774 41.1614 24.1221C39.257 25.1792 37.056 25.7844 34.7138 25.7844C27.5106 25.7844 21.6357 20.0651 21.6357 13.0545C21.6357 6.0423 27.5106 0.323792 34.7138 0.323792ZM32.3303 12.2497L35.4402 9.52359L38.2406 12.5515L35.1309 15.2765L32.3303 12.2497ZM37.652 14.7551L34.5418 17.4803L37.3427 20.5082L40.4526 17.7822L37.652 14.7551ZM30.1051 7.08011L33.215 4.35482L36.0146 7.38195L32.9046 10.1072L30.1051 7.08011ZM38.1445 3.56927L35.812 5.61305L37.912 7.88416L40.2444 5.83962L38.1445 3.56927ZM39.9562 14.9762L42.2894 12.9317L44.3893 15.2026L42.0569 17.2466L39.9562 14.9762ZM44.34 17.5173L42.0081 19.5622L44.108 21.8317L46.4405 19.7877L44.34 17.5173ZM42.9474 9.0517L44.5024 7.68893L45.9022 9.20249L44.348 10.565L42.9474 9.0517ZM42.5158 3.19189L40.9608 4.55441L42.3606 6.06797L43.9158 4.70545L42.5158 3.19189ZM44.9353 13.5487L46.4903 12.1859L47.8903 13.6993L46.3354 15.062L44.9353 13.5487ZM40.294 8.1341L37.9618 10.1789L40.0623 12.4485L42.394 10.4044L40.294 8.1341Z" fill="#0068A3"/>
</svg>
