<svg width="77" height="28" viewBox="0 0 77 28" fill="none" xmlns="http://www.w3.org/2000/svg">
<path fill-rule="evenodd" clip-rule="evenodd" d="M8.39926 18.3336C7.85234 18.637 7.27004 18.7885 6.65276 18.7885H6.17641C6.05267 18.7885 5.87596 18.7782 5.36563 18.6878L7.09114 11.3461C7.40857 11.0608 7.751 10.8756 8.14799 10.7861C8.54499 10.6969 8.80065 10.6729 9.04793 10.6729C9.80614 10.6729 10.3928 10.893 10.6753 11.375C10.9573 11.8565 11.0987 12.5257 11.0987 13.382C11.0987 14.0781 10.9837 14.7472 10.7546 15.3895C10.5252 16.0318 10.2121 16.6071 9.81533 17.1158C9.41834 17.6242 8.94598 18.0304 8.39926 18.3336ZM12.2896 7.78859C11.6718 7.48534 10.9399 7.33352 10.093 7.33352C9.68699 7.33352 9.30779 7.3782 8.95517 7.46735C8.60195 7.55691 8.26932 7.67235 7.9167 7.83286L9.53747 0.93692L5.43538 1.57919L0.857143 21.0367C1.36868 21.2867 1.911 21.4828 2.4847 21.6254C3.05781 21.7681 3.60033 21.875 4.11206 21.9466C4.6236 22.0177 5.07817 22.0578 5.47516 22.0671C5.87216 22.0758 6.15001 22.0804 6.30873 22.0804C7.54349 22.0804 8.6905 21.8437 9.74896 21.371C10.8076 20.8986 11.7247 20.2563 12.5013 19.4442C13.2775 18.6323 13.8906 17.6777 14.3406 16.5804C14.7906 15.4831 15.0154 14.3188 15.0154 13.0877C15.0154 12.2849 14.9181 11.5355 14.7242 10.8396C14.5299 10.1436 14.23 9.53729 13.8245 9.01955C13.4185 8.50222 12.9069 8.09203 12.2896 7.78859ZM23.139 5.61598L23.7417 3.05196H19.8121L19.2094 5.61598H23.139ZM27.632 18.4628C27.9208 18.6093 28.3188 18.6821 28.8251 18.6821C29.2591 18.6821 29.6795 18.6411 30.0863 18.5588C30.3524 18.505 30.6284 18.4415 30.9033 18.3467L30.0849 21.8087C30.0205 21.8245 29.9212 21.8488 29.8558 21.8639C29.2227 22.0101 28.4725 22.0833 27.6048 22.0833C26.357 22.0833 25.3895 21.8957 24.7027 21.5211C24.0152 21.1465 23.5271 20.6344 23.238 19.985C22.9486 19.3361 22.8218 18.5909 22.8584 17.7495C22.8944 16.9087 23.0211 16.0215 23.238 15.0889L25.8961 3.73325L30.0999 3.07481L29.0692 7.32647H33.5715L32.7579 10.6729H28.2828L27.0894 15.7198C26.9809 16.1407 26.9131 16.5337 26.8859 16.8992C26.859 17.2652 26.9037 17.5807 27.0217 17.8456C27.139 18.1108 27.3423 18.3166 27.632 18.4628ZM76.5714 7.33107H72.642L70.3564 17.0559H70.3604L70.0464 18.3936C69.8271 18.4558 69.6088 18.5118 69.3921 18.5557C68.9853 18.638 68.565 18.6792 68.131 18.6792C67.6244 18.6792 67.2266 18.6062 66.9376 18.4597C66.6481 18.3135 66.4448 18.1079 66.3273 17.8425C66.2096 17.5776 66.1646 17.2623 66.1918 16.8962C66.219 16.5306 66.2867 16.1376 66.3953 15.7167L67.5885 10.6698L68.375 7.32339L68.3752 7.32237H64.3609L62.5439 15.086C62.327 16.0186 62.2002 16.9057 62.1642 17.7466C62.1277 18.5878 62.2544 19.3332 62.5439 19.9819C62.8329 20.6313 63.3211 21.1436 64.0085 21.5182C64.6953 21.8926 65.6628 22.0804 66.9104 22.0804C67.7784 22.0804 68.5286 22.0072 69.1616 21.8608C69.1838 21.8558 69.2053 21.8504 69.2269 21.8449L69.2368 21.8424L69.235 21.8497C69.0591 22.6507 68.7029 23.3002 68.1312 23.8073C67.5589 24.3147 66.7097 24.5684 65.5837 24.5684C65.1029 24.5684 64.6662 24.5395 64.2704 24.4841L63.497 27.7749C64.0201 27.8434 64.6 27.8788 65.2405 27.8788C66.437 27.8788 67.4845 27.7405 68.382 27.4648C69.2796 27.1888 70.0492 26.7707 70.6917 26.2099C71.3339 25.6494 71.8706 24.946 72.302 24.1012C72.733 23.2556 73.0806 22.2549 73.3447 21.0977L76.0637 9.53787C76.0603 9.53625 76.0571 9.53504 76.0539 9.53362L76.5714 7.33107ZM15.3334 22.0832L18.8024 7.32259H22.732L19.263 22.0832H15.3334ZM57.2978 10.6728C55.4656 10.6728 55.1157 10.6728 54.3649 11.0666C53.832 11.346 53.3908 11.7661 53.0034 12.2562C52.6156 12.7464 52.3118 13.3121 52.0917 13.9535C51.871 14.5954 51.7611 15.2635 51.7611 15.9586C51.7611 16.8139 51.902 17.4915 52.1843 17.9903C52.4657 18.4894 52.9858 18.7387 53.7437 18.7387C54.1488 18.7387 54.5145 18.6586 54.8407 18.4981C55.1665 18.3378 55.5147 18.0703 55.8847 17.6961C55.9199 17.251 55.9773 16.7832 56.0567 16.2927C56.129 15.8448 56.2193 15.4267 56.3018 15.0446L56.3247 14.9382L57.2978 10.6728ZM60.0878 15.6377C59.8407 16.6538 59.7703 17.6739 59.8761 18.6987C59.982 19.7238 60.3696 21.2942 60.7476 22.0804H56.945C56.5989 21.4883 56.5223 21.1306 56.4693 20.8834L56.4693 20.8833L56.4693 20.8832C56.4512 20.7987 56.4359 20.7271 56.4135 20.6635C55.9199 21.0737 55.3736 21.4121 54.7747 21.6793C54.1754 21.9466 53.5058 22.0804 52.7656 22.0804C51.8844 22.0804 51.131 21.9241 50.5057 21.6126C49.8798 21.3009 49.3689 20.882 48.9725 20.3562C48.5759 19.8308 48.2893 19.2158 48.1136 18.5117C47.937 17.8077 47.8491 17.0547 47.8491 16.2527C47.8491 15.0229 48.0646 13.8646 48.4968 12.7775C48.9283 11.6905 49.5276 10.7414 50.2942 9.93029C51.0606 9.11942 52.9107 7.3313 55.9465 7.3313L57.7741 7.33122L62.0428 7.33109L60.0878 15.6377ZM37.0964 18.6884C37.3981 18.7604 37.7705 18.7961 38.2142 18.7961C38.9061 18.7961 39.5356 18.6662 40.1037 18.406C40.6712 18.146 41.1547 17.7827 41.5539 17.3159C41.9531 16.8495 42.2632 16.2891 42.4852 15.6339C42.7067 14.9791 42.8179 14.2572 42.8179 13.4676C42.8179 12.6963 42.6492 12.0411 42.3123 11.503C41.9751 10.9646 41.384 10.6785 40.5502 10.6751C39.9673 10.6729 38.9992 10.6729 38.9992 10.6729L37.0964 18.6884ZM46.7562 13.1714C46.7562 14.4814 46.5434 15.679 46.1176 16.7642C45.692 17.85 45.1019 18.7874 44.3481 19.5765C43.5937 20.3663 42.6889 20.9807 41.6337 21.4202C40.578 21.8595 39.4292 22.0794 38.1875 22.0794C37.5842 22.0794 36.9809 22.0257 36.378 21.9179L35.1804 26.789H31.2421L35.8137 7.33153C36.2897 7.33124 38.2276 7.33137 39.681 7.33146H39.6811H39.6812H39.6853H39.688H39.6939L41.0616 7.33153C42.0549 7.33153 42.911 7.48417 43.6295 7.78903C44.3481 8.09429 44.9376 8.51135 45.3991 9.04041C45.8601 9.56987 46.2015 10.1889 46.4236 10.8973C46.6451 11.6064 46.7562 12.3642 46.7562 13.1714Z" fill="#002855"/>
</svg>
