<svg width="71" height="23" viewBox="0 0 71 23" fill="none" xmlns="http://www.w3.org/2000/svg">
<path fill-rule="evenodd" clip-rule="evenodd" d="M18.3579 22.065H12.2998L7.75701 4.87837C7.54139 4.08778 7.08356 3.38886 6.41012 3.05945C4.72945 2.23163 2.87748 1.5728 0.85714 1.24053V0.578844H10.6162C11.9631 0.578844 12.9733 1.5728 13.1416 2.72717L15.4987 15.1245L21.5538 0.578844H27.4435L18.3579 22.065ZM30.8107 22.065H25.0894L29.8005 0.578844H35.5219L30.8107 22.065ZM42.9239 6.53117C43.0923 5.37393 44.1024 4.71225 45.281 4.71225C47.1329 4.54611 49.1503 4.87839 50.8339 5.70334L51.8441 1.07727C50.1605 0.415588 48.3085 0.083313 46.6278 0.083313C41.0749 0.083313 37.0342 3.05947 37.0342 7.18999C37.0342 10.3323 39.8963 11.9822 41.9167 12.9762C44.1024 13.9673 44.9442 14.6289 44.7759 15.62C44.7759 17.1067 43.0923 17.7684 41.4116 17.7684C39.3913 17.7684 37.3709 17.2728 35.5219 16.445L34.5117 21.0739C36.5321 21.8989 38.7178 22.2312 40.7381 22.2312C46.9646 22.3944 50.8339 19.4211 50.8339 14.9583C50.8339 9.33832 42.9239 9.00891 42.9239 6.53117V6.53117ZM70.8571 22.065L66.3143 0.578844H61.4348C60.4246 0.578844 59.4145 1.24053 59.0777 2.23163L50.6656 22.065H56.5553L57.7308 18.9256H64.9674L65.6409 22.065H70.8571ZM62.2766 6.36504L63.9573 14.4628H59.2461L62.2766 6.36504Z" fill="#172B85"/>
</svg>
