<svg width="64" height="40" viewBox="0 0 64 40" fill="none" xmlns="http://www.w3.org/2000/svg">
<path d="M12.9364 0.287903H28.6958C30.8956 0.287903 32.2639 2.08098 31.7507 4.28815L24.4136 35.7892C23.8958 37.9887 21.6932 39.7833 19.4918 39.7833H3.734C1.53721 39.7833 0.165893 37.9887 0.679079 35.7892L8.01926 4.28815C8.53245 2.08098 10.7338 0.287903 12.9364 0.287903Z" fill="#E21836"/>
<path d="M27.3835 0.285706H45.5064C47.7059 0.285706 46.7141 2.07879 46.1966 4.28595L38.8607 35.787C38.346 37.9865 38.5065 39.7811 36.3024 39.7811H18.1796C15.9755 39.7811 14.6115 37.9865 15.1293 35.787L22.4648 4.28595C22.9857 2.07879 25.1825 0.285706 27.3835 0.285706Z" fill="#00447C"/>
<path d="M44.7879 0.285706H60.5472C62.7502 0.285706 64.1184 2.07879 63.601 4.28595L56.2651 35.787C55.7473 37.9865 53.5432 39.7811 51.3406 39.7811H35.5885C33.3845 39.7811 32.0174 37.9865 32.5336 35.787L39.8707 4.28595C40.3839 2.07879 42.5838 0.285706 44.7879 0.285706Z" fill="#007B84"/>
<path d="M17.0514 10.3808C15.4308 10.3973 14.9522 10.3808 14.7993 10.3447C14.7405 10.624 13.647 15.6686 13.6439 15.6729C13.4084 16.6935 13.2371 17.421 12.6552 17.8908C12.3248 18.1639 11.9391 18.2956 11.492 18.2956C10.7733 18.2956 10.3546 17.9388 10.2844 17.262L10.2709 17.0296C10.2709 17.0296 10.4899 15.6625 10.4899 15.6548C10.4899 15.6548 11.6376 11.0576 11.8431 10.45C11.8539 10.4154 11.8569 10.3973 11.8596 10.3808C9.62558 10.4004 9.22955 10.3808 9.20228 10.3447C9.1873 10.3943 9.13199 10.6793 9.13199 10.6793L7.96003 15.8607L7.85939 16.3001L7.66464 17.7375C7.66464 18.1639 7.74838 18.5119 7.91509 18.8061C8.44902 19.7392 9.97206 19.879 10.8336 19.879C11.9438 19.879 12.9851 19.6431 13.6888 19.2125C14.9103 18.4908 15.2299 17.3626 15.5149 16.3601L15.6471 15.8457C15.6471 15.8457 16.8294 11.0711 17.0303 10.45C17.038 10.4154 17.0411 10.3973 17.0514 10.3808ZM21.0742 14.2326C20.7892 14.2326 20.2683 14.3017 19.8005 14.531C19.6307 14.6182 19.4701 14.7189 19.3007 14.8191L19.4536 14.2671L19.3699 14.1742C18.3777 14.3751 18.1557 14.402 17.2391 14.531L17.1623 14.5821C17.0559 15.4644 16.9614 16.1278 16.5669 17.8621C16.4167 18.5013 16.2608 19.1466 16.1044 19.7843L16.1467 19.8653C17.0859 19.8158 17.3709 19.8158 18.1872 19.8292L18.2532 19.7574C18.3569 19.2261 18.3704 19.1017 18.6001 18.0258C18.708 17.5156 18.9331 16.3948 19.0441 15.9957C19.2481 15.9012 19.4494 15.8082 19.6414 15.8082C20.0989 15.8082 20.0432 16.2073 20.0256 16.3664C20.006 16.6333 19.8393 17.5053 19.6683 18.2539L19.5542 18.7372C19.4747 19.094 19.3875 19.4409 19.308 19.7946L19.3426 19.8653C20.2683 19.8158 20.5507 19.8158 21.3412 19.8292L21.4341 19.7574C21.577 18.9277 21.6189 18.7057 21.8724 17.4976L21.9999 16.9425C22.2477 15.8562 22.3722 15.3054 22.1847 14.8568C21.9865 14.3539 21.511 14.2326 21.0742 14.2326ZM25.5681 15.3699C25.0761 15.4644 24.7622 15.5274 24.4503 15.5681C24.1411 15.6177 23.8396 15.6626 23.364 15.7287L23.3264 15.7629L23.2918 15.7901C23.2423 16.1443 23.2077 16.4504 23.142 16.8104C23.0863 17.1826 23.0007 17.6055 22.8612 18.2132C22.7533 18.6783 22.6976 18.8404 22.6361 19.0041C22.5762 19.1677 22.5101 19.3267 22.3888 19.7842L22.4172 19.8265L22.441 19.8653C22.8854 19.8442 23.1762 19.8292 23.4751 19.8265C23.7735 19.8157 24.0827 19.8265 24.5613 19.8292L24.6032 19.795L24.6482 19.7573C24.7173 19.3448 24.7277 19.2338 24.7699 19.0325C24.8118 18.8166 24.884 18.5178 25.0611 17.7196C25.1448 17.3447 25.2382 16.9709 25.325 16.5883C25.4152 16.2073 25.5097 15.832 25.5996 15.4571L25.5862 15.4118L25.5681 15.3699ZM25.5786 13.8364C25.1315 13.5725 24.3467 13.6563 23.8186 14.0208C23.2919 14.378 23.232 14.8851 23.6776 15.1524C24.117 15.409 24.9049 15.3326 25.4284 14.965C25.9539 14.6 26.0196 14.0976 25.5786 13.8364ZM28.2826 19.948C29.1872 19.948 30.1145 19.6987 30.8125 18.9589C31.3495 18.3589 31.5957 17.4662 31.681 17.0986C31.9587 15.8801 31.7424 15.3112 31.4709 14.9648C31.0583 14.4366 30.3292 14.2672 29.5729 14.2672C29.1181 14.2672 28.0349 14.3121 27.1887 15.0923C26.581 15.655 26.3002 16.4187 26.1308 17.1508C25.9599 17.8968 25.7632 19.2397 26.9981 19.7394C27.3792 19.903 27.9285 19.948 28.2826 19.948ZM28.212 17.2065C28.4205 16.2838 28.6668 15.5095 29.2952 15.5095C29.7876 15.5095 29.8234 16.0856 29.6044 17.0114C29.5652 17.2169 29.3855 17.9809 29.1423 18.3062C28.9725 18.5463 28.7716 18.6919 28.5496 18.6919C28.4835 18.6919 28.0906 18.6919 28.0844 18.1084C28.0814 17.8203 28.1401 17.5261 28.212 17.2065ZM33.9423 19.8293L34.013 19.7575C34.1132 19.2263 34.1297 19.1014 34.3518 18.0259C34.4628 17.5158 34.6925 16.3949 34.8004 15.9958C35.0048 15.9009 35.2026 15.808 35.4008 15.808C35.8552 15.808 35.7999 16.2071 35.7818 16.3661C35.7653 16.6334 35.5986 17.505 35.4246 18.2537L35.3167 18.7369C35.2341 19.0941 35.1442 19.4406 35.0647 19.7948L35.0993 19.8654C36.0281 19.8159 36.2996 19.8159 37.0948 19.8293L37.1908 19.7575C37.3302 18.9274 37.3679 18.7054 37.6291 17.4977L37.7535 16.9423C38.0025 15.856 38.1285 15.3055 37.9441 14.8569C37.7401 14.3541 37.2615 14.2327 36.8309 14.2327C36.5455 14.2327 36.0219 14.3014 35.5568 14.5311C35.3904 14.6183 35.2237 14.7186 35.0601 14.8192L35.2026 14.2672L35.1262 14.1739C34.1344 14.3752 33.9077 14.4021 32.9924 14.5311L32.9221 14.5822C32.8111 15.4646 32.7208 16.1275 32.3263 17.8622C32.1761 18.5014 32.0201 19.1467 31.8642 19.7844L31.9061 19.8654C32.8468 19.8159 33.1276 19.8159 33.9423 19.8293ZM40.7664 19.8652C40.8248 19.5802 41.1717 17.8909 41.1747 17.8909C41.1747 17.8909 41.4701 16.6513 41.4882 16.6064C41.4882 16.6064 41.5811 16.4773 41.6741 16.4262H41.8108C43.1011 16.4262 44.5581 16.4262 45.7001 15.5861C46.4771 15.0099 47.0084 14.1591 47.2454 13.1251C47.3068 12.8715 47.3522 12.57 47.3522 12.2685C47.3522 11.8724 47.2727 11.4806 47.043 11.1745C46.4606 10.3598 45.301 10.3448 43.9623 10.3386C43.9581 10.3386 43.3024 10.3448 43.3024 10.3448C41.5888 10.3659 40.9016 10.3598 40.6193 10.3252C40.5955 10.45 40.5505 10.6721 40.5505 10.6721C40.5505 10.6721 39.9367 13.5169 39.9367 13.5215C39.9367 13.5215 38.4678 19.5699 38.3987 19.8549C39.8948 19.8368 40.5083 19.8368 40.7664 19.8652ZM41.9038 14.8117C41.9038 14.8117 42.5564 11.9727 42.5533 11.9834L42.5745 11.8379L42.5837 11.7269L42.8445 11.7537C42.8445 11.7537 44.1905 11.8694 44.222 11.8724C44.7532 12.0779 44.9722 12.6076 44.8193 13.2991C44.6798 13.9309 44.27 14.4622 43.7433 14.7188C43.3097 14.9362 42.7784 14.9542 42.2311 14.9542H41.8769L41.9038 14.8117ZM45.9672 17.2591C45.7947 17.9943 45.5965 19.3372 46.8253 19.8158C47.2171 19.9825 47.5682 20.0321 47.9251 20.014C48.3019 19.9937 48.651 19.8047 48.9745 19.5327C48.9453 19.6445 48.9161 19.7563 48.8869 19.8684L48.9426 19.9403C49.8265 19.903 50.1007 19.903 51.0583 19.9103L51.1451 19.8442C51.285 19.0222 51.4167 18.224 51.7801 16.6514C51.9572 15.8981 52.1339 15.1522 52.3156 14.402L52.2871 14.3194C51.2984 14.5026 51.0341 14.5418 50.083 14.6766L50.0108 14.7354C50.0012 14.8119 49.9912 14.8852 49.982 14.9586C49.8341 14.7197 49.6198 14.5157 49.2891 14.3885C48.8661 14.2222 47.8728 14.4366 47.0189 15.214C46.4189 15.7691 46.1308 16.5296 45.9672 17.2591ZM48.0437 17.304C48.2554 16.3979 48.4985 15.6312 49.1285 15.6312C49.5268 15.6312 49.7366 15.9988 49.6939 16.6257C49.6601 16.782 49.6236 16.9468 49.5802 17.1331C49.5172 17.4024 49.4489 17.6693 49.3824 17.9367C49.3148 18.1195 49.2361 18.292 49.1496 18.4068C48.9875 18.6366 48.6019 18.7791 48.3798 18.7791C48.3169 18.7791 47.9281 18.7791 47.9147 18.206C47.9116 17.9205 47.9704 17.6267 48.0437 17.304ZM58.8877 14.3121L58.8113 14.2249C57.8329 14.4231 57.6558 14.4546 56.757 14.576L56.6909 14.642C56.6878 14.6528 56.6851 14.6693 56.6805 14.6843L56.6775 14.6693C56.0083 16.2131 56.0279 15.8801 55.4832 17.0954C55.4801 17.0401 55.4801 17.0055 55.4771 16.9468L55.3407 14.3121L55.2551 14.2249C54.2302 14.4231 54.206 14.4546 53.2595 14.576L53.1858 14.642C53.1754 14.6735 53.1754 14.7081 53.1693 14.7457L53.1754 14.7592C53.2937 15.3638 53.2653 15.229 53.384 16.1831C53.4393 16.6514 53.5131 17.1223 53.5684 17.5848C53.6617 18.3588 53.714 18.7398 53.828 19.921C53.1889 20.9758 53.0375 21.3749 52.4222 22.3006L52.4264 22.3099L51.9931 22.9951C51.9435 23.0674 51.8986 23.1169 51.8356 23.138C51.7665 23.1722 51.6766 23.1784 51.5517 23.1784H51.3117L50.9548 24.3653L52.179 24.3864C52.8977 24.3834 53.3494 24.0472 53.5926 23.5955L54.3624 22.2764H54.3501L54.4311 22.1835C54.9489 21.0688 58.8877 14.3121 58.8877 14.3121ZM45.9671 29.9007H45.4478L47.37 23.5431H48.0076L48.21 22.8882L48.2296 23.6165C48.2058 24.0666 48.56 24.4658 49.4903 24.3997H50.5662L50.9365 23.1755H50.5317C50.2989 23.1755 50.1909 23.1167 50.2044 22.9907L50.1848 22.2498H48.1924V22.2536C47.5482 22.267 45.6245 22.3154 45.235 22.4192C44.7637 22.5405 44.267 22.8978 44.267 22.8978L44.4622 22.2421H42.5984L42.21 23.5431L40.2622 29.9979H39.8842L39.5135 31.2132H43.2257L43.1012 31.6185H44.9304L45.0518 31.2132H45.565L45.9671 29.9007ZM44.4441 24.8349C44.1456 24.9175 43.5902 25.1679 43.5902 25.1679L44.0842 23.5431H45.565L45.2077 24.727C45.2077 24.727 44.7502 24.7538 44.4441 24.8349ZM44.4725 27.1561C44.4725 27.1561 44.0074 27.2145 43.7012 27.2837C43.3997 27.3751 42.8342 27.6632 42.8342 27.6632L43.3444 25.9723H44.8328L44.4725 27.1561ZM43.6428 29.9157H42.1574L42.588 28.4887H44.0688L43.6428 29.9157ZM47.22 25.9723H49.3611L49.0534 26.9687H46.8839L46.5582 28.0581H48.4565L47.0191 30.082C46.9185 30.2306 46.8282 30.2833 46.7279 30.3251C46.6273 30.3762 46.4952 30.4362 46.3423 30.4362H45.8156L45.4538 31.6292H46.8313C47.5473 31.6292 47.9702 31.3035 48.2825 30.876L49.2681 29.5269L49.4798 30.8967C49.5247 31.1533 49.7091 31.3035 49.8339 31.3619C49.9718 31.431 50.1144 31.5497 50.3156 31.5674C50.5315 31.5766 50.6875 31.5839 50.7912 31.5839H51.468L51.8744 30.2487H51.6074C51.4542 30.2487 51.1903 30.223 51.1453 30.175C51.1004 30.1166 51.1004 30.0267 51.0762 29.8899L50.8615 28.5171H49.9822L50.3679 28.0581H52.5332L52.8662 26.9687H50.8615L51.1738 25.9723H53.1723L53.543 24.7435H47.5845L47.22 25.9723ZM29.1362 30.1931L29.636 28.5306H31.6899L32.0652 27.2942H30.0093L30.3232 26.2709H32.3321L32.7043 25.0735H27.6777L27.3132 26.2709H28.4552L28.1506 27.2942H27.0055L26.626 28.5518H27.7676L27.1015 30.7512C27.0117 31.0424 27.1438 31.1534 27.2275 31.2886C27.3132 31.4204 27.4 31.5076 27.5951 31.5571C27.7964 31.6021 27.9343 31.629 28.1218 31.629H30.4373L30.8498 30.2592L29.8234 30.4002C29.6252 30.4002 29.0763 30.3763 29.1362 30.1931ZM29.3718 22.2346L28.8513 23.1753C28.7399 23.3808 28.6397 23.5083 28.5494 23.5671C28.4699 23.6166 28.3124 23.6374 28.0842 23.6374H27.8127L27.4497 24.8408H28.3516C28.7853 24.8408 29.1183 24.6818 29.2773 24.6023C29.4483 24.5109 29.4932 24.5631 29.6253 24.4356L29.9299 24.1717H32.7463L33.1201 22.9187H31.0585L31.4184 22.2346H29.3718ZM33.5297 30.2173C33.4817 30.1481 33.5163 30.0264 33.5896 29.7729L34.3594 27.225H37.0978C37.4969 27.2192 37.785 27.2146 37.9725 27.2012C38.1737 27.18 38.3927 27.1082 38.6312 26.9791C38.8774 26.8439 39.0034 26.7014 39.1098 26.5378C39.2285 26.3745 39.4191 26.0173 39.5827 25.4665L40.5503 22.2421L37.7086 22.2587C37.7086 22.2587 36.8335 22.3877 36.4483 22.5302C36.0595 22.6893 35.5041 23.1333 35.5041 23.1333L35.7607 22.2494H34.0052L31.5476 30.4001C31.4604 30.7166 31.4021 30.9463 31.3886 31.0842C31.384 31.2329 31.5761 31.38 31.7005 31.491C31.8476 31.602 32.0651 31.584 32.2736 31.602C32.493 31.6186 32.8049 31.6289 33.2355 31.6289H34.5845L34.9986 30.2307L33.7909 30.3448C33.6618 30.3448 33.5685 30.2757 33.5297 30.2173ZM34.8561 25.5041H37.7324L37.5495 26.0772C37.5238 26.0907 37.4623 26.0488 37.1696 26.0834H34.679L34.8561 25.5041ZM35.4323 23.582H38.3328L38.1242 24.2722C38.1242 24.2722 36.7571 24.2588 36.5381 24.2991C35.5748 24.4658 35.012 24.9806 35.012 24.9806L35.4323 23.582ZM37.6139 27.9964C37.5901 28.0821 37.5525 28.1343 37.4998 28.1735C37.4414 28.2111 37.347 28.2246 37.206 28.2246H36.7961L36.8203 27.5266H35.1156L35.0464 30.9388C35.0438 31.185 35.0676 31.3275 35.2477 31.4416C35.4279 31.5841 35.9829 31.6022 36.7301 31.6022H37.7983L38.184 30.3249L37.254 30.376L36.9448 30.3941C36.9025 30.376 36.8622 30.3595 36.8172 30.3146C36.7781 30.2758 36.712 30.2996 36.7228 30.0534L36.7301 29.1787L37.7053 29.1384C38.232 29.1384 38.4571 28.9671 38.6491 28.8038C38.8324 28.6475 38.8923 28.4677 38.9614 28.2246L39.1251 27.4502H37.7849L37.6139 27.9964Z" fill="#FEFEFE"/>
</svg>
