<svg width="100" height="100" viewBox="0 0 100 100" fill="none" xmlns="http://www.w3.org/2000/svg">
<rect x="0.5" y="0.5" width="99" height="99" rx="19.5" fill="white" stroke="#DCDCEB"/>
<path d="M72.3855 55.6135C69.3083 67.9565 56.8069 75.4682 44.4625 72.3902C32.1232 69.3131 24.6115 56.8108 27.69 44.4689C30.7658 32.1245 43.2673 24.6123 55.6079 27.6894C67.9514 30.7666 75.4627 43.2702 72.3852 55.6137L72.3854 55.6135H72.3855Z" fill="#50AF95"/>
<path fill-rule="evenodd" clip-rule="evenodd" d="M52.9554 52.6521V52.6521C52.7925 52.6643 51.9508 52.7145 50.0732 52.7145C48.5798 52.7145 47.5196 52.6697 47.1476 52.6521V52.6521C41.3763 52.3982 37.0686 51.3936 37.0686 50.1907C37.0686 48.9879 41.3763 47.9846 47.1476 47.7267V51.6515C47.525 51.6787 48.6056 51.7425 50.099 51.7425C51.8911 51.7425 52.7885 51.6678 52.95 51.6529V47.7294C58.709 47.986 63.0072 48.9906 63.0072 50.1907C63.0072 51.3908 58.7104 52.3955 52.95 52.6507V52.6507L52.9554 52.6521ZM52.9554 47.3234V43.8113H60.9925V38.4555H39.1105V43.8113H47.1462V47.3221C40.6147 47.6221 35.7029 48.9159 35.7029 50.4663C35.7029 52.0167 40.6147 53.3092 47.1462 53.6105V64.8652H52.9541V53.6065C59.4706 53.3064 64.3743 52.014 64.3743 50.465C64.3743 48.9159 59.4747 47.6235 52.9541 47.3221V47.3221L52.9554 47.3234Z" fill="white"/>
</svg>
