<svg width="100" height="100" viewBox="0 0 100 100" fill="none" xmlns="http://www.w3.org/2000/svg">
<rect x="0.5" y="0.5" width="99" height="99" rx="19.5" fill="white" stroke="#DCDCEB"/>
<path d="M50 73C62.7459 73 73 62.7459 73 50C73 37.2541 62.7459 27 50 27C37.2541 27 27 37.2541 27 50C27 62.7459 37.2541 73 50 73Z" fill="#2775CA"/>
<path d="M57 53.5352C57 50.0498 54.806 48.8548 50.4179 48.357C47.2835 47.9586 46.6567 47.162 46.6567 45.7676C46.6567 44.3733 47.7015 43.4772 49.791 43.4772C51.6716 43.4772 52.7165 44.0747 53.2388 45.5685C53.3433 45.8673 53.6568 46.0664 53.9702 46.0664H55.6417C56.0597 46.0664 56.3731 45.7676 56.3731 45.3694V45.2698C55.9551 43.0788 54.0745 41.386 51.6716 41.1869V38.7968C51.6716 38.3984 51.3582 38.0997 50.8359 38H49.2687C48.8507 38 48.5373 38.2988 48.4327 38.7968V41.0872C45.2984 41.4856 43.3134 43.4772 43.3134 45.9669C43.3134 49.2532 45.4029 50.5477 49.791 51.0458C52.7165 51.5436 53.6568 52.1411 53.6568 53.7345C53.6568 55.328 52.1939 56.4233 50.209 56.4233C47.4924 56.4233 46.5521 55.3277 46.2387 53.834C46.1343 53.4358 45.8209 53.2365 45.5075 53.2365H43.7312C43.3134 53.2365 43 53.5352 43 53.9336V54.0333C43.4177 56.5228 45.0895 58.3153 48.5373 58.8134V61.2034C48.5373 61.6016 48.8507 61.9003 49.373 62H50.9402C51.3582 62 51.6716 61.7012 51.7762 61.2034V58.8134C54.9105 58.3153 57 56.224 57 53.5352V53.5352Z" fill="white"/>
<path fill-rule="evenodd" clip-rule="evenodd" d="M36.5836 45.3041C33.8042 52.6834 37.6377 61.0209 45.1127 63.7041C45.4002 63.8959 45.6877 64.2791 45.6877 64.5666V65.9084C45.6877 66.1 45.6877 66.1959 45.5918 66.2916C45.4961 66.675 45.1127 66.8666 44.7292 66.675C39.3627 64.95 35.2417 60.8291 33.5167 55.4625C30.6417 46.3584 35.6252 36.6791 44.7292 33.8041C44.8252 33.7084 45.0168 33.7084 45.1127 33.7084C45.4961 33.8041 45.6877 34.0916 45.6877 34.475V35.8166C45.6877 36.2959 45.4961 36.5834 45.1127 36.775C41.1836 38.2125 38.0211 41.2791 36.5836 45.3041ZM54.4084 34.1875C54.5041 33.8041 54.8875 33.6125 55.2709 33.8041C60.5416 35.5291 64.7584 39.65 66.4834 45.1125C69.3584 54.2166 64.375 63.8959 55.2709 66.7709C55.175 66.8666 54.9834 66.8666 54.8875 66.8666C54.5041 66.7709 54.3125 66.4834 54.3125 66.1V64.7584C54.3125 64.2791 54.5041 63.9916 54.8875 63.8C58.8166 62.3625 61.9791 59.2959 63.4166 55.2709C66.1959 47.8916 62.3625 39.5541 54.8875 36.8709C54.6 36.6791 54.3125 36.2959 54.3125 35.9125V34.5709C54.3125 34.3791 54.3125 34.2834 54.4084 34.1875Z" fill="white"/>
</svg>
